<svg width="573" height="524" viewBox="0 0 573 524" fill="none" xmlns="http://www.w3.org/2000/svg">
<path fill-rule="evenodd" clip-rule="evenodd" d="M179.797 61.5472C175.666 61.1519 172.343 66.4759 167.379 66.8207C163.52 67.0889 167.818 66.3308 163.473 66.4411C160.046 66.5276 158.929 67.5852 154.203 65.7463L152.953 65.0875C153.424 61.5408 152.456 63.1377 155.952 61.1664C157.349 60.3787 158.068 60.2243 159.602 59.1603C161.934 49.2198 159.995 28.8019 159.843 18.5178C161.331 17.5908 161.543 17.1943 162.221 16.7149C162.361 16.6162 162.575 16.4653 162.71 16.373L164.612 15.3177L162.668 14.0471C145.684 7.78208 31.2786 13.5989 15.1776 19.9179C6.10489 23.4785 5.0647 37.6587 3.97981 48.1408C-0.117705 87.7413 37.2963 68.4135 44.4865 87.5051C56.0366 118.176 63.0655 152.018 72.5039 180.35C75.7208 190.006 77.8511 201.488 81.2167 211.381C84.7157 221.667 87.6831 232.103 90.5924 242.621L103.33 289.844C105.514 298.527 110.784 311.963 112.858 320.825C114.099 326.123 115.607 331.696 117.087 336.918C119.168 344.26 122.959 362.929 126.393 367.775C127.122 364.36 125.661 365.863 126.028 361.452C130.553 362.167 127.836 362.803 131.849 364.373C133.597 365.057 138.162 365.815 140.546 366.038C149.799 366.906 141.145 368.244 157.299 368.532C169.258 368.745 200.92 370.841 207.63 359.773C208.645 358.099 209.593 355.31 210.405 353.182C214.356 342.832 214.363 349.275 217.007 335.388C217.6 332.275 221.162 327.554 223.278 321.256C226.481 311.725 225.464 312.385 229.717 303.27C233.325 295.536 231.812 297.685 233.356 292.385C234.871 287.181 240.787 276.066 240.963 275.54L251.252 251.413C251.329 251.222 251.42 251 251.498 250.809L254.802 240.494C255.358 239.285 255.667 238.678 256.399 237.061C257.395 234.857 257.287 235.402 258.153 233.712C259.418 231.24 259.97 227.623 261.724 225.436C261.831 225.303 262.008 225.131 262.123 225.008L265.534 221.804C265.586 221.708 267.916 210.809 274.781 210.697L275.134 211.72C275.902 215.125 275.209 215.702 273.662 217.185L272.162 218.448C275.186 219.344 273.783 220.34 277.141 219.986C279.53 219.735 279.23 218.803 282.275 218.313L282.348 223.88C282.369 231.125 276.991 239.912 276.495 245.001L275.853 243.582C275.775 243.393 275.405 242.484 275.308 242.246C274.639 240.616 275.117 241.257 274.218 239.736L274.129 246.285C275.296 246.785 274.796 245.41 275.518 248.056C273.655 250.432 274.757 250.211 273.774 252.294C272.813 254.33 273.007 253.683 270.928 254.752C270.667 259.915 268.341 267.298 267.076 272.435C265.74 277.863 261.288 283.191 262.16 288.737C266.082 283.125 282.489 228.638 286.529 225.477C289.486 230.177 294.988 254.78 297.542 262.217C301.805 274.63 304.711 287.041 308.459 299.583C311.621 310.166 327.133 368.101 332.211 372.228L330.371 365.428C340.843 364.581 332.483 370.04 360.374 369.831C370.463 369.756 409.204 372.269 416.427 364.457C416.549 364.326 416.696 364.1 416.803 363.971C416.903 363.852 417.04 363.617 417.127 363.506C418.446 361.831 419.935 360.756 420.788 358.394C422.068 354.854 420.919 355.416 423.171 352.057C426.675 346.828 427.755 331.868 431.953 322.746L438.487 299.424C439.074 293.61 441.026 294.332 443.19 289.15C444.579 285.826 444.842 277.206 450.803 263.024L460.887 232.214C464.201 216.574 463.199 225.079 465.295 219.505C468.035 212.222 467.262 202.356 471.259 195.683C471.848 194.698 472.171 193.851 472.616 192.806C475.897 185.123 475.829 176.23 479.154 171.35C480.867 168.837 479.669 171.633 480.806 169.105C480.807 169.102 483.907 151.868 485.357 149.662C489.678 143.089 488.591 138.106 491.926 130.921C493.332 127.892 493.074 128.48 494.318 124.855C495.208 122.262 495.932 121.686 496.739 118.818C497.621 115.686 497.337 114.719 498.409 111.944L508.928 84.529L517.219 71.753C518.855 68.8779 518.79 69.3307 521.396 67.537C522.337 66.8887 522.717 66.6263 523.833 65.7341L525.653 64.3236C525.809 64.2406 526.025 64.1326 526.193 64.0595C528.281 63.1563 530.416 63.093 532.655 61.9843C534.585 61.0283 535.803 59.8731 538.358 59.371C541.149 58.8231 542.569 59.0216 544.861 58.1886C546.801 56.4374 549.961 24.9877 550.838 21.5838L551.237 20.3892C551.293 20.1919 551.387 19.9864 551.439 19.7826C551.494 19.5679 551.572 19.3595 551.62 19.1337C552.533 14.8609 552.067 9.78876 551.546 5.04693L558.556 6.73434C556.839 10.7988 557.107 7.04953 556.291 10.4522L557.573 11.4518C560.111 12.1559 558.234 8.32656 562.225 9.31452C564.849 9.96406 564.725 11.5981 565.864 14.0697L568.544 13.4503C561.777 -4.15521 501.971 1.88048 482.887 2.14982C470.81 2.32047 432.905 5.05911 421.735 7.7014C410.911 10.2613 405.403 11.3792 403.248 22.8208C397.245 54.6867 400.124 61.0788 423.4 65.0376C434.12 66.8608 443.025 66.2136 439.589 80.7734C438.541 85.214 437.519 89.5715 436.455 94.4771C435.326 99.6769 433.958 102.231 432.817 107.858C425.235 145.266 413.595 178.565 404.492 214.522C402.968 220.543 390.361 263.527 388.065 265.437C383.642 259.75 364.383 181.996 359.024 163.745C352.308 140.868 342.448 87.6572 337.008 72.5337C331.283 56.6156 311.758 59.0152 294.081 58.8138C283.451 58.6931 268.952 58.8614 261.426 63.4807C253.216 68.5198 252.483 77.856 248.307 88.2754C241.147 106.145 235.504 125.66 228.996 144.222L195.195 242.232C192.664 247.298 191.79 252.565 188.348 254.964C184.227 249.04 156.406 120.288 151.384 95.7164C148.546 81.8293 148.067 76.6306 157.747 72.3195C167.241 68.0908 175.12 69.3585 179.797 61.5478L179.797 61.5472Z" fill="white"/>
<path fill-rule="evenodd" clip-rule="evenodd" d="M332.211 372.227C339.762 392.872 415.803 388.092 431.771 383.549C441.712 380.719 446.274 371.611 449.325 361.399L467.223 300.89C472.835 279.337 487.112 232.914 494.863 210.13C498.348 199.885 500.788 190.037 504.043 179.599C513.762 148.449 522.088 120.328 532.982 90.1982C537.699 77.151 537.88 73.3548 551.546 69.3409C566.178 65.0431 567.964 64.512 570.37 48.4029C571.828 38.64 574.647 20.4459 568.545 13.4483L565.865 14.0677C564.726 11.5961 564.85 9.96147 562.226 9.31251C558.235 8.32456 560.112 12.1539 557.574 11.4498L556.292 10.4502C557.108 7.04811 556.84 10.7968 558.557 6.73234L551.547 5.04492C552.068 9.78675 552.534 14.8589 551.621 19.1317C551.573 19.3575 551.496 19.5659 551.44 19.7806C551.387 19.985 551.294 20.1899 551.238 20.3872L550.839 21.5818C549.962 24.9857 546.802 56.4354 544.862 58.1866C542.571 59.0202 541.15 58.8211 538.359 59.369C535.804 59.8711 534.586 61.0263 532.656 61.9823C530.417 63.091 528.282 63.1548 526.194 64.0575C526.026 64.1306 525.81 64.2386 525.654 64.3216L523.834 65.7321C522.718 66.6243 522.339 66.8867 521.397 67.535C518.79 69.3287 518.856 68.8765 517.22 71.751L508.929 84.527L498.411 111.942C497.337 114.717 497.622 115.685 496.74 118.816C495.933 121.683 495.209 122.26 494.319 124.853C493.075 128.477 493.334 127.889 491.927 130.919C488.592 138.104 489.679 143.087 485.358 149.66C483.908 151.866 480.808 169.099 480.807 169.103C479.67 171.631 480.868 168.835 479.155 171.348C475.83 176.228 475.898 185.121 472.617 192.804C472.171 193.849 471.849 194.696 471.26 195.681C467.263 202.354 468.036 212.22 465.296 219.503C463.2 225.077 464.202 216.572 460.888 232.212L450.804 263.022C444.843 277.203 444.58 285.824 443.191 289.148C441.026 294.33 439.075 293.608 438.488 299.422L431.954 322.744C427.756 331.866 426.675 346.827 423.172 352.055C420.92 355.414 422.069 354.852 420.789 358.392C419.936 360.754 418.447 361.829 417.128 363.504C417.041 363.615 416.904 363.85 416.804 363.969C416.697 364.098 416.55 364.324 416.428 364.455C409.206 372.267 370.465 369.754 360.375 369.829C332.484 370.038 340.844 364.578 330.372 365.426L332.212 372.226L332.211 372.227Z" fill="#D2D4D5"/>
<path fill-rule="evenodd" clip-rule="evenodd" d="M126.393 367.776C127.686 374.446 135.541 380.594 142.425 383.292C149.644 386.122 161.071 387.624 169.871 387.88C186.814 388.373 215.372 388.181 226.67 380.628C233.822 375.847 233.71 369.003 237.451 360.267C240.626 352.85 242.633 343.883 245.534 336.152L254.154 312.639C255.938 306.945 261.836 293.273 262.159 288.736C261.286 283.19 265.739 277.861 267.075 272.434C268.34 267.296 270.666 259.913 270.926 254.751C273.006 253.682 272.812 254.329 273.773 252.293C274.756 250.21 273.653 250.43 275.517 248.055C274.795 245.409 275.294 246.784 274.128 246.284L274.216 239.735C275.116 241.256 274.638 240.615 275.306 242.245C275.404 242.483 275.774 243.392 275.852 243.581L276.494 245C276.989 239.911 282.368 231.123 282.347 223.879L282.273 218.311C279.229 218.803 279.529 219.734 277.14 219.985C273.782 220.338 275.185 219.342 272.161 218.447L273.661 217.184C275.207 215.7 275.9 215.124 275.133 211.718L274.779 210.696C267.915 210.808 265.585 221.707 265.533 221.803L262.121 225.007C262.006 225.129 261.829 225.302 261.723 225.435C259.969 227.622 259.416 231.238 258.151 233.711C257.286 235.4 257.394 234.856 256.397 237.059C255.665 238.677 255.356 239.284 254.801 240.493L251.496 250.808C251.419 250.999 251.328 251.22 251.25 251.412L240.962 275.539C240.786 276.065 234.871 287.181 233.354 292.384C231.81 297.684 233.323 295.535 229.715 303.269C225.463 312.384 226.48 311.724 223.277 321.255C221.161 327.553 217.598 332.274 217.006 335.386C214.362 349.273 214.355 342.831 210.404 353.181C209.591 355.309 208.643 358.098 207.629 359.772C200.919 370.839 169.256 368.743 157.298 368.53C141.143 368.242 149.798 366.904 140.545 366.037C138.16 365.814 133.595 365.056 131.848 364.372C127.835 362.802 130.551 362.166 126.026 361.451C125.659 365.861 127.12 364.359 126.391 367.774L126.393 367.776Z" fill="#D2D4D5"/>
<path fill-rule="evenodd" clip-rule="evenodd" d="M179.797 61.5474C183.877 52.4451 182.631 41.4122 180.808 31.1826C179.149 21.8766 173.004 15.0346 162.669 14.0479L164.613 15.3185L162.71 16.3738C162.575 16.4661 162.361 16.6164 162.222 16.7157C161.544 17.1951 161.332 17.5916 159.843 18.5186C159.996 28.8021 161.934 49.2201 159.602 59.1611C158.068 60.2251 157.35 60.3795 155.953 61.1672C152.456 63.1385 153.424 61.5416 152.953 65.0883L154.204 65.7471C158.929 67.586 160.046 66.5284 163.473 66.4419C167.818 66.3322 163.52 67.0897 167.379 66.8215C172.343 66.4767 175.666 61.1521 179.798 61.548L179.797 61.5474Z" fill="#D2D4D5"/>
<path fill-rule="evenodd" clip-rule="evenodd" d="M145.887 514.103C160.986 519.655 172.492 528.805 197.821 520.946C210.876 516.895 222.955 509.319 230.653 498.619C232.549 495.985 232.569 495.348 234.715 493.764C235.011 491.722 234.523 493.908 235.114 492.138L240.94 477.705C243.323 471.079 243.473 464.828 243.358 457.149C243.165 444.352 237.029 431.334 231.328 422.845C218.589 403.88 191.034 395.632 166.356 403.294C122.222 416.995 102.265 477.341 143.024 511.176L145.887 514.102L145.887 514.103Z" fill="#373535"/>
<path fill-rule="evenodd" clip-rule="evenodd" d="M341.323 509.476C351.202 514.435 359.067 524.841 383.146 523.458C421.707 521.244 451.326 481.124 440.62 445.212C437.1 433.407 433.734 430.887 431.888 425.601L430.031 423.867C419.825 412.111 407.805 402.421 390.798 401.23C371.635 399.888 354.964 405.45 341.601 417.61C331.44 426.856 320.921 443.592 320.997 463.41C321.035 473.191 323.64 483.114 326.946 490.394C328.663 494.175 330.755 497.378 333.289 500.413C335.103 502.586 340.331 507.743 341.323 509.476Z" fill="#373535"/>
<path fill-rule="evenodd" clip-rule="evenodd" d="M180.523 440.058C171.208 443.808 173.215 441.734 166.245 448.46C161.255 453.274 158.456 463.418 161.216 470.235C161.863 471.832 161.397 470.403 162.17 472.321C165.826 481.39 176.074 486.946 186.53 486.151C197.292 485.333 207.947 472.767 205.774 459.725C204.007 449.12 199.942 442.374 190.422 439.98C187.374 439.214 183.6 438.819 180.523 440.058Z" fill="white"/>
<path fill-rule="evenodd" clip-rule="evenodd" d="M378.317 486.059C382.156 486.049 383.654 486.598 387.044 485.358C395.426 482.292 399.413 480.083 403.203 470.479C406.223 462.827 404.766 453.224 399.521 446.843L394.145 441.993C384.529 441.024 381.93 439.028 373.125 443.171C366.311 446.378 364.325 451.411 361.873 456.194C357.37 464.977 362.868 476.652 370.789 481.35C372.89 482.595 376.597 484.038 378.317 486.059H378.317Z" fill="white"/>
<path fill-rule="evenodd" clip-rule="evenodd" d="M182.04 453.268C176.761 455.073 171.546 457.357 172.636 464.813C173.339 469.625 179.146 474.909 185.654 473.696C199.864 471.047 193.721 449.277 182.04 453.268Z" fill="#373535"/>
<path fill-rule="evenodd" clip-rule="evenodd" d="M378.603 453.929C373.941 455.69 370.997 461.399 373.01 466.609C379.57 483.588 401.937 464.059 386.276 454.838C383.238 453.048 382.22 452.562 378.603 453.929Z" fill="#373535"/>
<path fill-rule="evenodd" clip-rule="evenodd" d="M378.317 486.059C376.597 484.038 372.89 482.596 370.789 481.349C362.867 476.652 357.37 464.977 361.873 456.194C364.325 451.411 366.31 446.377 373.124 443.171C381.93 439.028 384.528 441.024 394.145 441.993C391.101 436.961 377.409 439.237 373.005 441.513C369.351 443.402 367.856 444.744 365.423 447.196C351.008 461.726 362.303 485.218 378.317 486.059V486.059Z" fill="#D38F70"/>
<path fill-rule="evenodd" clip-rule="evenodd" d="M179.797 61.5472C175.666 61.1519 172.343 66.4759 167.379 66.8207C163.52 67.0889 167.818 66.3308 163.473 66.4411C160.046 66.5276 158.929 67.5852 154.203 65.7463L152.953 65.0875C153.424 61.5408 152.456 63.1377 155.952 61.1664C157.349 60.3787 158.068 60.2243 159.602 59.1603C161.934 49.2198 159.995 28.8019 159.843 18.5178C161.331 17.5908 161.543 17.1943 162.221 16.7149C162.361 16.6162 162.575 16.4653 162.71 16.373L164.612 15.3177L162.668 14.0471C145.684 7.78208 31.2786 13.5989 15.1776 19.9179C6.10489 23.4785 5.0647 37.6587 3.97981 48.1408C-0.117705 87.7413 37.2963 68.4135 44.4865 87.5051C56.0366 118.176 63.0655 152.018 72.5039 180.35C75.7208 190.006 77.8511 201.488 81.2167 211.381C84.7157 221.667 87.6831 232.103 90.5924 242.621L103.33 289.844C105.514 298.527 110.784 311.963 112.858 320.825C114.099 326.123 115.607 331.696 117.087 336.918C119.168 344.26 122.959 362.929 126.393 367.775C127.122 364.36 125.661 365.863 126.028 361.452C130.553 362.167 127.836 362.803 131.849 364.373C133.597 365.057 138.162 365.815 140.546 366.038C149.799 366.906 141.145 368.244 157.299 368.532C169.258 368.745 200.92 370.841 207.63 359.773C208.645 358.099 209.593 355.31 210.405 353.182C214.356 342.832 214.363 349.275 217.007 335.388C217.6 332.275 221.162 327.554 223.278 321.256C226.481 311.725 225.464 312.385 229.717 303.27C233.325 295.536 231.812 297.685 233.356 292.385C234.871 287.181 240.787 276.066 240.963 275.54L251.252 251.413C251.329 251.222 251.42 251 251.498 250.809L254.802 240.494C255.358 239.285 255.667 238.678 256.399 237.061C257.395 234.857 257.287 235.402 258.153 233.712C259.418 231.24 259.97 227.623 261.724 225.436C261.831 225.303 262.008 225.131 262.123 225.008L265.534 221.804C265.586 221.708 267.916 210.809 274.781 210.697L275.134 211.72C275.902 215.125 275.209 215.702 273.662 217.185L272.162 218.448C275.186 219.344 273.783 220.34 277.141 219.986C279.53 219.735 279.23 218.803 282.275 218.313L282.348 223.88C282.369 231.125 276.991 239.912 276.495 245.001L275.853 243.582C275.775 243.393 275.405 242.484 275.308 242.246C274.639 240.616 275.117 241.257 274.218 239.736L274.129 246.285C275.296 246.785 274.796 245.41 275.518 248.056C273.655 250.432 274.757 250.211 273.774 252.294C272.813 254.33 273.007 253.683 270.928 254.752C270.667 259.915 268.341 267.298 267.076 272.435C265.74 277.863 261.288 283.191 262.16 288.737C266.082 283.125 282.489 228.638 286.529 225.477C289.486 230.177 294.988 254.78 297.542 262.217C301.805 274.63 304.711 287.041 308.459 299.583C311.621 310.166 327.133 368.101 332.211 372.228L330.371 365.428C340.843 364.581 332.483 370.04 360.374 369.831C370.463 369.756 409.204 372.269 416.427 364.457C416.549 364.326 416.696 364.1 416.803 363.971C416.903 363.852 417.04 363.617 417.127 363.506C418.446 361.831 419.935 360.756 420.788 358.394C422.068 354.854 420.919 355.416 423.171 352.057C426.675 346.828 427.755 331.868 431.953 322.746L438.487 299.424C439.074 293.61 441.026 294.332 443.19 289.15C444.579 285.826 444.842 277.206 450.803 263.024L460.887 232.214C464.201 216.574 463.199 225.079 465.295 219.505C468.035 212.222 467.262 202.356 471.259 195.683C471.848 194.698 472.171 193.851 472.616 192.806C475.897 185.123 475.829 176.23 479.154 171.35C480.867 168.837 479.669 171.633 480.806 169.105C480.807 169.102 483.907 151.868 485.357 149.662C489.678 143.089 488.591 138.106 491.926 130.921C493.332 127.892 493.074 128.48 494.318 124.855C495.208 122.262 495.932 121.686 496.739 118.818C497.621 115.686 497.337 114.719 498.409 111.944L508.928 84.529L517.219 71.753C518.855 68.8779 518.79 69.3307 521.396 67.537C522.337 66.8887 522.717 66.6263 523.833 65.7341L525.653 64.3236C525.809 64.2406 526.025 64.1326 526.193 64.0595C528.281 63.1563 530.416 63.093 532.655 61.9843C534.585 61.0283 535.803 59.8731 538.358 59.371C541.149 58.8231 542.569 59.0216 544.861 58.1886C546.801 56.4374 549.961 24.9877 550.838 21.5838L551.237 20.3892C551.293 20.1919 551.387 19.9864 551.439 19.7826C551.494 19.5679 551.572 19.3595 551.62 19.1337C552.533 14.8609 552.067 9.78876 551.546 5.04693L558.556 6.73434C556.839 10.7988 557.107 7.04953 556.291 10.4522L557.573 11.4518C560.111 12.1559 558.234 8.32656 562.225 9.31452C564.849 9.96406 564.725 11.5981 565.864 14.0697L568.544 13.4503C561.777 -4.15521 501.971 1.88048 482.887 2.14982C470.81 2.32047 432.905 5.05911 421.735 7.7014C410.911 10.2613 405.403 11.3792 403.248 22.8208C397.245 54.6867 400.124 61.0788 423.4 65.0376C434.12 66.8608 443.025 66.2136 439.589 80.7734C438.541 85.214 437.519 89.5715 436.455 94.4771C435.326 99.6769 433.958 102.231 432.817 107.858C425.235 145.266 413.595 178.565 404.492 214.522C402.968 220.543 390.361 263.527 388.065 265.437C383.642 259.75 364.383 181.996 359.024 163.745C352.308 140.868 342.448 87.6572 337.008 72.5337C331.283 56.6156 311.758 59.0152 294.081 58.8138C283.451 58.6931 268.952 58.8614 261.426 63.4807C253.216 68.5198 252.483 77.856 248.307 88.2754C241.147 106.145 235.504 125.66 228.996 144.222L195.195 242.232C192.664 247.298 191.79 252.565 188.348 254.964C184.227 249.04 156.406 120.288 151.384 95.7164C148.546 81.8293 148.067 76.6306 157.747 72.3195C167.241 68.0908 175.12 69.3585 179.797 61.5478L179.797 61.5472Z" fill="#FFF215"/>
<path fill-rule="evenodd" clip-rule="evenodd" d="M332.211 372.227C339.762 392.872 415.803 388.092 431.771 383.549C441.712 380.719 446.274 371.611 449.325 361.399L467.223 300.89C472.835 279.337 487.112 232.914 494.863 210.13C498.348 199.885 500.788 190.037 504.043 179.599C513.762 148.449 522.088 120.328 532.982 90.1982C537.699 77.151 537.88 73.3548 551.546 69.3409C566.178 65.0431 567.964 64.512 570.37 48.4029C571.828 38.64 574.647 20.4459 568.545 13.4483L565.865 14.0677C564.726 11.5961 564.85 9.96147 562.226 9.31251C558.235 8.32456 560.112 12.1539 557.574 11.4498L556.292 10.4502C557.108 7.04811 556.84 10.7968 558.557 6.73234L551.547 5.04492C552.068 9.78675 552.534 14.8589 551.621 19.1317C551.573 19.3575 551.496 19.5659 551.44 19.7806C551.387 19.985 551.294 20.1899 551.238 20.3872L550.839 21.5818C549.962 24.9857 546.802 56.4354 544.862 58.1866C542.571 59.0202 541.15 58.8211 538.359 59.369C535.804 59.8711 534.586 61.0263 532.656 61.9823C530.417 63.091 528.282 63.1548 526.194 64.0575C526.026 64.1306 525.81 64.2386 525.654 64.3216L523.834 65.7321C522.718 66.6243 522.339 66.8867 521.397 67.535C518.79 69.3287 518.856 68.8765 517.22 71.751L508.929 84.527L498.411 111.942C497.337 114.717 497.622 115.685 496.74 118.816C495.933 121.683 495.209 122.26 494.319 124.853C493.075 128.477 493.334 127.889 491.927 130.919C488.592 138.104 489.679 143.087 485.358 149.66C483.908 151.866 480.808 169.099 480.807 169.103C479.67 171.631 480.868 168.835 479.155 171.348C475.83 176.228 475.898 185.121 472.617 192.804C472.171 193.849 471.849 194.696 471.26 195.681C467.263 202.354 468.036 212.22 465.296 219.503C463.2 225.077 464.202 216.572 460.888 232.212L450.804 263.022C444.843 277.203 444.58 285.824 443.191 289.148C441.026 294.33 439.075 293.608 438.488 299.422L431.954 322.744C427.756 331.866 426.675 346.827 423.172 352.055C420.92 355.414 422.069 354.852 420.789 358.392C419.936 360.754 418.447 361.829 417.128 363.504C417.041 363.615 416.904 363.85 416.804 363.969C416.697 364.098 416.55 364.324 416.428 364.455C409.206 372.267 370.465 369.754 360.375 369.829C332.484 370.038 340.844 364.578 330.372 365.426L332.212 372.226L332.211 372.227Z" fill="#FFCC2A"/>
<path fill-rule="evenodd" clip-rule="evenodd" d="M126.393 367.776C127.686 374.446 135.541 380.594 142.425 383.292C149.644 386.122 161.071 387.624 169.871 387.88C186.814 388.373 215.372 388.181 226.67 380.628C233.822 375.847 233.71 369.003 237.451 360.267C240.626 352.85 242.633 343.883 245.534 336.152L254.154 312.639C255.938 306.945 261.836 293.273 262.159 288.736C261.286 283.19 265.739 277.861 267.075 272.434C268.34 267.296 270.666 259.913 270.926 254.751C273.006 253.682 272.812 254.329 273.773 252.293C274.756 250.21 273.653 250.43 275.517 248.055C274.795 245.409 275.294 246.784 274.128 246.284L274.216 239.735C275.116 241.256 274.638 240.615 275.306 242.245C275.404 242.483 275.774 243.392 275.852 243.581L276.494 245C276.989 239.911 282.368 231.123 282.347 223.879L282.273 218.311C279.229 218.803 279.529 219.734 277.14 219.985C273.782 220.338 275.185 219.342 272.161 218.447L273.661 217.184C275.207 215.7 275.9 215.124 275.133 211.718L274.779 210.696C267.915 210.808 265.585 221.707 265.533 221.803L262.121 225.007C262.006 225.129 261.829 225.302 261.723 225.435C259.969 227.622 259.416 231.238 258.151 233.711C257.286 235.4 257.394 234.856 256.397 237.059C255.665 238.677 255.356 239.284 254.801 240.493L251.496 250.808C251.419 250.999 251.328 251.22 251.25 251.412L240.962 275.539C240.786 276.065 234.871 287.181 233.354 292.384C231.81 297.684 233.323 295.535 229.715 303.269C225.463 312.384 226.48 311.724 223.277 321.255C221.161 327.553 217.598 332.274 217.006 335.386C214.362 349.273 214.355 342.831 210.404 353.181C209.591 355.309 208.643 358.098 207.629 359.772C200.919 370.839 169.256 368.743 157.298 368.53C141.143 368.242 149.798 366.904 140.545 366.037C138.16 365.814 133.595 365.056 131.848 364.372C127.835 362.802 130.551 362.166 126.026 361.451C125.659 365.861 127.12 364.359 126.391 367.774L126.393 367.776Z" fill="#FFCC2A"/>
<path fill-rule="evenodd" clip-rule="evenodd" d="M179.797 61.5474C183.877 52.4451 182.631 41.4122 180.808 31.1826C179.149 21.8766 173.004 15.0346 162.669 14.0479L164.613 15.3185L162.71 16.3738C162.575 16.4661 162.361 16.6164 162.222 16.7157C161.544 17.1951 161.332 17.5916 159.843 18.5186C159.996 28.8021 161.934 49.2201 159.602 59.1611C158.068 60.2251 157.35 60.3795 155.953 61.1672C152.456 63.1385 153.424 61.5416 152.953 65.0883L154.204 65.7471C158.929 67.586 160.046 66.5284 163.473 66.4419C167.818 66.3322 163.52 67.0897 167.379 66.8215C172.343 66.4767 175.666 61.1521 179.798 61.548L179.797 61.5474Z" fill="#FFCC2A"/>
<path fill-rule="evenodd" clip-rule="evenodd" d="M0.215088 506.009C5.46947 509.123 122.011 515.866 129.472 506.009C115.834 497.097 37.9808 500.245 14.1004 502.868C5.99769 503.758 4.51808 501.732 0.215665 506.009H0.215088Z" fill="#E6E7E8"/>
<path fill-rule="evenodd" clip-rule="evenodd" d="M39.0605 469.854C45.4933 475.313 87.1824 475.33 97.3522 472.14C92.161 468.062 46.6896 466.249 39.0605 469.854Z" fill="#E6E7E8"/>
<path fill-rule="evenodd" clip-rule="evenodd" d="M36.1759 444.13C42.3091 445.743 94.2295 445.178 101.858 443.892C98.6834 441.745 92.5061 442.251 86.9655 442.046C80.9571 441.824 75.1472 441.51 69.1162 441.458L43.9036 441.684C42.7201 441.73 41.2242 441.732 40.1602 441.998C32.9189 443.811 38.9784 441.702 36.1753 444.13L36.1759 444.13Z" fill="#E6E7E8"/>
<path fill-rule="evenodd" clip-rule="evenodd" d="M145.887 514.103C160.986 519.655 172.492 528.805 197.821 520.946C210.876 516.895 222.955 509.319 230.653 498.619C232.549 495.985 232.569 495.348 234.715 493.764C235.011 491.722 234.523 493.908 235.114 492.138L240.94 477.705C243.323 471.079 243.473 464.828 243.358 457.149C243.165 444.352 237.029 431.334 231.328 422.845C218.589 403.88 191.034 395.632 166.356 403.294C122.222 416.995 102.265 477.341 143.024 511.176L145.887 514.102L145.887 514.103Z" fill="#373535"/>
<path fill-rule="evenodd" clip-rule="evenodd" d="M341.323 509.476C351.202 514.435 359.067 524.841 383.146 523.458C421.707 521.244 451.326 481.124 440.62 445.212C437.1 433.407 433.734 430.887 431.888 425.601L430.031 423.867C419.825 412.111 407.805 402.421 390.798 401.23C371.635 399.888 354.964 405.45 341.601 417.61C331.44 426.856 320.921 443.592 320.997 463.41C321.035 473.191 323.64 483.114 326.946 490.394C328.663 494.175 330.755 497.378 333.289 500.413C335.103 502.586 340.331 507.743 341.323 509.476Z" fill="#373535"/>
<path fill-rule="evenodd" clip-rule="evenodd" d="M180.523 440.058C171.208 443.808 173.215 441.734 166.245 448.46C161.255 453.274 158.456 463.418 161.216 470.235C161.863 471.832 161.397 470.403 162.17 472.321C165.826 481.39 176.074 486.946 186.53 486.151C197.292 485.333 207.947 472.767 205.774 459.725C204.007 449.12 199.942 442.374 190.422 439.98C187.374 439.214 183.6 438.819 180.523 440.058Z" fill="white"/>
<path fill-rule="evenodd" clip-rule="evenodd" d="M378.317 486.059C382.156 486.049 383.654 486.598 387.044 485.358C395.426 482.292 399.413 480.083 403.203 470.479C406.223 462.827 404.766 453.224 399.521 446.843L394.145 441.993C384.529 441.024 381.93 439.028 373.125 443.171C366.311 446.378 364.325 451.411 361.873 456.194C357.37 464.977 362.868 476.652 370.789 481.35C372.89 482.595 376.597 484.038 378.317 486.059H378.317Z" fill="white"/>
<path fill-rule="evenodd" clip-rule="evenodd" d="M182.04 453.268C176.761 455.073 171.546 457.357 172.636 464.813C173.339 469.625 179.146 474.909 185.654 473.696C199.864 471.047 193.721 449.277 182.04 453.268Z" fill="#373535"/>
<path fill-rule="evenodd" clip-rule="evenodd" d="M378.603 453.929C373.941 455.69 370.997 461.399 373.01 466.609C379.57 483.588 401.937 464.059 386.276 454.838C383.238 453.048 382.22 452.562 378.603 453.929Z" fill="#373535"/>
<path fill-rule="evenodd" clip-rule="evenodd" d="M378.317 486.059C376.597 484.038 372.89 482.596 370.789 481.349C362.867 476.652 357.37 464.977 361.873 456.194C364.325 451.411 366.31 446.377 373.124 443.171C381.93 439.028 384.528 441.024 394.145 441.993C391.101 436.961 377.409 439.237 373.005 441.513C369.351 443.402 367.856 444.744 365.423 447.196C351.008 461.726 362.303 485.218 378.317 486.059V486.059Z" fill="white"/>
<path fill-rule="evenodd" clip-rule="evenodd" d="M271.751 508.505C274.304 510.66 330.913 515.329 334.538 508.505C327.913 502.334 290.096 504.513 278.496 506.33C274.56 506.946 273.842 505.543 271.752 508.505H271.751Z" fill="#E6E7E8"/>
<path fill-rule="evenodd" clip-rule="evenodd" d="M285.406 486.492C288.531 490.273 308.782 490.284 313.722 488.075C311.2 485.252 289.113 483.997 285.406 486.492Z" fill="#E6E7E8"/>
<path fill-rule="evenodd" clip-rule="evenodd" d="M284.005 468.681C286.984 469.798 312.205 469.407 315.91 468.517C314.368 467.03 311.367 467.381 308.676 467.238C305.758 467.084 302.935 466.868 300.006 466.832L287.759 466.988C287.184 467.02 286.458 467.021 285.94 467.205C282.423 468.46 285.366 467 284.005 468.681H284.005Z" fill="#E6E7E8"/>
</svg>
