<svg width="708" height="708" viewBox="0 0 708 708" fill="none" xmlns="http://www.w3.org/2000/svg">
<rect width="708" height="708" rx="105" fill="#00A27F"/>
<path fill-rule="evenodd" clip-rule="evenodd" d="M247.797 153.547C243.666 153.152 240.343 158.476 235.379 158.821C231.52 159.089 235.818 158.331 231.473 158.441C228.046 158.528 226.929 159.585 222.203 157.746L220.953 157.087C221.424 153.541 220.456 155.138 223.952 153.166C225.349 152.379 226.068 152.224 227.602 151.16C229.934 141.22 227.995 120.802 227.843 110.518C229.331 109.591 229.543 109.194 230.221 108.715C230.361 108.616 230.575 108.465 230.71 108.373L232.612 107.318L230.668 106.047C213.684 99.7821 99.2786 105.599 83.1776 111.918C74.1049 115.478 73.0647 129.659 71.9798 140.141C67.8823 179.741 105.296 160.414 112.486 179.505C124.037 210.176 131.065 244.018 140.504 272.35C143.721 282.006 145.851 293.488 149.217 303.381C152.716 313.667 155.683 324.103 158.592 334.621L171.33 381.844C173.514 390.527 178.784 403.963 180.858 412.825C182.099 418.123 183.607 423.696 185.087 428.918C187.168 436.26 190.959 454.929 194.393 459.775C195.122 456.36 193.661 457.863 194.028 453.452C198.553 454.167 195.836 454.803 199.849 456.373C201.597 457.057 206.162 457.815 208.546 458.038C217.799 458.906 209.145 460.244 225.299 460.532C237.258 460.745 268.92 462.841 275.63 451.773C276.645 450.099 277.593 447.31 278.405 445.182C282.356 434.832 282.363 441.275 285.007 427.388C285.6 424.275 289.162 419.554 291.278 413.256C294.481 403.725 293.464 404.385 297.717 395.27C301.325 387.536 299.812 389.685 301.356 384.385C302.871 379.181 308.787 368.066 308.963 367.54L319.252 343.413C319.329 343.222 319.42 343 319.498 342.809L322.802 332.494C323.358 331.285 323.667 330.678 324.399 329.061C325.395 326.857 325.287 327.402 326.153 325.712C327.418 323.24 327.97 319.623 329.724 317.436C329.831 317.303 330.008 317.131 330.123 317.008L333.534 313.804C333.586 313.708 335.916 302.809 342.781 302.697L343.134 303.72C343.902 307.125 343.209 307.702 341.662 309.185L340.162 310.448C343.186 311.344 341.783 312.34 345.141 311.986C347.53 311.735 347.23 310.803 350.275 310.313L350.348 315.88C350.369 323.125 344.991 331.912 344.495 337.001L343.853 335.582C343.775 335.393 343.405 334.484 343.308 334.246C342.639 332.616 343.117 333.257 342.218 331.736L342.129 338.285C343.296 338.785 342.796 337.41 343.518 340.056C341.655 342.432 342.757 342.211 341.774 344.294C340.813 346.33 341.007 345.683 338.928 346.752C338.667 351.915 336.341 359.298 335.076 364.435C333.74 369.863 329.288 375.191 330.16 380.737C334.082 375.125 350.489 320.638 354.529 317.477C357.486 322.177 362.988 346.78 365.542 354.217C369.805 366.63 372.711 379.041 376.459 391.583C379.621 402.166 395.133 460.101 400.211 464.228L398.371 457.428C408.843 456.581 400.483 462.04 428.374 461.831C438.463 461.756 477.204 464.269 484.427 456.457C484.549 456.326 484.696 456.1 484.803 455.971C484.903 455.852 485.04 455.617 485.127 455.506C486.446 453.831 487.935 452.756 488.788 450.394C490.068 446.854 488.919 447.416 491.171 444.057C494.675 438.828 495.755 423.868 499.953 414.746L506.487 391.424C507.074 385.61 509.026 386.332 511.19 381.15C512.579 377.826 512.842 369.206 518.803 355.024L528.887 324.214C532.201 308.574 531.199 317.079 533.295 311.505C536.035 304.222 535.262 294.356 539.259 287.683C539.848 286.698 540.171 285.851 540.616 284.806C543.897 277.123 543.829 268.23 547.154 263.35C548.867 260.837 547.669 263.633 548.806 261.105C548.807 261.102 551.907 243.868 553.357 241.662C557.678 235.089 556.591 230.106 559.926 222.921C561.332 219.892 561.074 220.48 562.318 216.855C563.208 214.262 563.932 213.686 564.739 210.818C565.621 207.686 565.337 206.719 566.409 203.944L576.928 176.529L585.219 163.753C586.855 160.878 586.79 161.331 589.396 159.537C590.337 158.889 590.717 158.626 591.833 157.734L593.653 156.324C593.809 156.241 594.025 156.133 594.193 156.059C596.281 155.156 598.416 155.093 600.655 153.984C602.585 153.028 603.803 151.873 606.358 151.371C609.149 150.823 610.569 151.022 612.861 150.189C614.801 148.437 617.961 116.988 618.838 113.584L619.237 112.389C619.293 112.192 619.387 111.986 619.439 111.783C619.494 111.568 619.572 111.359 619.62 111.134C620.533 106.861 620.067 101.789 619.546 97.0469L626.556 98.7343C624.839 102.799 625.107 99.0495 624.291 102.452L625.573 103.452C628.111 104.156 626.234 100.327 630.225 101.315C632.849 101.964 632.725 103.598 633.864 106.07L636.544 105.45C629.777 87.8448 569.971 93.8805 550.887 94.1498C538.81 94.3205 500.905 97.0591 489.735 99.7014C478.911 102.261 473.403 103.379 471.248 114.821C465.245 146.687 468.124 153.079 491.4 157.038C502.12 158.861 511.025 158.214 507.589 172.773C506.541 177.214 505.519 181.572 504.455 186.477C503.326 191.677 501.958 194.231 500.817 199.858C493.235 237.266 481.595 270.565 472.492 306.522C470.968 312.543 458.361 355.527 456.065 357.437C451.642 351.75 432.383 273.996 427.024 255.745C420.308 232.868 410.448 179.657 405.008 164.534C399.283 148.616 379.758 151.015 362.081 150.814C351.451 150.693 336.952 150.861 329.426 155.481C321.216 160.52 320.483 169.856 316.307 180.275C309.147 198.145 303.504 217.66 296.996 236.222L263.195 334.232C260.664 339.298 259.79 344.565 256.348 346.964C252.227 341.04 224.406 212.288 219.384 187.716C216.546 173.829 216.067 168.631 225.747 164.319C235.241 160.091 243.12 161.359 247.797 153.548L247.797 153.547Z" fill="white"/>
<path fill-rule="evenodd" clip-rule="evenodd" d="M400.211 464.227C407.762 484.872 483.803 480.092 499.771 475.549C509.712 472.719 514.274 463.611 517.325 453.399L535.223 392.89C540.835 371.337 555.112 324.914 562.863 302.13C566.348 291.885 568.788 282.037 572.043 271.599C581.762 240.449 590.088 212.328 600.982 182.198C605.699 169.151 605.88 165.355 619.546 161.341C634.178 157.043 635.964 156.512 638.37 140.403C639.828 130.64 642.647 112.446 636.545 105.448L633.865 106.068C632.726 103.596 632.85 101.961 630.226 101.313C626.235 100.325 628.112 104.154 625.574 103.45L624.292 102.45C625.108 99.0481 624.84 102.797 626.557 98.7323L619.547 97.0449C620.068 101.787 620.534 106.859 619.621 111.132C619.573 111.357 619.496 111.566 619.44 111.781C619.387 111.985 619.294 112.19 619.238 112.387L618.839 113.582C617.962 116.986 614.802 148.435 612.862 150.187C610.571 151.02 609.15 150.821 606.359 151.369C603.804 151.871 602.586 153.026 600.656 153.982C598.417 155.091 596.282 155.155 594.194 156.057C594.026 156.131 593.81 156.239 593.654 156.322L591.834 157.732C590.718 158.624 590.339 158.887 589.397 159.535C586.79 161.329 586.856 160.876 585.22 163.751L576.929 176.527L566.411 203.942C565.337 206.717 565.622 207.685 564.74 210.816C563.933 213.683 563.209 214.26 562.319 216.853C561.075 220.477 561.334 219.889 559.927 222.919C556.592 230.104 557.679 235.087 553.358 241.66C551.908 243.866 548.808 261.099 548.807 261.103C547.67 263.631 548.868 260.835 547.155 263.348C543.83 268.228 543.898 277.121 540.617 284.804C540.171 285.849 539.849 286.696 539.26 287.681C535.263 294.354 536.036 304.22 533.296 311.503C531.2 317.077 532.202 308.572 528.888 324.212L518.804 355.022C512.843 369.203 512.58 377.824 511.191 381.148C509.026 386.33 507.075 385.608 506.488 391.422L499.954 414.744C495.756 423.866 494.675 438.827 491.172 444.055C488.92 447.414 490.069 446.852 488.789 450.392C487.936 452.754 486.447 453.829 485.128 455.504C485.041 455.615 484.904 455.85 484.804 455.969C484.697 456.098 484.55 456.324 484.428 456.455C477.206 464.267 438.465 461.754 428.375 461.829C400.484 462.038 408.844 456.578 398.372 457.426L400.212 464.226L400.211 464.227Z" fill="#D2D4D5"/>
<path fill-rule="evenodd" clip-rule="evenodd" d="M194.393 459.776C195.686 466.446 203.541 472.594 210.425 475.292C217.644 478.122 229.071 479.624 237.871 479.88C254.814 480.373 283.372 480.181 294.67 472.628C301.822 467.847 301.71 461.003 305.451 452.267C308.626 444.85 310.633 435.883 313.534 428.152L322.154 404.639C323.938 398.945 329.836 385.273 330.159 380.736C329.286 375.19 333.739 369.861 335.075 364.434C336.34 359.296 338.666 351.913 338.926 346.751C341.006 345.682 340.812 346.329 341.773 344.293C342.756 342.21 341.653 342.43 343.517 340.055C342.795 337.409 343.294 338.784 342.128 338.284L342.216 331.735C343.116 333.256 342.638 332.615 343.306 334.245C343.404 334.483 343.774 335.392 343.852 335.581L344.494 337C344.989 331.911 350.368 323.123 350.347 315.879L350.273 310.311C347.229 310.803 347.529 311.734 345.14 311.985C341.782 312.338 343.185 311.342 340.161 310.447L341.661 309.184C343.207 307.7 343.9 307.124 343.133 303.718L342.779 302.696C335.915 302.808 333.585 313.707 333.533 313.803L330.121 317.007C330.006 317.129 329.829 317.302 329.723 317.435C327.969 319.622 327.416 323.238 326.151 325.711C325.286 327.4 325.394 326.856 324.397 329.059C323.665 330.677 323.356 331.284 322.801 332.493L319.496 342.808C319.419 342.999 319.328 343.22 319.25 343.412L308.962 367.539C308.786 368.065 302.871 379.181 301.354 384.384C299.81 389.684 301.323 387.535 297.715 395.269C293.463 404.384 294.48 403.724 291.277 413.255C289.161 419.553 285.598 424.274 285.006 427.386C282.362 441.273 282.355 434.831 278.404 445.181C277.591 447.309 276.643 450.098 275.629 451.772C268.919 462.839 237.256 460.743 225.298 460.53C209.143 460.242 217.798 458.904 208.545 458.037C206.16 457.814 201.595 457.056 199.848 456.372C195.835 454.802 198.551 454.166 194.026 453.451C193.659 457.861 195.12 456.359 194.391 459.774L194.393 459.776Z" fill="#D2D4D5"/>
<path fill-rule="evenodd" clip-rule="evenodd" d="M247.797 153.547C251.877 144.445 250.631 133.412 248.808 123.183C247.149 113.877 241.004 107.035 230.669 106.048L232.613 107.318L230.71 108.374C230.575 108.466 230.361 108.616 230.222 108.716C229.544 109.195 229.332 109.592 227.843 110.519C227.996 120.802 229.934 141.22 227.602 151.161C226.068 152.225 225.35 152.38 223.953 153.167C220.456 155.138 221.424 153.542 220.953 157.088L222.204 157.747C226.929 159.586 228.046 158.528 231.473 158.442C235.818 158.332 231.52 159.09 235.379 158.822C240.343 158.477 243.666 153.152 247.798 153.548L247.797 153.547Z" fill="#D2D4D5"/>
<path fill-rule="evenodd" clip-rule="evenodd" d="M213.887 606.103C228.986 611.655 240.492 620.805 265.821 612.946C278.876 608.895 290.955 601.319 298.653 590.619C300.549 587.985 300.569 587.348 302.715 585.764C303.011 583.722 302.523 585.908 303.114 584.138L308.94 569.705C311.323 563.079 311.473 556.828 311.358 549.149C311.165 536.352 305.029 523.334 299.328 514.845C286.589 495.88 259.034 487.632 234.356 495.294C190.222 508.995 170.265 569.341 211.024 603.176L213.887 606.102L213.887 606.103Z" fill="#373535"/>
<path fill-rule="evenodd" clip-rule="evenodd" d="M409.323 601.476C419.202 606.435 427.067 616.841 451.146 615.458C489.707 613.244 519.326 573.124 508.62 537.212C505.1 525.407 501.734 522.887 499.888 517.601L498.031 515.867C487.825 504.111 475.805 494.421 458.798 493.23C439.635 491.888 422.964 497.45 409.601 509.61C399.44 518.856 388.921 535.592 388.997 555.41C389.035 565.191 391.64 575.114 394.946 582.394C396.663 586.175 398.755 589.378 401.289 592.413C403.103 594.586 408.331 599.743 409.323 601.476Z" fill="#373535"/>
<path fill-rule="evenodd" clip-rule="evenodd" d="M248.523 532.058C239.208 535.808 241.215 533.734 234.245 540.46C229.255 545.274 226.456 555.418 229.216 562.235C229.863 563.832 229.397 562.403 230.17 564.321C233.826 573.39 244.074 578.946 254.53 578.151C265.292 577.333 275.947 564.767 273.774 551.725C272.007 541.12 267.942 534.374 258.422 531.98C255.374 531.214 251.6 530.819 248.523 532.058Z" fill="white"/>
<path fill-rule="evenodd" clip-rule="evenodd" d="M446.317 578.059C450.156 578.049 451.654 578.598 455.044 577.358C463.426 574.292 467.413 572.083 471.203 562.479C474.223 554.827 472.766 545.224 467.521 538.843L462.145 533.993C452.529 533.024 449.93 531.028 441.125 535.171C434.311 538.378 432.325 543.411 429.873 548.194C425.37 556.977 430.868 568.652 438.789 573.35C440.89 574.595 444.597 576.038 446.317 578.059H446.317Z" fill="white"/>
<path fill-rule="evenodd" clip-rule="evenodd" d="M250.04 545.268C244.761 547.073 239.546 549.357 240.636 556.813C241.339 561.625 247.146 566.909 253.654 565.696C267.864 563.047 261.721 541.277 250.04 545.268Z" fill="#373535"/>
<path fill-rule="evenodd" clip-rule="evenodd" d="M446.603 545.929C441.941 547.69 438.997 553.399 441.01 558.609C447.57 575.588 469.937 556.059 454.276 546.838C451.238 545.048 450.22 544.562 446.603 545.929Z" fill="#373535"/>
<path fill-rule="evenodd" clip-rule="evenodd" d="M446.317 578.059C444.597 576.038 440.89 574.596 438.789 573.349C430.867 568.652 425.37 556.977 429.873 548.194C432.325 543.411 434.31 538.377 441.124 535.171C449.93 531.028 452.528 533.024 462.145 533.993C459.101 528.961 445.409 531.237 441.005 533.513C437.351 535.402 435.856 536.744 433.423 539.196C419.008 553.726 430.303 577.218 446.317 578.059V578.059Z" fill="#D38F70"/>
<path fill-rule="evenodd" clip-rule="evenodd" d="M247.797 153.547C243.666 153.152 240.343 158.476 235.379 158.821C231.52 159.089 235.818 158.331 231.473 158.441C228.046 158.528 226.929 159.585 222.203 157.746L220.953 157.087C221.424 153.541 220.456 155.138 223.952 153.166C225.349 152.379 226.068 152.224 227.602 151.16C229.934 141.22 227.995 120.802 227.843 110.518C229.331 109.591 229.543 109.194 230.221 108.715C230.361 108.616 230.575 108.465 230.71 108.373L232.612 107.318L230.668 106.047C213.684 99.7821 99.2786 105.599 83.1776 111.918C74.1049 115.478 73.0647 129.659 71.9798 140.141C67.8823 179.741 105.296 160.414 112.486 179.505C124.037 210.176 131.065 244.018 140.504 272.35C143.721 282.006 145.851 293.488 149.217 303.381C152.716 313.667 155.683 324.103 158.592 334.621L171.33 381.844C173.514 390.527 178.784 403.963 180.858 412.825C182.099 418.123 183.607 423.696 185.087 428.918C187.168 436.26 190.959 454.929 194.393 459.775C195.122 456.36 193.661 457.863 194.028 453.452C198.553 454.167 195.836 454.803 199.849 456.373C201.597 457.057 206.162 457.815 208.546 458.038C217.799 458.906 209.145 460.244 225.299 460.532C237.258 460.745 268.92 462.841 275.63 451.773C276.645 450.099 277.593 447.31 278.405 445.182C282.356 434.832 282.363 441.275 285.007 427.388C285.6 424.275 289.162 419.554 291.278 413.256C294.481 403.725 293.464 404.385 297.717 395.27C301.325 387.536 299.812 389.685 301.356 384.385C302.871 379.181 308.787 368.066 308.963 367.54L319.252 343.413C319.329 343.222 319.42 343 319.498 342.809L322.802 332.494C323.358 331.285 323.667 330.678 324.399 329.061C325.395 326.857 325.287 327.402 326.153 325.712C327.418 323.24 327.97 319.623 329.724 317.436C329.831 317.303 330.008 317.131 330.123 317.008L333.534 313.804C333.586 313.708 335.916 302.809 342.781 302.697L343.134 303.72C343.902 307.125 343.209 307.702 341.662 309.185L340.162 310.448C343.186 311.344 341.783 312.34 345.141 311.986C347.53 311.735 347.23 310.803 350.275 310.313L350.348 315.88C350.369 323.125 344.991 331.912 344.495 337.001L343.853 335.582C343.775 335.393 343.405 334.484 343.308 334.246C342.639 332.616 343.117 333.257 342.218 331.736L342.129 338.285C343.296 338.785 342.796 337.41 343.518 340.056C341.655 342.432 342.757 342.211 341.774 344.294C340.813 346.33 341.007 345.683 338.928 346.752C338.667 351.915 336.341 359.298 335.076 364.435C333.74 369.863 329.288 375.191 330.16 380.737C334.082 375.125 350.489 320.638 354.529 317.477C357.486 322.177 362.988 346.78 365.542 354.217C369.805 366.63 372.711 379.041 376.459 391.583C379.621 402.166 395.133 460.101 400.211 464.228L398.371 457.428C408.843 456.581 400.483 462.04 428.374 461.831C438.463 461.756 477.204 464.269 484.427 456.457C484.549 456.326 484.696 456.1 484.803 455.971C484.903 455.852 485.04 455.617 485.127 455.506C486.446 453.831 487.935 452.756 488.788 450.394C490.068 446.854 488.919 447.416 491.171 444.057C494.675 438.828 495.755 423.868 499.953 414.746L506.487 391.424C507.074 385.61 509.026 386.332 511.19 381.15C512.579 377.826 512.842 369.206 518.803 355.024L528.887 324.214C532.201 308.574 531.199 317.079 533.295 311.505C536.035 304.222 535.262 294.356 539.259 287.683C539.848 286.698 540.171 285.851 540.616 284.806C543.897 277.123 543.829 268.23 547.154 263.35C548.867 260.837 547.669 263.633 548.806 261.105C548.807 261.102 551.907 243.868 553.357 241.662C557.678 235.089 556.591 230.106 559.926 222.921C561.332 219.892 561.074 220.48 562.318 216.855C563.208 214.262 563.932 213.686 564.739 210.818C565.621 207.686 565.337 206.719 566.409 203.944L576.928 176.529L585.219 163.753C586.855 160.878 586.79 161.331 589.396 159.537C590.337 158.889 590.717 158.626 591.833 157.734L593.653 156.324C593.809 156.241 594.025 156.133 594.193 156.059C596.281 155.156 598.416 155.093 600.655 153.984C602.585 153.028 603.803 151.873 606.358 151.371C609.149 150.823 610.569 151.022 612.861 150.189C614.801 148.437 617.961 116.988 618.838 113.584L619.237 112.389C619.293 112.192 619.387 111.986 619.439 111.783C619.494 111.568 619.572 111.359 619.62 111.134C620.533 106.861 620.067 101.789 619.546 97.0469L626.556 98.7343C624.839 102.799 625.107 99.0495 624.291 102.452L625.573 103.452C628.111 104.156 626.234 100.327 630.225 101.315C632.849 101.964 632.725 103.598 633.864 106.07L636.544 105.45C629.777 87.8448 569.971 93.8805 550.887 94.1498C538.81 94.3205 500.905 97.0591 489.735 99.7014C478.911 102.261 473.403 103.379 471.248 114.821C465.245 146.687 468.124 153.079 491.4 157.038C502.12 158.861 511.025 158.214 507.589 172.773C506.541 177.214 505.519 181.572 504.455 186.477C503.326 191.677 501.958 194.231 500.817 199.858C493.235 237.266 481.595 270.565 472.492 306.522C470.968 312.543 458.361 355.527 456.065 357.437C451.642 351.75 432.383 273.996 427.024 255.745C420.308 232.868 410.448 179.657 405.008 164.534C399.283 148.616 379.758 151.015 362.081 150.814C351.451 150.693 336.952 150.861 329.426 155.481C321.216 160.52 320.483 169.856 316.307 180.275C309.147 198.145 303.504 217.66 296.996 236.222L263.195 334.232C260.664 339.298 259.79 344.565 256.348 346.964C252.227 341.04 224.406 212.288 219.384 187.716C216.546 173.829 216.067 168.631 225.747 164.319C235.241 160.091 243.12 161.359 247.797 153.548L247.797 153.547Z" fill="#FFF215"/>
<path fill-rule="evenodd" clip-rule="evenodd" d="M400.211 464.227C407.762 484.872 483.803 480.092 499.771 475.549C509.712 472.719 514.274 463.611 517.325 453.399L535.223 392.89C540.835 371.337 555.112 324.914 562.863 302.13C566.348 291.885 568.788 282.037 572.043 271.599C581.762 240.449 590.088 212.328 600.982 182.198C605.699 169.151 605.88 165.355 619.546 161.341C634.178 157.043 635.964 156.512 638.37 140.403C639.828 130.64 642.647 112.446 636.545 105.448L633.865 106.068C632.726 103.596 632.85 101.961 630.226 101.313C626.235 100.325 628.112 104.154 625.574 103.45L624.292 102.45C625.108 99.0481 624.84 102.797 626.557 98.7323L619.547 97.0449C620.068 101.787 620.534 106.859 619.621 111.132C619.573 111.357 619.496 111.566 619.44 111.781C619.387 111.985 619.294 112.19 619.238 112.387L618.839 113.582C617.962 116.986 614.802 148.435 612.862 150.187C610.571 151.02 609.15 150.821 606.359 151.369C603.804 151.871 602.586 153.026 600.656 153.982C598.417 155.091 596.282 155.155 594.194 156.057C594.026 156.131 593.81 156.239 593.654 156.322L591.834 157.732C590.718 158.624 590.339 158.887 589.397 159.535C586.79 161.329 586.856 160.876 585.22 163.751L576.929 176.527L566.411 203.942C565.337 206.717 565.622 207.685 564.74 210.816C563.933 213.683 563.209 214.26 562.319 216.853C561.075 220.477 561.334 219.889 559.927 222.919C556.592 230.104 557.679 235.087 553.358 241.66C551.908 243.866 548.808 261.099 548.807 261.103C547.67 263.631 548.868 260.835 547.155 263.348C543.83 268.228 543.898 277.121 540.617 284.804C540.171 285.849 539.849 286.696 539.26 287.681C535.263 294.354 536.036 304.22 533.296 311.503C531.2 317.077 532.202 308.572 528.888 324.212L518.804 355.022C512.843 369.203 512.58 377.824 511.191 381.148C509.026 386.33 507.075 385.608 506.488 391.422L499.954 414.744C495.756 423.866 494.675 438.827 491.172 444.055C488.92 447.414 490.069 446.852 488.789 450.392C487.936 452.754 486.447 453.829 485.128 455.504C485.041 455.615 484.904 455.85 484.804 455.969C484.697 456.098 484.55 456.324 484.428 456.455C477.206 464.267 438.465 461.754 428.375 461.829C400.484 462.038 408.844 456.578 398.372 457.426L400.212 464.226L400.211 464.227Z" fill="#FFCC2A"/>
<path fill-rule="evenodd" clip-rule="evenodd" d="M194.393 459.776C195.686 466.446 203.541 472.594 210.425 475.292C217.644 478.122 229.071 479.624 237.871 479.88C254.814 480.373 283.372 480.181 294.67 472.628C301.822 467.847 301.71 461.003 305.451 452.267C308.626 444.85 310.633 435.883 313.534 428.152L322.154 404.639C323.938 398.945 329.836 385.273 330.159 380.736C329.286 375.19 333.739 369.861 335.075 364.434C336.34 359.296 338.666 351.913 338.926 346.751C341.006 345.682 340.812 346.329 341.773 344.293C342.756 342.21 341.653 342.43 343.517 340.055C342.795 337.409 343.294 338.784 342.128 338.284L342.216 331.735C343.116 333.256 342.638 332.615 343.306 334.245C343.404 334.483 343.774 335.392 343.852 335.581L344.494 337C344.989 331.911 350.368 323.123 350.347 315.879L350.273 310.311C347.229 310.803 347.529 311.734 345.14 311.985C341.782 312.338 343.185 311.342 340.161 310.447L341.661 309.184C343.207 307.7 343.9 307.124 343.133 303.718L342.779 302.696C335.915 302.808 333.585 313.707 333.533 313.803L330.121 317.007C330.006 317.129 329.829 317.302 329.723 317.435C327.969 319.622 327.416 323.238 326.151 325.711C325.286 327.4 325.394 326.856 324.397 329.059C323.665 330.677 323.356 331.284 322.801 332.493L319.496 342.808C319.419 342.999 319.328 343.22 319.25 343.412L308.962 367.539C308.786 368.065 302.871 379.181 301.354 384.384C299.81 389.684 301.323 387.535 297.715 395.269C293.463 404.384 294.48 403.724 291.277 413.255C289.161 419.553 285.598 424.274 285.006 427.386C282.362 441.273 282.355 434.831 278.404 445.181C277.591 447.309 276.643 450.098 275.629 451.772C268.919 462.839 237.256 460.743 225.298 460.53C209.143 460.242 217.798 458.904 208.545 458.037C206.16 457.814 201.595 457.056 199.848 456.372C195.835 454.802 198.551 454.166 194.026 453.451C193.659 457.861 195.12 456.359 194.391 459.774L194.393 459.776Z" fill="#FFCC2A"/>
<path fill-rule="evenodd" clip-rule="evenodd" d="M247.797 153.547C251.877 144.445 250.631 133.412 248.808 123.183C247.149 113.877 241.004 107.035 230.669 106.048L232.613 107.318L230.71 108.374C230.575 108.466 230.361 108.616 230.222 108.716C229.544 109.195 229.332 109.592 227.843 110.519C227.996 120.802 229.934 141.22 227.602 151.161C226.068 152.225 225.35 152.38 223.953 153.167C220.456 155.138 221.424 153.542 220.953 157.088L222.204 157.747C226.929 159.586 228.046 158.528 231.473 158.442C235.818 158.332 231.52 159.09 235.379 158.822C240.343 158.477 243.666 153.152 247.798 153.548L247.797 153.547Z" fill="#FFCC2A"/>
<path fill-rule="evenodd" clip-rule="evenodd" d="M68.2151 598.009C73.4695 601.123 190.011 607.866 197.472 598.009C183.834 589.097 105.981 592.245 82.1004 594.868C73.9977 595.758 72.5181 593.732 68.2157 598.009H68.2151Z" fill="#E6E7E8"/>
<path fill-rule="evenodd" clip-rule="evenodd" d="M107.061 561.854C113.493 567.313 155.182 567.33 165.352 564.14C160.161 560.062 114.69 558.249 107.061 561.854Z" fill="#E6E7E8"/>
<path fill-rule="evenodd" clip-rule="evenodd" d="M104.176 536.13C110.309 537.743 162.229 537.178 169.858 535.892C166.683 533.745 160.506 534.251 154.966 534.046C148.957 533.824 143.147 533.51 137.116 533.458L111.904 533.684C110.72 533.73 109.224 533.732 108.16 533.998C100.919 535.811 106.978 533.702 104.175 536.13L104.176 536.13Z" fill="#E6E7E8"/>
<path fill-rule="evenodd" clip-rule="evenodd" d="M213.887 606.103C228.986 611.655 240.492 620.805 265.821 612.946C278.876 608.895 290.955 601.319 298.653 590.619C300.549 587.985 300.569 587.348 302.715 585.764C303.011 583.722 302.523 585.908 303.114 584.138L308.94 569.705C311.323 563.079 311.473 556.828 311.358 549.149C311.165 536.352 305.029 523.334 299.328 514.845C286.589 495.88 259.034 487.632 234.356 495.294C190.222 508.995 170.265 569.341 211.024 603.176L213.887 606.102L213.887 606.103Z" fill="#373535"/>
<path fill-rule="evenodd" clip-rule="evenodd" d="M409.323 601.476C419.202 606.435 427.067 616.841 451.146 615.458C489.707 613.244 519.326 573.124 508.62 537.212C505.1 525.407 501.734 522.887 499.888 517.601L498.031 515.867C487.825 504.111 475.805 494.421 458.798 493.23C439.635 491.888 422.964 497.45 409.601 509.61C399.44 518.856 388.921 535.592 388.997 555.41C389.035 565.191 391.64 575.114 394.946 582.394C396.663 586.175 398.755 589.378 401.289 592.413C403.103 594.586 408.331 599.743 409.323 601.476Z" fill="#373535"/>
<path fill-rule="evenodd" clip-rule="evenodd" d="M248.523 532.058C239.208 535.808 241.215 533.734 234.245 540.46C229.255 545.274 226.456 555.418 229.216 562.235C229.863 563.832 229.397 562.403 230.17 564.321C233.826 573.39 244.074 578.946 254.53 578.151C265.292 577.333 275.947 564.767 273.774 551.725C272.007 541.12 267.942 534.374 258.422 531.98C255.374 531.214 251.6 530.819 248.523 532.058Z" fill="white"/>
<path fill-rule="evenodd" clip-rule="evenodd" d="M446.317 578.059C450.156 578.049 451.654 578.598 455.044 577.358C463.426 574.292 467.413 572.083 471.203 562.479C474.223 554.827 472.766 545.224 467.521 538.843L462.145 533.993C452.529 533.024 449.93 531.028 441.125 535.171C434.311 538.378 432.325 543.411 429.873 548.194C425.37 556.977 430.868 568.652 438.789 573.35C440.89 574.595 444.597 576.038 446.317 578.059H446.317Z" fill="white"/>
<path fill-rule="evenodd" clip-rule="evenodd" d="M250.04 545.268C244.761 547.073 239.546 549.357 240.636 556.813C241.339 561.625 247.146 566.909 253.654 565.696C267.864 563.047 261.721 541.277 250.04 545.268Z" fill="#373535"/>
<path fill-rule="evenodd" clip-rule="evenodd" d="M446.603 545.929C441.941 547.69 438.997 553.399 441.01 558.609C447.57 575.588 469.937 556.059 454.276 546.838C451.238 545.048 450.22 544.562 446.603 545.929Z" fill="#373535"/>
<path fill-rule="evenodd" clip-rule="evenodd" d="M446.317 578.059C444.597 576.038 440.89 574.596 438.789 573.349C430.867 568.652 425.37 556.977 429.873 548.194C432.325 543.411 434.31 538.377 441.124 535.171C449.93 531.028 452.528 533.024 462.145 533.993C459.101 528.961 445.409 531.237 441.005 533.513C437.351 535.402 435.856 536.744 433.423 539.196C419.008 553.726 430.303 577.218 446.317 578.059V578.059Z" fill="white"/>
<path fill-rule="evenodd" clip-rule="evenodd" d="M339.751 600.505C342.304 602.66 398.913 607.329 402.538 600.505C395.913 594.334 358.096 596.513 346.496 598.33C342.56 598.946 341.842 597.543 339.752 600.505H339.751Z" fill="#E6E7E8"/>
<path fill-rule="evenodd" clip-rule="evenodd" d="M353.406 578.492C356.531 582.273 376.782 582.284 381.722 580.075C379.2 577.252 357.113 575.997 353.406 578.492Z" fill="#E6E7E8"/>
<path fill-rule="evenodd" clip-rule="evenodd" d="M352.005 560.681C354.984 561.798 380.205 561.407 383.91 560.517C382.368 559.03 379.367 559.381 376.676 559.238C373.758 559.084 370.935 558.868 368.006 558.832L355.759 558.988C355.184 559.02 354.458 559.021 353.94 559.205C350.423 560.46 353.366 559 352.005 560.681H352.005Z" fill="#E6E7E8"/>
</svg>
