<svg xmlns="http://www.w3.org/2000/svg" xmlns:xlink="http://www.w3.org/1999/xlink" width="500" zoomAndPan="magnify" viewBox="0 0 375 374.999991" height="500" preserveAspectRatio="xMidYMid meet" version="1.2"><defs><clipPath id="362c52af6b"><path d="M 0 187.5 L 375 187.5 L 375 375 L 0 375 Z M 0 187.5 "/></clipPath><clipPath id="1355ac35d7"><path d="M 55.890625 77 L 319 77 L 319 301 L 55.890625 301 Z M 55.890625 77 "/></clipPath></defs><g id="08085a611a"><rect x="0" width="375" y="0" height="374.999991" style="fill:#ffffff;fill-opacity:1;stroke:none;"/><rect x="0" width="375" y="0" height="374.999991" style="fill:#fe724c;fill-opacity:1;stroke:none;"/><g clip-rule="nonzero" clip-path="url(#362c52af6b)"><path style=" stroke:none;fill-rule:nonzero;fill:#f7b431;fill-opacity:1;" d="M 0 187.5 L 375 187.5 L 375 375 L 0 375 Z M 0 187.5 "/></g><g clip-rule="nonzero" clip-path="url(#1355ac35d7)"><path style=" stroke:none;fill-rule:nonzero;fill:#000000;fill-opacity:1;" d="M 315.082031 253.097656 C 314.167969 251.40625 313.105469 249.8125 311.902344 248.3125 C 310.695312 246.816406 309.367188 245.4375 307.910156 244.183594 C 306.457031 242.929688 304.898438 241.8125 303.238281 240.84375 C 301.582031 239.871094 299.847656 239.054688 298.042969 238.398438 C 295.167969 239.265625 292.253906 239.953125 289.300781 240.472656 C 282.617188 241.757812 276.84375 242.871094 271.109375 248.535156 C 265.355469 254.21875 263.367188 262.160156 261.265625 267.726562 C 260.046875 270.957031 258.757812 274.285156 256.734375 277.625 C 257.039062 278.648438 257.394531 279.652344 257.804688 280.640625 C 258.371094 281.996094 259.023438 283.308594 259.769531 284.574219 C 260.515625 285.839844 261.347656 287.046875 262.261719 288.195312 C 263.175781 289.347656 264.164062 290.429688 265.226562 291.441406 C 266.292969 292.453125 267.421875 293.386719 268.617188 294.242188 C 269.808594 295.097656 271.058594 295.867188 272.359375 296.550781 C 273.660156 297.230469 275.003906 297.820312 276.386719 298.316406 C 277.769531 298.8125 279.179688 299.207031 280.617188 299.507812 C 282.054688 299.808594 283.507812 300.007812 284.972656 300.105469 C 286.4375 300.199219 287.90625 300.195312 289.371094 300.089844 C 290.835938 299.984375 292.285156 299.777344 293.722656 299.46875 C 295.160156 299.160156 296.566406 298.753906 297.945312 298.25 C 299.328125 297.75 300.664062 297.152344 301.960938 296.460938 C 303.257812 295.773438 304.503906 294.996094 305.691406 294.132812 C 306.882812 293.269531 308.003906 292.328125 309.0625 291.3125 C 310.121094 290.292969 311.105469 289.203125 312.011719 288.050781 C 312.917969 286.894531 313.742188 285.679688 314.480469 284.410156 C 314.847656 283.792969 315.191406 283.160156 315.519531 282.515625 C 317.351562 278.878906 318.441406 275.027344 318.785156 270.96875 C 318.859375 270.074219 318.921875 269.175781 318.921875 268.257812 C 318.925781 265.609375 318.601562 263.003906 317.953125 260.4375 C 317.300781 257.871094 316.34375 255.425781 315.082031 253.097656 Z M 304.011719 272.722656 C 303.816406 273.421875 303.578125 274.105469 303.292969 274.773438 C 303.011719 275.441406 302.691406 276.089844 302.328125 276.71875 C 301.960938 277.34375 301.5625 277.949219 301.121094 278.523438 C 300.683594 279.101562 300.210938 279.648438 299.703125 280.167969 C 299.191406 280.6875 298.65625 281.167969 298.085938 281.621094 C 297.515625 282.070312 296.921875 282.484375 296.300781 282.859375 C 295.679688 283.234375 295.039062 283.570312 294.375 283.863281 C 293.714844 284.160156 293.035156 284.410156 292.339844 284.621094 C 291.648438 284.828125 290.941406 284.996094 290.226562 285.117188 C 289.511719 285.238281 288.792969 285.3125 288.066406 285.34375 C 287.34375 285.375 286.617188 285.359375 285.894531 285.300781 C 285.171875 285.238281 284.457031 285.132812 283.746094 284.984375 C 283.035156 284.832031 282.339844 284.636719 281.652344 284.402344 C 280.96875 284.164062 280.300781 283.882812 279.652344 283.5625 C 279 283.238281 278.375 282.878906 277.769531 282.476562 C 277.164062 282.078125 276.585938 281.640625 276.039062 281.167969 C 275.488281 280.695312 274.96875 280.1875 274.484375 279.648438 C 273.996094 279.113281 273.546875 278.546875 273.128906 277.949219 C 272.714844 277.355469 272.339844 276.738281 272 276.09375 C 271.664062 275.453125 271.367188 274.792969 271.113281 274.113281 C 270.859375 273.433594 270.648438 272.742188 270.480469 272.035156 C 270.3125 271.328125 270.191406 270.617188 270.113281 269.894531 C 270.035156 269.171875 270.003906 268.449219 270.015625 267.726562 C 270.027344 267 270.085938 266.277344 270.191406 265.558594 C 270.292969 264.84375 270.441406 264.132812 270.636719 263.433594 C 270.828125 262.734375 271.0625 262.050781 271.34375 261.382812 C 271.621094 260.710938 271.941406 260.0625 272.300781 259.433594 C 272.660156 258.800781 273.058594 258.199219 273.496094 257.617188 C 273.933594 257.039062 274.402344 256.488281 274.910156 255.96875 C 275.414062 255.449219 275.949219 254.960938 276.515625 254.507812 C 277.082031 254.054688 277.675781 253.640625 278.292969 253.261719 C 278.914062 252.882812 279.554688 252.542969 280.214844 252.246094 C 280.875 251.945312 281.550781 251.691406 282.246094 251.476562 C 282.9375 251.265625 283.644531 251.097656 284.359375 250.972656 C 285.074219 250.847656 285.792969 250.765625 286.515625 250.734375 C 287.242188 250.699219 287.964844 250.710938 288.6875 250.765625 C 289.410156 250.824219 290.128906 250.925781 290.839844 251.070312 C 291.550781 251.21875 292.246094 251.410156 292.933594 251.644531 C 293.621094 251.878906 294.289062 252.152344 294.941406 252.472656 C 295.59375 252.789062 296.222656 253.148438 296.828125 253.546875 C 297.433594 253.945312 298.015625 254.378906 298.566406 254.847656 C 299.121094 255.320312 299.640625 255.820312 300.128906 256.355469 C 300.617188 256.894531 301.070312 257.457031 301.488281 258.050781 C 301.910156 258.640625 302.289062 259.257812 302.628906 259.898438 C 302.96875 260.539062 303.269531 261.199219 303.527344 261.875 C 303.785156 262.554688 304 263.246094 304.171875 263.953125 C 304.339844 264.65625 304.46875 265.367188 304.546875 266.089844 C 304.628906 266.8125 304.667969 267.535156 304.65625 268.257812 C 304.636719 269.773438 304.421875 271.261719 304.011719 272.722656 Z M 258.695312 264.695312 C 257.828125 267.09375 256.820312 269.429688 255.671875 271.707031 C 255.636719 271.777344 255.597656 271.851562 255.5625 271.921875 C 255.152344 272.691406 254.71875 273.464844 254.226562 274.234375 C 253.855469 274.820312 253.449219 275.386719 253.015625 275.929688 C 252.277344 276.855469 251.453125 277.703125 250.550781 278.472656 C 249.65625 279.242188 248.691406 279.90625 247.65625 280.46875 C 247.21875 280.699219 246.960938 280.800781 246.960938 280.800781 C 245.429688 277.558594 244.339844 274.175781 243.6875 270.648438 C 243.472656 269.496094 243.277344 268.339844 243.160156 267.152344 C 243.019531 265.742188 242.953125 264.328125 242.957031 262.914062 C 242.960938 261.59375 243.035156 260.292969 243.164062 259.003906 L 241.925781 260.796875 C 240.917969 262.242188 239.753906 263.546875 238.429688 264.710938 C 237.109375 265.875 235.667969 266.867188 234.109375 267.683594 C 232.546875 268.503906 230.914062 269.128906 229.207031 269.554688 C 227.496094 269.980469 225.761719 270.203125 224 270.214844 L 171.390625 270.214844 C 168.523438 255.121094 158.089844 228.78125 127.429688 226.683594 C 113.082031 225.703125 101.40625 229.222656 92.644531 237.359375 C 104.363281 217.828125 118.371094 208.546875 118.371094 208.546875 L 193.65625 208.546875 L 188.527344 234.464844 C 188.429688 234.945312 188.363281 235.429688 188.320312 235.921875 C 188.28125 236.410156 188.265625 236.902344 188.277344 237.390625 C 188.289062 237.882812 188.328125 238.371094 188.394531 238.859375 C 188.460938 239.34375 188.554688 239.828125 188.675781 240.304688 C 188.796875 240.78125 188.941406 241.25 189.113281 241.710938 C 189.285156 242.167969 189.480469 242.617188 189.703125 243.058594 C 189.921875 243.496094 190.167969 243.921875 190.433594 244.332031 C 190.703125 244.746094 190.992188 245.140625 191.304688 245.519531 C 191.617188 245.898438 191.949219 246.261719 192.300781 246.605469 C 192.652344 246.945312 193.023438 247.269531 193.410156 247.570312 C 193.796875 247.875 194.199219 248.152344 194.617188 248.410156 C 195.035156 248.667969 195.46875 248.902344 195.910156 249.113281 C 196.355469 249.320312 196.808594 249.507812 197.273438 249.667969 C 197.738281 249.828125 198.210938 249.960938 198.691406 250.066406 C 199.171875 250.175781 199.652344 250.257812 200.140625 250.308594 C 200.628906 250.363281 201.121094 250.390625 201.613281 250.390625 L 221.09375 250.390625 C 222.394531 250.390625 223.671875 250.210938 224.921875 249.851562 C 226.171875 249.492188 227.351562 248.964844 228.453125 248.273438 C 229.554688 247.582031 230.542969 246.75 231.410156 245.777344 C 232.277344 244.808594 232.996094 243.738281 233.5625 242.566406 L 243.839844 221.277344 C 245.121094 218.628906 245.957031 215.847656 246.355469 212.933594 C 246.753906 210.019531 246.695312 207.113281 246.175781 204.21875 L 238.820312 163.285156 C 237.875 163.769531 236.871094 164.03125 235.8125 164.070312 L 215.296875 165.191406 C 213.996094 165.238281 212.707031 165.136719 211.429688 164.882812 C 210.152344 164.632812 208.921875 164.234375 207.734375 163.699219 C 206.546875 163.160156 205.441406 162.492188 204.410156 161.695312 C 203.378906 160.902344 202.453125 159.996094 201.628906 158.988281 L 191.8125 147.355469 L 186.566406 170.660156 C 186.511719 170.90625 186.480469 171.15625 186.472656 171.410156 C 186.46875 171.660156 186.484375 171.910156 186.53125 172.160156 C 186.574219 172.40625 186.640625 172.648438 186.734375 172.882812 C 186.828125 173.117188 186.941406 173.339844 187.078125 173.550781 C 187.214844 173.761719 187.375 173.960938 187.550781 174.140625 C 187.726562 174.320312 187.917969 174.480469 188.128906 174.621094 C 188.335938 174.761719 188.558594 174.878906 188.792969 174.976562 C 189.023438 175.074219 189.265625 175.144531 189.511719 175.195312 C 195.128906 176.285156 205.925781 178.390625 214.617188 180.136719 C 215.605469 180.335938 216.566406 180.628906 217.496094 181.019531 C 218.425781 181.40625 219.308594 181.886719 220.144531 182.449219 C 220.980469 183.015625 221.753906 183.65625 222.460938 184.371094 C 223.171875 185.089844 223.800781 185.871094 224.355469 186.714844 C 224.910156 187.558594 225.375 188.445312 225.75 189.382812 C 226.128906 190.316406 226.410156 191.28125 226.597656 192.269531 C 226.785156 193.261719 226.871094 194.261719 226.859375 195.269531 C 226.847656 196.277344 226.734375 197.277344 226.523438 198.261719 L 216.203125 239.265625 C 216.085938 239.816406 215.921875 240.347656 215.703125 240.863281 C 215.484375 241.378906 215.21875 241.871094 214.902344 242.335938 C 214.589844 242.800781 214.234375 243.230469 213.835938 243.625 C 213.4375 244.019531 213.003906 244.371094 212.539062 244.683594 C 212.070312 244.992188 211.578125 245.257812 211.0625 245.46875 C 210.542969 245.683594 210.007812 245.847656 209.460938 245.957031 C 208.910156 246.066406 208.355469 246.125 207.792969 246.125 C 207.234375 246.128906 206.679688 246.074219 206.128906 245.96875 C 205.578125 245.863281 205.042969 245.703125 204.523438 245.492188 C 204.003906 245.28125 203.507812 245.023438 203.039062 244.714844 C 202.570312 244.410156 202.136719 244.058594 201.734375 243.667969 C 201.335938 243.273438 200.976562 242.847656 200.65625 242.386719 C 200.339844 241.921875 200.070312 241.433594 199.847656 240.917969 C 199.625 240.40625 199.457031 239.875 199.339844 239.324219 C 199.21875 238.777344 199.15625 238.222656 199.144531 237.664062 C 199.136719 237.101562 199.179688 236.546875 199.277344 235.992188 L 207.628906 198.839844 L 197.074219 197.320312 L 197.074219 203.46875 C 197.074219 203.742188 197.023438 204.003906 196.917969 204.257812 C 196.8125 204.511719 196.664062 204.734375 196.46875 204.929688 C 196.277344 205.121094 196.054688 205.273438 195.800781 205.375 C 195.546875 205.480469 195.285156 205.535156 195.007812 205.535156 L 117.605469 205.535156 C 117.328125 205.535156 117.066406 205.480469 116.8125 205.375 C 116.558594 205.273438 116.335938 205.121094 116.144531 204.929688 C 115.949219 204.734375 115.800781 204.511719 115.695312 204.257812 C 115.589844 204.003906 115.539062 203.742188 115.539062 203.46875 L 115.539062 195.699219 C 115.539062 195.425781 115.589844 195.164062 115.695312 194.910156 C 115.800781 194.65625 115.949219 194.433594 116.144531 194.238281 C 116.335938 194.046875 116.558594 193.898438 116.8125 193.792969 C 117.066406 193.6875 117.328125 193.632812 117.605469 193.632812 L 173.445312 193.632812 C 172.769531 193.429688 172.105469 193.195312 171.449219 192.929688 C 170.796875 192.664062 170.15625 192.367188 169.53125 192.042969 C 168.902344 191.71875 168.292969 191.363281 167.699219 190.980469 C 167.105469 190.601562 166.53125 190.191406 165.976562 189.757812 C 165.417969 189.320312 164.882812 188.863281 164.371094 188.375 C 163.859375 187.890625 163.367188 187.382812 162.902344 186.855469 C 162.4375 186.324219 161.996094 185.773438 161.582031 185.203125 C 161.167969 184.632812 160.777344 184.042969 160.417969 183.433594 C 160.058594 182.828125 159.726562 182.207031 159.421875 181.566406 C 159.121094 180.929688 158.847656 180.28125 158.605469 179.617188 C 158.363281 178.953125 158.152344 178.28125 157.972656 177.597656 C 157.792969 176.914062 157.644531 176.226562 157.53125 175.53125 C 157.414062 174.832031 157.332031 174.132812 157.28125 173.429688 C 157.230469 172.726562 157.210938 172.019531 157.226562 171.3125 C 157.242188 170.609375 157.289062 169.90625 157.367188 169.203125 C 157.449219 168.5 157.558594 167.804688 157.703125 167.113281 L 166.742188 133.128906 C 169.832031 118.226562 186.257812 114.554688 195.878906 126.347656 L 213.269531 147.773438 C 213.679688 148.277344 214.175781 148.671875 214.757812 148.960938 C 215.335938 149.25 215.953125 149.40625 216.601562 149.429688 L 235.8125 149.675781 C 236.1875 149.695312 236.558594 149.742188 236.929688 149.820312 L 236.929688 146.199219 C 236.929688 145.679688 237.019531 145.175781 237.199219 144.683594 C 237.378906 144.195312 237.636719 143.753906 237.976562 143.355469 C 238.316406 142.960938 238.710938 142.632812 239.167969 142.378906 C 239.621094 142.125 240.105469 141.957031 240.621094 141.875 L 264.722656 138.039062 C 264.992188 137.996094 265.257812 137.984375 265.527344 138 C 265.796875 138.015625 266.0625 138.058594 266.324219 138.132812 C 266.582031 138.207031 266.832031 138.304688 267.070312 138.433594 C 267.308594 138.558594 267.53125 138.710938 267.734375 138.886719 C 267.941406 139.0625 268.125 139.257812 268.289062 139.472656 C 268.453125 139.6875 268.589844 139.917969 268.703125 140.164062 C 268.816406 140.410156 268.902344 140.664062 268.957031 140.925781 C 269.015625 141.191406 269.046875 141.457031 269.046875 141.726562 L 269.046875 161.359375 C 269.046875 161.628906 269.015625 161.894531 268.960938 162.160156 C 268.902344 162.421875 268.816406 162.675781 268.703125 162.921875 C 268.589844 163.167969 268.453125 163.398438 268.289062 163.613281 C 268.125 163.828125 267.941406 164.023438 267.734375 164.199219 C 267.53125 164.375 267.308594 164.523438 267.070312 164.652344 C 266.832031 164.78125 266.582031 164.878906 266.324219 164.953125 C 266.0625 165.027344 265.796875 165.070312 265.527344 165.085938 C 265.257812 165.101562 264.992188 165.089844 264.722656 165.046875 L 254.210938 163.375 L 271.265625 208.097656 C 271.648438 209.101562 271.90625 210.140625 272.039062 211.207031 C 272.167969 212.277344 272.171875 213.34375 272.042969 214.414062 C 271.914062 215.484375 271.660156 216.519531 271.277344 217.527344 C 270.898438 218.535156 270.402344 219.480469 269.792969 220.367188 L 268.617188 222.070312 L 265.894531 226.019531 C 266.671875 225.632812 267.441406 225.226562 268.25 224.886719 C 272.121094 223.25 276.148438 222.226562 280.332031 221.816406 C 281.589844 221.695312 282.835938 221.644531 284.074219 221.632812 C 284.378906 221.628906 284.679688 221.640625 284.984375 221.644531 C 286.5625 221.660156 288.132812 221.761719 289.703125 221.949219 C 291.226562 222.152344 292.730469 222.4375 294.222656 222.8125 C 294.5 222.878906 294.773438 222.941406 295.046875 223.011719 C 296.464844 223.390625 297.855469 223.839844 299.226562 224.363281 C 299.484375 224.460938 299.734375 224.570312 299.988281 224.675781 C 301.394531 225.238281 302.761719 225.871094 304.09375 226.582031 C 304.871094 227.003906 305.628906 227.457031 306.371094 227.933594 C 307.113281 228.410156 307.839844 228.910156 308.554688 229.425781 C 308.554688 229.425781 306.425781 232.265625 300.554688 234.789062 C 298.199219 235.773438 295.773438 236.535156 293.277344 237.074219 C 284.992188 238.964844 276.996094 239.175781 269.335938 246.742188 C 266.15625 249.84375 263.609375 253.394531 261.695312 257.402344 C 261.136719 258.558594 260.644531 259.703125 260.1875 260.84375 C 259.789062 261.824219 259.417969 262.796875 259.050781 263.769531 C 258.933594 264.074219 258.8125 264.386719 258.695312 264.695312 Z M 150.976562 179.3125 L 150.976562 112.777344 C 150.976562 112.210938 150.921875 111.644531 150.8125 111.085938 C 150.699219 110.527344 150.535156 109.984375 150.316406 109.457031 C 150.097656 108.929688 149.832031 108.429688 149.515625 107.957031 C 149.199219 107.484375 148.839844 107.046875 148.4375 106.640625 C 148.03125 106.238281 147.59375 105.878906 147.121094 105.5625 C 146.648438 105.246094 146.148438 104.980469 145.621094 104.761719 C 145.09375 104.542969 144.550781 104.378906 143.992188 104.265625 C 143.433594 104.15625 142.867188 104.101562 142.296875 104.101562 L 64.578125 104.101562 C 64.007812 104.101562 63.445312 104.15625 62.882812 104.265625 C 62.324219 104.378906 61.78125 104.542969 61.257812 104.761719 C 60.730469 104.980469 60.230469 105.246094 59.757812 105.5625 C 59.28125 105.878906 58.84375 106.238281 58.441406 106.640625 C 58.039062 107.046875 57.679688 107.484375 57.363281 107.957031 C 57.042969 108.429688 56.777344 108.929688 56.558594 109.457031 C 56.339844 109.984375 56.175781 110.527344 56.066406 111.085938 C 55.953125 111.644531 55.898438 112.210938 55.898438 112.777344 L 55.898438 179.3125 C 55.898438 179.878906 55.953125 180.445312 56.066406 181.003906 C 56.175781 181.5625 56.339844 182.105469 56.558594 182.632812 C 56.777344 183.15625 57.046875 183.65625 57.363281 184.132812 C 57.679688 184.605469 58.039062 185.042969 58.441406 185.445312 C 58.84375 185.851562 59.28125 186.210938 59.757812 186.527344 C 60.230469 186.84375 60.730469 187.109375 61.257812 187.328125 C 61.78125 187.546875 62.324219 187.710938 62.882812 187.820312 C 63.445312 187.933594 64.007812 187.988281 64.578125 187.988281 L 142.296875 187.988281 C 142.867188 187.988281 143.433594 187.933594 143.992188 187.820312 C 144.550781 187.710938 145.09375 187.546875 145.621094 187.328125 C 146.144531 187.109375 146.644531 186.84375 147.121094 186.527344 C 147.59375 186.210938 148.03125 185.851562 148.433594 185.445312 C 148.839844 185.042969 149.199219 184.605469 149.515625 184.132812 C 149.832031 183.65625 150.097656 183.15625 150.316406 182.632812 C 150.535156 182.105469 150.699219 181.5625 150.8125 181.003906 C 150.921875 180.445312 150.976562 179.878906 150.976562 179.3125 Z M 137.859375 127.421875 L 122.628906 142.652344 C 122.371094 142.910156 122.09375 143.140625 121.792969 143.339844 C 121.488281 143.542969 121.171875 143.714844 120.835938 143.851562 C 120.5 143.992188 120.152344 144.097656 119.796875 144.167969 C 119.441406 144.238281 119.082031 144.273438 118.71875 144.273438 C 118.355469 144.273438 117.996094 144.238281 117.640625 144.167969 C 117.285156 144.097656 116.9375 143.992188 116.601562 143.851562 C 116.265625 143.714844 115.949219 143.542969 115.644531 143.339844 C 115.34375 143.140625 115.066406 142.910156 114.808594 142.652344 L 106.738281 151.121094 C 115.953125 159.871094 126.867188 170.234375 126.867188 170.234375 C 127.0625 170.429688 127.238281 170.640625 127.390625 170.867188 C 127.542969 171.097656 127.671875 171.335938 127.78125 171.589844 C 127.886719 171.84375 127.964844 172.105469 128.019531 172.375 C 128.074219 172.648438 128.101562 172.917969 128.101562 173.195312 C 128.101562 173.46875 128.078125 173.742188 128.023438 174.011719 C 127.96875 174.28125 127.890625 174.542969 127.785156 174.796875 C 127.679688 175.054688 127.550781 175.292969 127.398438 175.523438 C 127.246094 175.753906 127.074219 175.964844 126.878906 176.160156 C 126.683594 176.351562 126.472656 176.527344 126.242188 176.679688 C 126.015625 176.832031 125.773438 176.960938 125.519531 177.066406 C 125.265625 177.171875 125 177.25 124.730469 177.304688 C 124.460938 177.355469 124.1875 177.382812 123.914062 177.382812 C 123.640625 177.382812 123.367188 177.355469 123.097656 177.300781 C 122.828125 177.246094 122.566406 177.167969 122.3125 177.058594 C 122.058594 176.953125 121.816406 176.824219 121.585938 176.671875 C 121.359375 176.515625 121.148438 176.34375 120.953125 176.148438 L 101.953125 156.140625 L 82.878906 176.148438 C 82.6875 176.34375 82.472656 176.515625 82.246094 176.671875 C 82.019531 176.824219 81.777344 176.953125 81.523438 177.058594 C 81.269531 177.167969 81.007812 177.246094 80.738281 177.300781 C 80.46875 177.355469 80.195312 177.382812 79.917969 177.382812 C 79.644531 177.382812 79.371094 177.355469 79.101562 177.304688 C 78.832031 177.25 78.570312 177.171875 78.316406 177.066406 C 78.0625 176.960938 77.820312 176.832031 77.589844 176.679688 C 77.363281 176.527344 77.148438 176.351562 76.957031 176.160156 C 76.761719 175.964844 76.585938 175.753906 76.433594 175.523438 C 76.28125 175.292969 76.152344 175.054688 76.046875 174.796875 C 75.941406 174.542969 75.863281 174.28125 75.808594 174.011719 C 75.757812 173.742188 75.730469 173.46875 75.730469 173.195312 C 75.730469 172.917969 75.757812 172.648438 75.8125 172.378906 C 75.867188 172.105469 75.949219 171.84375 76.054688 171.589844 C 76.160156 171.335938 76.289062 171.097656 76.445312 170.867188 C 76.597656 170.640625 76.773438 170.429688 76.96875 170.234375 L 97.105469 151.035156 L 89.996094 143.542969 C 85.585938 145.253906 79.191406 143.320312 74.257812 138.386719 C 68.230469 132.359375 66.671875 124.148438 70.769531 120.050781 C 74.871094 115.953125 83.078125 117.511719 89.105469 123.539062 C 94.039062 128.472656 95.972656 134.867188 94.261719 139.277344 L 101.867188 146.5 L 110.460938 138.308594 C 110.203125 138.050781 109.972656 137.773438 109.773438 137.472656 C 109.570312 137.167969 109.402344 136.851562 109.261719 136.515625 C 109.121094 136.179688 109.019531 135.832031 108.945312 135.476562 C 108.875 135.121094 108.839844 134.761719 108.839844 134.398438 C 108.839844 134.035156 108.875 133.675781 108.945312 133.320312 C 109.019531 132.964844 109.121094 132.617188 109.261719 132.28125 C 109.402344 131.945312 109.570312 131.628906 109.773438 131.324219 C 109.972656 131.023438 110.203125 130.746094 110.460938 130.488281 L 125.691406 115.257812 C 125.863281 115.085938 126.058594 114.953125 126.28125 114.863281 C 126.503906 114.769531 126.738281 114.722656 126.980469 114.722656 C 127.222656 114.722656 127.453125 114.769531 127.675781 114.863281 C 127.898438 114.953125 128.097656 115.085938 128.269531 115.257812 C 128.453125 115.425781 128.597656 115.625 128.699219 115.851562 C 128.804688 116.078125 128.859375 116.316406 128.867188 116.566406 C 128.875 116.816406 128.832031 117.058594 128.742188 117.292969 C 128.652344 117.523438 128.519531 117.730469 128.34375 117.910156 L 116.859375 129.394531 C 116.714844 129.539062 116.605469 129.703125 116.53125 129.886719 C 116.453125 130.074219 116.414062 130.265625 116.414062 130.46875 C 116.414062 130.667969 116.453125 130.859375 116.53125 131.046875 C 116.605469 131.230469 116.714844 131.394531 116.859375 131.539062 C 117 131.679688 117.164062 131.789062 117.351562 131.867188 C 117.535156 131.941406 117.726562 131.980469 117.929688 131.980469 C 118.128906 131.980469 118.324219 131.941406 118.507812 131.867188 C 118.695312 131.789062 118.859375 131.679688 119 131.539062 L 130.488281 120.050781 C 130.660156 119.882812 130.855469 119.757812 131.078125 119.667969 C 131.300781 119.578125 131.53125 119.535156 131.769531 119.535156 C 132.007812 119.535156 132.238281 119.582031 132.460938 119.675781 C 132.683594 119.769531 132.875 119.898438 133.046875 120.070312 C 133.214844 120.238281 133.347656 120.433594 133.4375 120.652344 C 133.53125 120.875 133.578125 121.105469 133.582031 121.34375 C 133.582031 121.585938 133.539062 121.816406 133.449219 122.039062 C 133.359375 122.257812 133.230469 122.457031 133.0625 122.628906 L 121.578125 134.113281 C 121.4375 134.257812 121.328125 134.417969 121.25 134.605469 C 121.175781 134.789062 121.136719 134.984375 121.136719 135.183594 C 121.136719 135.382812 121.175781 135.578125 121.253906 135.761719 C 121.328125 135.949219 121.4375 136.113281 121.578125 136.253906 C 121.722656 136.394531 121.886719 136.503906 122.070312 136.582031 C 122.257812 136.660156 122.449219 136.699219 122.648438 136.699219 C 122.851562 136.699219 123.042969 136.660156 123.226562 136.582031 C 123.414062 136.507812 123.578125 136.398438 123.71875 136.257812 L 135.207031 124.769531 C 135.375 124.597656 135.574219 124.46875 135.796875 124.375 C 136.019531 124.28125 136.253906 124.234375 136.496094 124.234375 C 136.734375 124.234375 136.96875 124.28125 137.191406 124.375 C 137.414062 124.46875 137.613281 124.597656 137.785156 124.769531 C 137.96875 124.9375 138.113281 125.136719 138.214844 125.363281 C 138.320312 125.589844 138.375 125.832031 138.382812 126.082031 C 138.390625 126.332031 138.347656 126.570312 138.257812 126.804688 C 138.167969 127.039062 138.035156 127.242188 137.859375 127.421875 Z M 177.171875 108.792969 C 176.769531 105.738281 175.957031 99.316406 176.03125 97.640625 C 176.578125 85.929688 184.753906 76.800781 198.21875 77.425781 C 199.34375 77.476562 200.457031 77.617188 201.558594 77.847656 C 202.664062 78.078125 203.742188 78.394531 204.792969 78.792969 C 205.847656 79.195312 206.859375 79.679688 207.835938 80.242188 C 208.8125 80.804688 209.738281 81.441406 210.613281 82.152344 C 211.488281 82.859375 212.300781 83.636719 213.050781 84.476562 C 213.804688 85.316406 214.484375 86.207031 215.09375 87.15625 C 215.703125 88.105469 216.230469 89.09375 216.683594 90.125 C 217.132812 91.160156 217.5 92.21875 217.785156 93.3125 L 197.167969 92.351562 C 196.882812 92.339844 196.609375 92.382812 196.34375 92.476562 C 196.074219 92.574219 195.835938 92.71875 195.628906 92.910156 C 195.417969 93.097656 195.253906 93.324219 195.132812 93.578125 C 195.011719 93.835938 194.945312 94.105469 194.933594 94.390625 L 194.609375 101.367188 C 194.59375 101.695312 194.628906 102.011719 194.71875 102.324219 C 194.808594 102.636719 194.945312 102.925781 195.132812 103.191406 C 195.316406 103.460938 195.539062 103.691406 195.800781 103.882812 C 196.058594 104.078125 196.34375 104.226562 196.652344 104.328125 L 216.925781 110.925781 C 215.652344 114.699219 213.808594 118.171875 211.398438 121.347656 C 211.214844 121.585938 211 121.789062 210.753906 121.957031 C 210.503906 122.128906 210.238281 122.253906 209.949219 122.335938 C 209.660156 122.417969 209.363281 122.449219 209.066406 122.4375 C 208.765625 122.421875 208.476562 122.363281 208.195312 122.253906 L 178.925781 111.019531 C 178.453125 110.835938 178.058594 110.546875 177.742188 110.148438 C 177.429688 109.75 177.238281 109.296875 177.171875 108.792969 Z M 127.195312 229.835938 C 113.800781 228.925781 102.882812 232.160156 94.796875 239.675781 C 85.082031 248.699219 81.109375 261.769531 81.109375 270.214844 L 94.003906 270.214844 C 94.003906 270.289062 93.992188 270.359375 93.992188 270.433594 C 93.992188 271.289062 94.050781 272.125 94.121094 272.960938 C 94.410156 276.441406 95.289062 279.765625 96.757812 282.933594 C 98.230469 286.101562 100.199219 288.917969 102.671875 291.386719 C 103.464844 292.1875 104.300781 292.945312 105.183594 293.652344 C 106.0625 294.355469 106.980469 295.011719 107.933594 295.613281 C 108.890625 296.214844 109.875 296.757812 110.890625 297.246094 C 111.910156 297.734375 112.953125 298.160156 114.019531 298.53125 C 115.085938 298.898438 116.167969 299.203125 117.269531 299.449219 C 118.371094 299.691406 119.484375 299.871094 120.605469 299.988281 C 121.730469 300.101562 122.855469 300.15625 123.984375 300.140625 C 125.113281 300.128906 126.234375 300.050781 127.355469 299.90625 C 128.472656 299.765625 129.582031 299.558594 130.675781 299.289062 C 131.773438 299.019531 132.851562 298.6875 133.90625 298.296875 C 134.964844 297.902344 135.996094 297.449219 137.003906 296.9375 C 138.007812 296.425781 138.980469 295.859375 139.921875 295.238281 C 140.863281 294.613281 141.765625 293.9375 142.628906 293.210938 C 143.488281 292.484375 144.308594 291.710938 145.082031 290.890625 C 145.855469 290.066406 146.582031 289.207031 147.257812 288.300781 C 147.929688 287.398438 148.550781 286.457031 149.121094 285.480469 C 149.460938 284.90625 149.785156 284.316406 150.085938 283.714844 C 151.796875 280.328125 152.808594 276.742188 153.128906 272.960938 C 153.199219 272.125 153.257812 271.285156 153.257812 270.433594 C 153.257812 270.359375 153.242188 270.289062 153.242188 270.214844 L 165.492188 270.214844 C 161.742188 241.558594 142.441406 230.867188 127.195312 229.835938 Z M 139.367188 274.59375 C 139.105469 275.53125 138.761719 276.441406 138.339844 277.316406 C 137.914062 278.195312 137.414062 279.027344 136.839844 279.816406 C 136.265625 280.601562 135.628906 281.332031 134.921875 282.007812 C 134.21875 282.679688 133.460938 283.285156 132.648438 283.824219 C 131.835938 284.363281 130.980469 284.824219 130.085938 285.207031 C 129.191406 285.59375 128.269531 285.894531 127.320312 286.117188 C 126.371094 286.335938 125.410156 286.46875 124.433594 286.519531 C 123.460938 286.566406 122.492188 286.527344 121.527344 286.402344 C 120.558594 286.277344 119.613281 286.066406 118.683594 285.773438 C 117.753906 285.476562 116.859375 285.101562 115.996094 284.648438 C 115.136719 284.191406 114.320312 283.664062 113.554688 283.066406 C 112.785156 282.464844 112.078125 281.800781 111.429688 281.074219 C 110.78125 280.34375 110.199219 279.566406 109.691406 278.734375 C 109.183594 277.90625 108.75 277.035156 108.398438 276.128906 C 108.042969 275.21875 107.773438 274.289062 107.585938 273.332031 C 107.398438 272.375 107.296875 271.410156 107.285156 270.433594 C 107.285156 270.359375 107.292969 270.289062 107.292969 270.214844 L 139.960938 270.214844 C 139.960938 270.289062 139.972656 270.359375 139.972656 270.433594 C 139.953125 271.847656 139.75 273.234375 139.367188 274.59375 Z M 139.367188 274.59375 "/></g></g></svg>