<svg xmlns="http://www.w3.org/2000/svg" xmlns:xlink="http://www.w3.org/1999/xlink" width="500" zoomAndPan="magnify" viewBox="0 0 375 374.999991" height="500" preserveAspectRatio="xMidYMid meet" version="1.2"><defs><clipPath id="ffad15194d"><path d="M 75.6875 94 L 299.1875 94 L 299.1875 284 L 75.6875 284 Z M 75.6875 94 "/></clipPath></defs><g id="8509828858"><rect x="0" width="375" y="0" height="374.999991" style="fill:#ffffff;fill-opacity:1;stroke:none;"/><rect x="0" width="375" y="0" height="374.999991" style="fill:#fe724c;fill-opacity:1;stroke:none;"/><g clip-rule="nonzero" clip-path="url(#ffad15194d)"><path style=" stroke:none;fill-rule:nonzero;fill:#ffffff;fill-opacity:1;" d="M 295.863281 243.441406 C 295.085938 242.003906 294.1875 240.648438 293.164062 239.375 C 292.140625 238.105469 291.007812 236.933594 289.773438 235.867188 C 288.535156 234.800781 287.210938 233.855469 285.804688 233.027344 C 284.394531 232.203125 282.921875 231.511719 281.386719 230.953125 C 278.949219 231.6875 276.472656 232.277344 273.964844 232.714844 C 268.285156 233.808594 263.382812 234.753906 258.507812 239.566406 C 253.621094 244.394531 251.933594 251.140625 250.148438 255.867188 C 249.109375 258.613281 248.019531 261.441406 246.296875 264.277344 C 246.558594 265.144531 246.859375 266 247.207031 266.835938 C 247.6875 267.988281 248.242188 269.101562 248.878906 270.179688 C 249.511719 271.253906 250.214844 272.28125 250.992188 273.257812 C 251.769531 274.234375 252.609375 275.152344 253.511719 276.011719 C 254.417969 276.871094 255.378906 277.667969 256.390625 278.394531 C 257.40625 279.121094 258.464844 279.773438 259.570312 280.351562 C 260.675781 280.933594 261.816406 281.433594 262.992188 281.851562 C 264.167969 282.273438 265.363281 282.613281 266.585938 282.867188 C 267.808594 283.121094 269.042969 283.289062 270.285156 283.371094 C 271.53125 283.453125 272.777344 283.449219 274.023438 283.359375 C 275.265625 283.269531 276.5 283.09375 277.71875 282.832031 C 278.9375 282.570312 280.136719 282.226562 281.308594 281.796875 C 282.480469 281.371094 283.617188 280.863281 284.71875 280.277344 C 285.820312 279.691406 286.878906 279.03125 287.886719 278.300781 C 288.898438 277.566406 289.851562 276.769531 290.75 275.902344 C 291.648438 275.035156 292.484375 274.113281 293.253906 273.132812 C 294.027344 272.148438 294.726562 271.121094 295.351562 270.039062 C 295.664062 269.515625 295.957031 268.980469 296.234375 268.429688 C 297.792969 265.339844 298.71875 262.070312 299.007812 258.621094 C 299.074219 257.863281 299.125 257.097656 299.125 256.320312 C 299.132812 251.75 298.046875 247.457031 295.863281 243.441406 Z M 286.460938 260.113281 C 286.292969 260.707031 286.089844 261.285156 285.851562 261.855469 C 285.609375 262.421875 285.335938 262.972656 285.027344 263.503906 C 284.71875 264.039062 284.378906 264.550781 284.003906 265.039062 C 283.632812 265.53125 283.230469 265.996094 282.796875 266.4375 C 282.367188 266.875 281.910156 267.289062 281.425781 267.667969 C 280.941406 268.050781 280.4375 268.402344 279.910156 268.722656 C 279.382812 269.039062 278.839844 269.324219 278.273438 269.574219 C 277.710938 269.828125 277.136719 270.039062 276.546875 270.21875 C 275.957031 270.398438 275.355469 270.535156 274.75 270.640625 C 274.140625 270.742188 273.53125 270.808594 272.914062 270.832031 C 272.300781 270.859375 271.683594 270.847656 271.070312 270.796875 C 270.457031 270.742188 269.847656 270.65625 269.246094 270.527344 C 268.640625 270.398438 268.050781 270.234375 267.46875 270.03125 C 266.886719 269.828125 266.316406 269.59375 265.765625 269.320312 C 265.214844 269.046875 264.679688 268.738281 264.167969 268.398438 C 263.652344 268.058594 263.164062 267.6875 262.695312 267.285156 C 262.226562 266.882812 261.789062 266.453125 261.375 265.996094 C 260.960938 265.539062 260.578125 265.058594 260.226562 264.550781 C 259.875 264.046875 259.554688 263.523438 259.269531 262.976562 C 258.980469 262.429688 258.730469 261.871094 258.511719 261.292969 C 258.296875 260.714844 258.117188 260.128906 257.976562 259.527344 C 257.832031 258.929688 257.730469 258.320312 257.664062 257.710938 C 257.597656 257.097656 257.570312 256.480469 257.582031 255.867188 C 257.59375 255.25 257.640625 254.636719 257.730469 254.027344 C 257.816406 253.417969 257.945312 252.816406 258.105469 252.222656 C 258.269531 251.628906 258.472656 251.046875 258.707031 250.476562 C 258.945312 249.90625 259.214844 249.355469 259.523438 248.820312 C 259.828125 248.285156 260.167969 247.773438 260.535156 247.28125 C 260.90625 246.789062 261.308594 246.320312 261.738281 245.878906 C 262.167969 245.4375 262.621094 245.023438 263.101562 244.636719 C 263.582031 244.253906 264.085938 243.902344 264.613281 243.578125 C 265.136719 243.257812 265.683594 242.96875 266.242188 242.714844 C 266.804688 242.464844 267.382812 242.246094 267.96875 242.066406 C 268.558594 241.882812 269.15625 241.738281 269.765625 241.632812 C 270.371094 241.527344 270.980469 241.460938 271.597656 241.429688 C 272.214844 241.402344 272.828125 241.410156 273.441406 241.460938 C 274.058594 241.507812 274.664062 241.59375 275.269531 241.71875 C 275.871094 241.84375 276.464844 242.003906 277.050781 242.203125 C 277.632812 242.402344 278.199219 242.636719 278.753906 242.910156 C 279.308594 243.179688 279.84375 243.484375 280.359375 243.820312 C 280.875 244.160156 281.367188 244.527344 281.835938 244.925781 C 282.304688 245.328125 282.746094 245.753906 283.160156 246.210938 C 283.578125 246.664062 283.960938 247.144531 284.316406 247.648438 C 284.671875 248.152344 284.996094 248.675781 285.285156 249.21875 C 285.574219 249.761719 285.828125 250.324219 286.046875 250.898438 C 286.265625 251.472656 286.449219 252.0625 286.59375 252.660156 C 286.738281 253.257812 286.847656 253.863281 286.917969 254.476562 C 286.984375 255.089844 287.015625 255.703125 287.007812 256.320312 C 286.988281 257.609375 286.808594 258.871094 286.460938 260.113281 Z M 247.964844 253.292969 C 247.226562 255.328125 246.371094 257.316406 245.394531 259.25 C 245.363281 259.308594 245.332031 259.371094 245.300781 259.429688 C 244.953125 260.085938 244.585938 260.742188 244.167969 261.394531 C 243.851562 261.894531 243.507812 262.375 243.140625 262.835938 C 242.511719 263.621094 241.8125 264.34375 241.046875 264.996094 C 240.285156 265.648438 239.464844 266.214844 238.585938 266.691406 C 238.214844 266.886719 237.996094 266.976562 237.996094 266.976562 C 236.695312 264.21875 235.769531 261.34375 235.214844 258.351562 C 235.03125 257.371094 234.867188 256.386719 234.765625 255.378906 C 234.648438 254.179688 234.589844 252.980469 234.59375 251.777344 C 234.597656 250.660156 234.660156 249.550781 234.769531 248.457031 L 233.71875 249.980469 C 232.863281 251.207031 231.871094 252.316406 230.75 253.304688 C 229.625 254.292969 228.402344 255.136719 227.078125 255.832031 C 225.753906 256.527344 224.363281 257.058594 222.910156 257.421875 C 221.460938 257.785156 219.984375 257.96875 218.488281 257.980469 L 173.800781 257.980469 C 171.363281 245.160156 162.5 222.78125 136.453125 221.003906 C 124.265625 220.167969 114.347656 223.160156 106.902344 230.070312 C 116.859375 213.476562 128.757812 205.59375 128.757812 205.59375 L 192.714844 205.59375 L 188.355469 227.609375 C 188.273438 228.019531 188.214844 228.433594 188.179688 228.847656 C 188.144531 229.265625 188.132812 229.679688 188.144531 230.097656 C 188.15625 230.515625 188.1875 230.929688 188.246094 231.34375 C 188.300781 231.757812 188.378906 232.167969 188.480469 232.570312 C 188.582031 232.976562 188.707031 233.375 188.851562 233.765625 C 189 234.15625 189.164062 234.539062 189.351562 234.910156 C 189.542969 235.285156 189.75 235.644531 189.976562 235.996094 C 190.203125 236.34375 190.449219 236.679688 190.714844 237.003906 C 190.980469 237.324219 191.261719 237.632812 191.5625 237.921875 C 191.859375 238.214844 192.175781 238.488281 192.503906 238.746094 C 192.832031 239.003906 193.175781 239.238281 193.53125 239.457031 C 193.886719 239.679688 194.253906 239.875 194.628906 240.054688 C 195.007812 240.234375 195.394531 240.390625 195.789062 240.527344 C 196.183594 240.660156 196.582031 240.773438 196.988281 240.867188 C 197.398438 240.957031 197.808594 241.027344 198.222656 241.074219 C 198.636719 241.117188 199.054688 241.140625 199.472656 241.140625 L 216.019531 241.140625 C 217.125 241.140625 218.210938 240.988281 219.273438 240.683594 C 220.335938 240.375 221.335938 239.929688 222.273438 239.339844 C 223.210938 238.753906 224.046875 238.046875 224.785156 237.222656 C 225.523438 236.398438 226.132812 235.488281 226.613281 234.492188 L 235.34375 216.410156 C 236.429688 214.160156 237.144531 211.796875 237.480469 209.320312 C 237.820312 206.84375 237.769531 204.375 237.328125 201.917969 L 231.078125 167.144531 C 230.277344 167.558594 229.425781 167.777344 228.523438 167.8125 L 211.097656 168.765625 C 209.992188 168.804688 208.898438 168.71875 207.8125 168.503906 C 206.726562 168.289062 205.679688 167.953125 204.671875 167.496094 C 203.664062 167.039062 202.722656 166.472656 201.847656 165.792969 C 200.972656 165.117188 200.183594 164.351562 199.488281 163.492188 L 191.144531 153.613281 L 186.691406 173.410156 C 186.59375 173.832031 186.585938 174.257812 186.660156 174.683594 C 186.734375 175.109375 186.890625 175.503906 187.125 175.867188 C 187.363281 176.230469 187.660156 176.53125 188.015625 176.773438 C 188.375 177.015625 188.769531 177.179688 189.191406 177.261719 C 193.964844 178.1875 203.136719 179.976562 210.519531 181.460938 C 211.359375 181.628906 212.175781 181.878906 212.964844 182.210938 C 213.753906 182.539062 214.503906 182.945312 215.214844 183.425781 C 215.925781 183.902344 216.582031 184.449219 217.183594 185.058594 C 217.785156 185.667969 218.320312 186.332031 218.792969 187.046875 C 219.261719 187.761719 219.65625 188.519531 219.976562 189.3125 C 220.300781 190.109375 220.539062 190.925781 220.695312 191.769531 C 220.855469 192.609375 220.929688 193.460938 220.917969 194.316406 C 220.90625 195.171875 220.8125 196.019531 220.636719 196.859375 L 211.867188 231.691406 C 211.769531 232.15625 211.628906 232.609375 211.441406 233.046875 C 211.257812 233.488281 211.03125 233.902344 210.761719 234.296875 C 210.496094 234.691406 210.195312 235.058594 209.855469 235.394531 C 209.519531 235.726562 209.152344 236.027344 208.753906 236.292969 C 208.359375 236.554688 207.9375 236.777344 207.5 236.960938 C 207.058594 237.144531 206.605469 237.28125 206.136719 237.375 C 205.671875 237.46875 205.199219 237.515625 204.722656 237.519531 C 204.246094 237.519531 203.773438 237.476562 203.308594 237.386719 C 202.839844 237.292969 202.386719 237.160156 201.945312 236.980469 C 201.503906 236.800781 201.082031 236.582031 200.683594 236.320312 C 200.285156 236.058594 199.917969 235.761719 199.574219 235.429688 C 199.234375 235.097656 198.929688 234.734375 198.660156 234.339844 C 198.390625 233.949219 198.164062 233.53125 197.972656 233.09375 C 197.785156 232.65625 197.640625 232.207031 197.539062 231.742188 C 197.4375 231.273438 197.382812 230.804688 197.375 230.328125 C 197.367188 229.851562 197.40625 229.378906 197.488281 228.910156 L 204.582031 197.347656 L 195.617188 196.058594 L 195.617188 201.28125 C 195.617188 201.511719 195.574219 201.738281 195.484375 201.953125 C 195.394531 202.167969 195.269531 202.355469 195.105469 202.519531 C 194.9375 202.683594 194.75 202.8125 194.535156 202.902344 C 194.320312 202.992188 194.09375 203.035156 193.863281 203.035156 L 128.105469 203.035156 C 127.875 203.035156 127.648438 202.992188 127.433594 202.902344 C 127.21875 202.8125 127.03125 202.6875 126.867188 202.519531 C 126.699219 202.355469 126.574219 202.167969 126.484375 201.953125 C 126.394531 201.738281 126.351562 201.511719 126.351562 201.28125 L 126.351562 194.679688 C 126.351562 194.449219 126.394531 194.226562 126.484375 194.011719 C 126.574219 193.792969 126.699219 193.605469 126.867188 193.441406 C 127.03125 193.277344 127.21875 193.148438 127.433594 193.058594 C 127.648438 192.972656 127.875 192.925781 128.105469 192.925781 L 175.542969 192.925781 C 174.394531 192.578125 173.285156 192.128906 172.21875 191.574219 C 171.152344 191.019531 170.144531 190.375 169.199219 189.632812 C 168.25 188.890625 167.382812 188.070312 166.589844 187.167969 C 165.792969 186.265625 165.089844 185.296875 164.476562 184.261719 C 163.863281 183.226562 163.351562 182.148438 162.9375 181.019531 C 162.527344 179.890625 162.222656 178.730469 162.023438 177.546875 C 161.828125 176.359375 161.742188 175.167969 161.765625 173.964844 C 161.789062 172.761719 161.925781 171.574219 162.171875 170.398438 L 169.851562 141.527344 C 172.476562 128.867188 186.425781 125.75 194.601562 135.765625 L 209.375 153.96875 C 209.722656 154.394531 210.144531 154.730469 210.636719 154.976562 C 211.128906 155.222656 211.652344 155.355469 212.203125 155.375 L 228.523438 155.585938 C 228.84375 155.601562 229.160156 155.640625 229.472656 155.707031 L 229.472656 152.632812 C 229.472656 152.1875 229.550781 151.757812 229.703125 151.34375 C 229.855469 150.929688 230.074219 150.550781 230.363281 150.214844 C 230.652344 149.878906 230.988281 149.601562 231.375 149.382812 C 231.761719 149.167969 232.171875 149.023438 232.609375 148.957031 L 253.085938 145.699219 C 253.3125 145.664062 253.539062 145.652344 253.769531 145.664062 C 253.996094 145.679688 254.222656 145.714844 254.445312 145.777344 C 254.664062 145.839844 254.875 145.925781 255.078125 146.03125 C 255.28125 146.140625 255.46875 146.269531 255.644531 146.417969 C 255.816406 146.566406 255.972656 146.734375 256.113281 146.914062 C 256.25 147.097656 256.367188 147.292969 256.464844 147.503906 C 256.5625 147.710938 256.632812 147.925781 256.683594 148.152344 C 256.730469 148.375 256.757812 148.601562 256.757812 148.832031 L 256.757812 165.507812 C 256.757812 165.738281 256.730469 165.964844 256.683594 166.1875 C 256.632812 166.410156 256.5625 166.628906 256.464844 166.835938 C 256.367188 167.042969 256.25 167.242188 256.113281 167.421875 C 255.972656 167.605469 255.816406 167.773438 255.644531 167.921875 C 255.46875 168.070312 255.28125 168.199219 255.078125 168.304688 C 254.875 168.414062 254.664062 168.5 254.445312 168.5625 C 254.222656 168.625 253.996094 168.660156 253.769531 168.675781 C 253.539062 168.6875 253.3125 168.675781 253.085938 168.640625 L 244.15625 167.21875 L 258.644531 205.210938 C 258.96875 206.066406 259.1875 206.949219 259.296875 207.855469 C 259.410156 208.761719 259.410156 209.671875 259.300781 210.578125 C 259.191406 211.488281 258.976562 212.367188 258.652344 213.222656 C 258.332031 214.078125 257.910156 214.882812 257.390625 215.636719 L 256.394531 217.082031 L 254.078125 220.4375 C 254.742188 220.109375 255.394531 219.765625 256.078125 219.472656 C 259.367188 218.085938 262.789062 217.214844 266.34375 216.867188 C 267.414062 216.761719 268.472656 216.71875 269.523438 216.710938 C 269.78125 216.707031 270.039062 216.71875 270.292969 216.722656 C 271.636719 216.734375 272.972656 216.820312 274.304688 216.980469 C 275.597656 217.152344 276.878906 217.394531 278.144531 217.710938 C 278.378906 217.769531 278.613281 217.820312 278.84375 217.882812 C 280.050781 218.203125 281.230469 218.585938 282.394531 219.03125 C 282.613281 219.113281 282.828125 219.207031 283.042969 219.296875 C 284.234375 219.773438 285.398438 220.3125 286.53125 220.914062 C 287.191406 221.273438 287.835938 221.660156 288.464844 222.0625 C 289.09375 222.46875 289.710938 222.894531 290.320312 223.332031 C 290.320312 223.332031 288.511719 225.742188 283.523438 227.886719 C 281.519531 228.722656 279.460938 229.371094 277.339844 229.828125 C 270.304688 231.433594 263.511719 231.613281 257.003906 238.039062 C 254.300781 240.675781 252.136719 243.695312 250.511719 247.097656 C 250.039062 248.078125 249.621094 249.050781 249.230469 250.019531 C 248.894531 250.851562 248.578125 251.679688 248.265625 252.503906 C 248.164062 252.765625 248.0625 253.027344 247.964844 253.292969 Z M 156.457031 180.757812 L 156.457031 124.238281 C 156.457031 123.753906 156.410156 123.277344 156.316406 122.800781 C 156.222656 122.328125 156.082031 121.867188 155.898438 121.417969 C 155.710938 120.972656 155.484375 120.546875 155.214844 120.144531 C 154.945312 119.742188 154.640625 119.367188 154.296875 119.027344 C 153.957031 118.683594 153.582031 118.378906 153.179688 118.109375 C 152.777344 117.839844 152.355469 117.613281 151.90625 117.429688 C 151.460938 117.242188 151 117.101562 150.523438 117.007812 C 150.046875 116.914062 149.570312 116.867188 149.085938 116.867188 L 83.0625 116.867188 C 82.578125 116.867188 82.097656 116.914062 81.621094 117.007812 C 81.148438 117.101562 80.6875 117.242188 80.238281 117.429688 C 79.792969 117.613281 79.367188 117.839844 78.964844 118.109375 C 78.5625 118.378906 78.191406 118.683594 77.847656 119.027344 C 77.503906 119.367188 77.199219 119.742188 76.929688 120.144531 C 76.660156 120.546875 76.433594 120.972656 76.25 121.417969 C 76.0625 121.867188 75.925781 122.328125 75.828125 122.800781 C 75.734375 123.277344 75.6875 123.753906 75.6875 124.238281 L 75.6875 180.757812 C 75.6875 181.242188 75.734375 181.722656 75.832031 182.195312 C 75.925781 182.671875 76.066406 183.132812 76.25 183.578125 C 76.433594 184.027344 76.664062 184.453125 76.929688 184.855469 C 77.199219 185.257812 77.503906 185.628906 77.847656 185.972656 C 78.191406 186.3125 78.5625 186.617188 78.964844 186.886719 C 79.367188 187.15625 79.792969 187.382812 80.238281 187.570312 C 80.6875 187.753906 81.148438 187.894531 81.621094 187.988281 C 82.097656 188.082031 82.578125 188.128906 83.0625 188.128906 L 149.085938 188.128906 C 149.570312 188.128906 150.046875 188.082031 150.523438 187.988281 C 150.996094 187.894531 151.460938 187.753906 151.90625 187.570312 C 152.351562 187.382812 152.777344 187.15625 153.179688 186.886719 C 153.582031 186.617188 153.957031 186.3125 154.296875 185.972656 C 154.640625 185.628906 154.945312 185.257812 155.214844 184.855469 C 155.484375 184.453125 155.710938 184.027344 155.894531 183.578125 C 156.082031 183.132812 156.222656 182.671875 156.316406 182.195312 C 156.410156 181.722656 156.457031 181.242188 156.457031 180.757812 Z M 145.3125 136.679688 L 132.375 149.617188 C 132.15625 149.835938 131.921875 150.03125 131.664062 150.203125 C 131.40625 150.375 131.136719 150.519531 130.851562 150.636719 C 130.566406 150.753906 130.273438 150.84375 129.96875 150.902344 C 129.667969 150.964844 129.363281 150.996094 129.054688 150.996094 C 128.746094 150.996094 128.441406 150.964844 128.136719 150.902344 C 127.835938 150.84375 127.539062 150.753906 127.253906 150.636719 C 126.972656 150.519531 126.699219 150.375 126.445312 150.203125 C 126.1875 150.03125 125.949219 149.835938 125.730469 149.617188 L 118.875 156.808594 C 126.703125 164.242188 135.976562 173.046875 135.976562 173.046875 C 136.3125 173.382812 136.570312 173.765625 136.75 174.199219 C 136.933594 174.636719 137.023438 175.089844 137.027344 175.5625 C 137.027344 176.035156 136.9375 176.488281 136.757812 176.925781 C 136.574219 177.363281 136.320312 177.746094 135.984375 178.082031 C 135.652344 178.414062 135.265625 178.671875 134.828125 178.851562 C 134.394531 179.03125 133.9375 179.121094 133.46875 179.121094 C 132.996094 179.121094 132.542969 179.027344 132.105469 178.847656 C 131.667969 178.664062 131.285156 178.40625 130.953125 178.070312 L 114.8125 161.074219 L 98.609375 178.070312 C 98.277344 178.40625 97.890625 178.664062 97.457031 178.847656 C 97.019531 179.027344 96.566406 179.121094 96.09375 179.121094 C 95.621094 179.121094 95.167969 179.03125 94.730469 178.851562 C 94.296875 178.671875 93.910156 178.414062 93.574219 178.082031 C 93.242188 177.746094 92.984375 177.363281 92.804688 176.925781 C 92.625 176.488281 92.535156 176.035156 92.535156 175.5625 C 92.535156 175.089844 92.628906 174.636719 92.808594 174.199219 C 92.992188 173.765625 93.25 173.382812 93.585938 173.046875 L 110.695312 156.738281 L 104.652344 150.375 C 100.910156 151.828125 95.476562 150.183594 91.285156 145.992188 C 86.164062 140.875 84.839844 133.898438 88.320312 130.417969 C 91.804688 126.933594 98.777344 128.261719 103.898438 133.378906 C 108.089844 137.570312 109.734375 143.003906 108.277344 146.75 L 114.738281 152.882812 L 122.039062 145.925781 C 121.820312 145.710938 121.625 145.472656 121.453125 145.214844 C 121.28125 144.957031 121.136719 144.6875 121.019531 144.402344 C 120.902344 144.117188 120.8125 143.824219 120.753906 143.523438 C 120.691406 143.21875 120.664062 142.914062 120.664062 142.605469 C 120.664062 142.296875 120.691406 141.992188 120.753906 141.6875 C 120.8125 141.386719 120.902344 141.09375 121.019531 140.808594 C 121.136719 140.523438 121.28125 140.25 121.453125 139.996094 C 121.625 139.738281 121.820312 139.5 122.039062 139.28125 L 134.976562 126.34375 C 135.121094 126.199219 135.289062 126.085938 135.480469 126.007812 C 135.667969 125.929688 135.867188 125.890625 136.070312 125.890625 C 136.277344 125.890625 136.472656 125.929688 136.664062 126.007812 C 136.851562 126.085938 137.019531 126.199219 137.164062 126.34375 C 137.324219 126.488281 137.445312 126.65625 137.535156 126.851562 C 137.621094 127.042969 137.667969 127.246094 137.675781 127.457031 C 137.679688 127.671875 137.644531 127.875 137.570312 128.074219 C 137.492188 128.273438 137.378906 128.445312 137.230469 128.597656 L 127.472656 138.355469 C 127.351562 138.476562 127.261719 138.617188 127.195312 138.773438 C 127.128906 138.929688 127.097656 139.09375 127.097656 139.265625 C 127.097656 139.4375 127.128906 139.601562 127.195312 139.757812 C 127.261719 139.914062 127.351562 140.054688 127.472656 140.175781 C 127.59375 140.296875 127.734375 140.390625 127.890625 140.453125 C 128.046875 140.519531 128.210938 140.550781 128.382812 140.550781 C 128.554688 140.550781 128.71875 140.519531 128.875 140.453125 C 129.03125 140.390625 129.171875 140.296875 129.292969 140.175781 L 139.050781 130.417969 C 139.195312 130.277344 139.363281 130.167969 139.550781 130.089844 C 139.742188 130.015625 139.9375 129.976562 140.140625 129.980469 C 140.34375 129.980469 140.539062 130.019531 140.726562 130.097656 C 140.914062 130.175781 141.082031 130.289062 141.226562 130.433594 C 141.367188 130.578125 141.480469 130.742188 141.558594 130.929688 C 141.636719 131.117188 141.675781 131.3125 141.679688 131.515625 C 141.679688 131.71875 141.644531 131.917969 141.566406 132.105469 C 141.492188 132.292969 141.382812 132.460938 141.242188 132.605469 L 131.484375 142.363281 C 131.363281 142.484375 131.269531 142.625 131.207031 142.78125 C 131.140625 142.9375 131.109375 143.101562 131.109375 143.273438 C 131.109375 143.441406 131.140625 143.605469 131.207031 143.765625 C 131.269531 143.921875 131.363281 144.0625 131.484375 144.179688 C 131.605469 144.300781 131.742188 144.394531 131.902344 144.460938 C 132.058594 144.527344 132.222656 144.558594 132.394531 144.558594 C 132.5625 144.558594 132.726562 144.527344 132.886719 144.460938 C 133.042969 144.394531 133.179688 144.304688 133.300781 144.183594 L 143.058594 134.425781 C 143.203125 134.28125 143.371094 134.167969 143.5625 134.089844 C 143.75 134.011719 143.949219 133.972656 144.152344 133.972656 C 144.359375 133.972656 144.558594 134.011719 144.746094 134.089844 C 144.9375 134.167969 145.105469 134.28125 145.25 134.425781 C 145.40625 134.570312 145.527344 134.738281 145.617188 134.929688 C 145.703125 135.125 145.753906 135.328125 145.757812 135.539062 C 145.765625 135.75 145.730469 135.957031 145.652344 136.15625 C 145.574219 136.351562 145.460938 136.527344 145.3125 136.679688 Z M 178.710938 120.855469 C 178.367188 118.257812 177.675781 112.804688 177.742188 111.378906 C 178.203125 101.433594 185.148438 93.675781 196.585938 94.207031 C 197.542969 94.25 198.492188 94.371094 199.425781 94.566406 C 200.363281 94.761719 201.28125 95.027344 202.175781 95.371094 C 203.070312 95.710938 203.929688 96.121094 204.757812 96.597656 C 205.589844 97.078125 206.375 97.617188 207.117188 98.222656 C 207.859375 98.824219 208.550781 99.484375 209.191406 100.195312 C 209.828125 100.910156 210.40625 101.667969 210.921875 102.472656 C 211.441406 103.277344 211.890625 104.121094 212.273438 104.996094 C 212.65625 105.875 212.96875 106.777344 213.210938 107.703125 L 195.695312 106.886719 C 195.457031 106.875 195.222656 106.914062 194.996094 106.992188 C 194.769531 107.074219 194.566406 107.199219 194.386719 107.359375 C 194.210938 107.523438 194.070312 107.710938 193.96875 107.929688 C 193.867188 108.148438 193.808594 108.378906 193.796875 108.617188 L 193.523438 114.546875 C 193.507812 114.824219 193.539062 115.09375 193.617188 115.359375 C 193.691406 115.625 193.808594 115.871094 193.964844 116.097656 C 194.125 116.324219 194.3125 116.519531 194.535156 116.683594 C 194.753906 116.847656 194.996094 116.972656 195.257812 117.058594 L 212.480469 122.664062 C 211.398438 125.871094 209.832031 128.820312 207.785156 131.519531 C 207.46875 131.933594 207.054688 132.214844 206.550781 132.355469 C 206.046875 132.5 205.550781 132.476562 205.0625 132.289062 L 180.199219 122.742188 C 179.796875 122.589844 179.460938 122.34375 179.195312 122.003906 C 178.929688 121.664062 178.765625 121.28125 178.710938 120.855469 Z M 136.257812 223.679688 C 124.878906 222.90625 115.601562 225.652344 108.730469 232.039062 C 100.480469 239.703125 97.105469 250.804688 97.105469 257.980469 L 108.058594 257.980469 C 108.058594 258.042969 108.050781 258.105469 108.050781 258.167969 C 108.050781 258.894531 108.097656 259.605469 108.160156 260.3125 C 108.402344 263.269531 109.148438 266.09375 110.398438 268.785156 C 111.648438 271.476562 113.324219 273.871094 115.421875 275.964844 C 116.097656 276.648438 116.808594 277.289062 117.554688 277.890625 C 118.300781 278.488281 119.082031 279.046875 119.890625 279.554688 C 120.703125 280.066406 121.542969 280.53125 122.40625 280.945312 C 123.269531 281.359375 124.15625 281.722656 125.0625 282.035156 C 125.96875 282.347656 126.886719 282.609375 127.824219 282.816406 C 128.761719 283.023438 129.703125 283.175781 130.65625 283.273438 C 131.613281 283.371094 132.566406 283.414062 133.527344 283.402344 C 134.484375 283.390625 135.4375 283.328125 136.390625 283.207031 C 137.339844 283.085938 138.28125 282.910156 139.210938 282.679688 C 140.144531 282.453125 141.058594 282.171875 141.957031 281.835938 C 142.855469 281.503906 143.730469 281.117188 144.585938 280.683594 C 145.441406 280.25 146.265625 279.765625 147.066406 279.238281 C 147.863281 278.707031 148.632812 278.132812 149.363281 277.515625 C 150.097656 276.898438 150.792969 276.242188 151.449219 275.542969 C 152.109375 274.847656 152.722656 274.113281 153.296875 273.34375 C 153.871094 272.578125 154.398438 271.777344 154.878906 270.949219 C 155.167969 270.460938 155.445312 269.960938 155.699219 269.449219 C 157.152344 266.570312 158.015625 263.527344 158.285156 260.3125 C 158.34375 259.605469 158.394531 258.890625 158.394531 258.167969 C 158.394531 258.105469 158.382812 258.042969 158.382812 257.980469 L 168.789062 257.980469 C 165.601562 233.640625 149.207031 224.554688 136.257812 223.679688 Z M 146.597656 261.703125 C 146.375 262.5 146.082031 263.269531 145.71875 264.015625 C 145.359375 264.761719 144.933594 265.46875 144.449219 266.136719 C 143.960938 266.804688 143.417969 267.425781 142.820312 268 C 142.222656 268.570312 141.578125 269.085938 140.886719 269.542969 C 140.195312 270 139.472656 270.390625 138.710938 270.71875 C 137.949219 271.046875 137.167969 271.300781 136.359375 271.488281 C 135.554688 271.675781 134.738281 271.789062 133.910156 271.832031 C 133.082031 271.871094 132.257812 271.839844 131.4375 271.734375 C 130.617188 271.625 129.8125 271.449219 129.023438 271.199219 C 128.234375 270.945312 127.472656 270.628906 126.742188 270.242188 C 126.007812 269.855469 125.316406 269.40625 124.664062 268.898438 C 124.011719 268.386719 123.410156 267.824219 122.859375 267.207031 C 122.308594 266.585938 121.816406 265.925781 121.386719 265.21875 C 120.953125 264.515625 120.585938 263.777344 120.285156 263.003906 C 119.984375 262.234375 119.753906 261.441406 119.597656 260.628906 C 119.4375 259.816406 119.351562 258.996094 119.339844 258.167969 C 119.339844 258.105469 119.347656 258.042969 119.347656 257.980469 L 147.097656 257.980469 C 147.097656 258.042969 147.109375 258.105469 147.109375 258.167969 C 147.089844 259.367188 146.921875 260.546875 146.597656 261.703125 Z M 146.597656 261.703125 "/></g></g></svg>