<svg width="3128" height="919" viewBox="0 0 3128 919" fill="none" xmlns="http://www.w3.org/2000/svg">
<path d="M2586.68 641.543L2648.83 489.325C2668.04 515.145 2691.16 535.411 2718.18 550.122C2745.2 564.534 2771.77 571.739 2797.89 571.739C2814.11 571.739 2827.02 568.136 2836.62 560.931C2846.53 553.725 2851.48 544.418 2851.48 533.009C2851.48 521.9 2847.28 512.293 2838.87 504.187C2830.77 495.78 2809 486.473 2773.57 476.265C2737.85 466.057 2708.57 454.948 2685.76 442.939C2662.94 430.629 2643.87 412.615 2628.56 388.897C2613.55 365.178 2606.04 339.358 2606.04 311.437C2606.04 257.395 2629.16 215.512 2675.4 185.789C2721.93 155.766 2787.08 140.754 2870.85 140.754C2965.12 140.754 3045.74 156.216 3112.69 187.14L3046.04 325.398C3002.2 286.067 2959.87 266.402 2919.04 266.402C2905.53 266.402 2894.57 269.404 2886.16 275.409C2877.76 281.413 2873.55 289.069 2873.55 298.377C2873.55 309.485 2877.76 319.093 2886.16 327.199C2894.87 335.305 2917.69 344.012 2954.61 353.319C2992.14 362.626 3023.07 373.285 3047.39 385.294C3072.01 397.303 3091.52 415.317 3105.93 439.336C3120.64 463.355 3128 490.826 3128 521.75C3128 577.594 3105.33 621.728 3060 654.153C3014.96 686.278 2956.57 702.341 2884.81 702.341C2787.54 702.341 2688.16 682.075 2586.68 641.543Z" fill="white"/>
<path d="M2527.68 694.235H2249.37V7H2527.68V694.235Z" fill="white"/>
<path d="M2162.45 487.524V582.548C2101.5 662.41 2013.83 702.341 1899.45 702.341C1805.17 702.341 1729.36 676.22 1672.02 623.98C1614.67 571.439 1586 502.385 1586 416.819C1586 335.455 1612.27 269.104 1664.81 217.764C1717.65 166.424 1786.11 140.754 1870.17 140.754C1913.11 140.754 1952.89 147.96 1989.52 162.371C2026.14 176.782 2057.82 197.948 2084.54 225.87C2111.26 253.792 2130.93 286.217 2143.54 323.146C2156.15 360.075 2162.45 405.11 2162.45 458.251H1878.28C1888.49 485.872 1905.6 507.489 1929.62 523.101C1953.64 538.713 1981.11 546.52 2012.03 546.52C2074.48 546.52 2124.62 526.854 2162.45 487.524ZM1861.62 363.227H1992.67C1991.47 336.206 1984.71 315.19 1972.4 300.178C1960.39 284.866 1944.63 277.21 1925.12 277.21C1908 277.21 1893.14 284.566 1880.53 299.277C1867.92 313.688 1861.62 335.005 1861.62 363.227Z" fill="white"/>
<path d="M1518.45 487.524V582.548C1457.5 662.41 1369.83 702.341 1255.44 702.341C1161.17 702.341 1085.36 676.22 1028.02 623.98C970.672 571.439 942 502.385 942 416.819C942 335.455 968.27 269.104 1020.81 217.764C1073.65 166.424 1142.11 140.754 1226.17 140.754C1269.1 140.754 1308.89 147.96 1345.51 162.371C1382.14 176.782 1413.82 197.948 1440.54 225.87C1467.26 253.792 1486.92 286.217 1499.53 323.146C1512.14 360.075 1518.45 405.11 1518.45 458.251H1234.28C1244.49 485.872 1261.6 507.489 1285.62 523.101C1309.64 538.713 1337.11 546.52 1368.03 546.52C1430.48 546.52 1480.62 526.854 1518.45 487.524ZM1217.61 363.227H1348.67C1347.47 336.206 1340.71 315.19 1328.4 300.178C1316.39 284.866 1300.63 277.21 1281.11 277.21C1264 277.21 1249.14 284.566 1236.53 299.277C1223.92 313.688 1217.61 335.005 1217.61 363.227Z" fill="white"/>
<path fill-rule="evenodd" clip-rule="evenodd" d="M297.582 106.48C290.735 105.786 285.229 115.139 277.003 115.743C270.608 116.215 277.729 114.885 270.53 115.075C264.853 115.226 263.002 117.084 255.17 113.854L253.098 112.696C253.878 106.464 252.274 109.27 258.068 105.807C260.384 104.424 261.574 104.151 264.115 102.283C267.98 84.8186 264.768 48.947 264.514 30.8788C266.98 29.2492 267.332 28.555 268.454 27.7124C268.686 27.5402 269.04 27.2752 269.263 27.1136L272.417 25.2588L269.196 23.0251C241.053 12.0183 51.4717 22.2381 24.7916 33.3403C9.75865 39.5963 8.03462 64.5087 6.23709 82.924C-0.552113 152.497 61.4461 118.541 73.3606 152.081C92.5009 205.968 104.148 265.419 119.789 315.193C125.119 332.157 128.65 352.332 134.227 369.711C140.025 387.782 144.943 406.118 149.764 424.597L170.871 507.558C174.49 522.813 183.224 546.419 186.661 561.988C188.715 571.297 191.216 581.087 193.668 590.261C197.116 603.162 203.398 635.96 209.089 644.473C210.298 638.472 207.875 641.114 208.483 633.363C215.983 634.619 211.481 635.737 218.13 638.496C221.026 639.699 228.59 641.029 232.541 641.421C247.873 642.944 233.533 645.295 260.302 645.801C280.117 646.174 332.586 649.858 343.706 630.414C345.387 627.476 346.958 622.574 348.305 618.835C354.852 600.65 354.863 611.97 359.244 587.571C360.227 582.105 366.129 573.809 369.635 562.744C374.943 545.998 373.257 547.161 380.305 531.143C386.283 517.558 383.777 521.334 386.334 512.02C388.847 502.879 398.647 483.351 398.939 482.426L415.988 440.039C416.117 439.702 416.266 439.313 416.396 438.976L421.871 420.855C422.791 418.73 423.303 417.665 424.517 414.824C426.167 410.953 425.989 411.91 427.424 408.942C429.52 404.599 430.435 398.245 433.342 394.403C433.518 394.17 433.812 393.868 434.001 393.651L439.654 388.023C439.741 387.853 443.601 368.704 454.977 368.511L455.563 370.307C456.835 376.29 455.685 377.302 453.124 379.909L450.638 382.127C455.65 383.701 453.324 385.45 458.888 384.83C462.846 384.387 462.35 382.753 467.395 381.891L467.517 391.671C467.551 404.398 458.639 419.838 457.819 428.778L456.754 426.284C456.625 425.953 456.013 424.355 455.85 423.939C454.741 421.075 455.536 422.201 454.044 419.53L453.897 431.035C455.83 431.912 455.001 429.498 456.198 434.146C453.11 438.319 454.937 437.932 453.309 441.589C451.716 445.166 452.039 444.029 448.591 445.908C448.159 454.978 444.305 467.948 442.209 476.973C439.995 486.509 432.618 495.871 434.064 505.614C440.563 495.754 467.751 400.029 474.445 394.475C479.343 402.731 488.462 445.953 492.694 459.021C499.759 480.828 504.573 502.633 510.785 524.667C516.026 543.26 541.731 645.046 550.144 652.295L547.094 640.348C564.448 638.859 550.596 648.451 596.813 648.085C613.532 647.952 677.729 652.367 689.697 638.644C689.897 638.414 690.142 638.016 690.32 637.791C690.485 637.582 690.712 637.168 690.857 636.972C693.042 634.031 695.51 632.142 696.925 627.992C699.045 621.773 697.141 622.762 700.872 616.858C706.678 607.672 708.469 581.387 715.426 565.364L726.253 524.389C727.226 514.175 730.461 515.444 734.047 506.34C736.348 500.5 736.784 485.354 746.661 460.442L763.373 406.314C768.864 378.836 767.204 393.778 770.679 383.987C775.219 371.192 773.938 353.858 780.562 342.133C781.54 340.405 782.072 338.913 782.812 337.08C788.249 323.582 788.135 307.96 793.644 299.385C796.482 294.971 794.497 299.881 796.381 295.443C796.384 295.435 801.52 265.159 803.921 261.283C811.08 249.735 809.28 240.981 814.807 228.358C817.137 223.034 816.709 224.068 818.772 217.701C820.246 213.146 821.447 212.131 822.783 207.097C824.244 201.593 823.772 199.895 825.552 195.019L842.981 146.856L856.72 124.41C859.431 119.36 859.322 120.155 863.641 117.004C865.202 115.865 865.83 115.404 867.679 113.835L870.695 111.358C870.953 111.212 871.31 111.021 871.591 110.894C875.052 109.307 878.589 109.196 882.298 107.248C885.496 105.568 887.514 103.539 891.749 102.656C896.373 101.694 898.727 102.044 902.525 100.579C905.739 97.5026 910.976 42.2513 912.428 36.2709L913.09 34.1723C913.183 33.8252 913.337 33.4649 913.424 33.1072C913.515 32.7283 913.642 32.3653 913.722 31.9678C915.237 24.4612 914.464 15.5503 913.6 7.21968L925.216 10.1847C922.369 17.323 922.815 10.7385 921.463 16.7162L923.588 18.4729C927.793 19.7103 924.684 12.9828 931.297 14.7183C935.645 15.8603 935.44 18.7299 937.326 23.0728L941.768 21.9838C930.555 -8.9461 831.45 1.65797 799.827 2.12962C779.816 2.42903 717.003 7.24087 698.493 11.8831C680.557 16.3797 671.429 18.3457 667.857 38.4463C657.909 94.429 662.68 105.661 701.25 112.614C719.014 115.817 733.771 114.681 728.077 140.258C726.34 148.061 724.647 155.714 722.883 164.333C721.014 173.469 718.747 177.955 716.856 187.841C704.291 253.562 685.003 312.061 669.919 375.233C667.393 385.813 646.502 461.329 642.698 464.684C635.367 454.692 603.455 318.09 594.574 286.026C583.446 245.832 567.106 152.351 558.091 125.78C548.605 97.8153 516.249 102.031 486.956 101.676C469.342 101.464 445.317 101.761 432.845 109.874C419.24 118.727 418.024 135.128 411.108 153.435C399.242 184.829 389.889 219.113 379.106 251.725L323.095 423.916C318.901 432.816 317.451 442.069 311.749 446.284C304.922 435.876 258.818 209.677 250.497 166.509C245.795 142.11 245 132.979 261.039 125.404C276.772 117.974 289.829 120.203 297.578 106.48H297.582Z" fill="white"/>
<path fill-rule="evenodd" clip-rule="evenodd" d="M550.144 652.3C562.657 688.572 688.663 680.175 715.125 672.191C731.599 667.221 739.157 651.219 744.213 633.278L773.871 526.972C783.168 489.106 806.828 407.551 819.671 367.519C825.447 349.52 829.488 332.22 834.885 313.882C850.989 259.157 864.788 209.751 882.839 156.818C890.655 133.896 890.956 127.227 913.602 120.176C937.85 112.624 940.808 111.692 944.795 83.3902C947.212 66.2387 951.88 34.2728 941.77 21.9809L937.329 23.0699C935.442 18.7271 935.647 15.8574 931.299 14.7154C924.686 12.9799 927.795 19.7074 923.59 18.47L921.465 16.7133C922.817 10.7356 922.372 17.3227 925.218 10.1818L913.602 7.2168C914.466 15.5474 915.237 24.4583 913.725 31.9649C913.644 32.3624 913.517 32.728 913.426 33.1043C913.339 33.462 913.183 33.8224 913.092 34.1695L912.43 36.268C910.978 42.2484 905.742 97.4998 902.527 100.576C898.73 102.041 896.375 101.692 891.751 102.653C887.514 103.536 885.499 105.565 882.3 107.245C878.589 109.193 875.052 109.304 871.593 110.891C871.314 111.018 870.958 111.209 870.697 111.355L867.681 113.832C865.833 115.401 865.205 115.862 863.643 117.001C859.324 120.152 859.431 119.357 856.723 124.407L842.984 146.853L825.554 195.016C823.777 199.892 824.247 201.59 822.785 207.094C821.449 212.131 820.248 213.143 818.774 217.698C816.713 224.065 817.141 223.032 814.809 228.355C809.283 240.978 811.083 249.733 803.924 261.28C801.52 265.156 796.386 295.432 796.384 295.44C794.499 299.881 796.484 294.968 793.646 299.382C788.136 307.957 788.249 323.579 782.814 337.077C782.075 338.913 781.54 340.402 780.565 342.13C773.94 353.855 775.223 371.189 770.681 383.985C767.207 393.775 768.868 378.833 763.375 406.311L746.663 460.439C736.787 485.351 736.352 500.497 734.049 506.337C730.461 515.438 727.227 514.172 726.255 524.386L715.428 565.361C708.472 581.387 706.681 607.672 700.874 616.855C697.143 622.756 699.047 621.771 696.927 627.989C695.512 632.141 693.047 634.028 690.859 636.969C690.715 637.165 690.487 637.579 690.323 637.788C690.144 638.013 689.899 638.411 689.699 638.641C677.729 652.364 613.534 647.949 596.815 648.082C550.598 648.448 564.451 638.858 547.097 640.345L550.146 652.292L550.144 652.3Z" fill="#D2D4D5"/>
<path fill-rule="evenodd" clip-rule="evenodd" d="M209.086 644.479C211.227 656.196 224.244 666.996 235.653 671.739C247.614 676.71 266.552 679.349 281.135 679.8C309.211 680.666 356.533 680.33 375.257 667.057C387.107 658.658 386.922 646.636 393.121 631.287C398.382 618.258 401.708 602.503 406.517 588.921L420.799 547.612C423.757 537.609 433.529 513.59 434.065 505.62C432.62 495.877 439.997 486.515 442.211 476.979C444.307 467.954 448.161 454.981 448.593 445.914C452.039 444.035 451.718 445.172 453.31 441.595C454.939 437.939 453.112 438.323 456.199 434.152C455.003 429.505 455.832 431.918 453.899 431.041L454.045 419.536C455.538 422.207 454.743 421.081 455.852 423.945C456.012 424.362 456.627 425.962 456.756 426.29L457.821 428.784C458.643 419.844 467.555 404.407 467.519 391.678L467.397 381.898C462.352 382.759 462.848 384.396 458.89 384.836C453.326 385.456 455.651 383.707 450.64 382.133L453.126 379.916C455.687 377.311 456.836 376.296 455.565 370.313L454.979 368.517C443.603 368.713 439.741 387.859 439.656 388.029L434.003 393.657C433.814 393.872 433.52 394.176 433.344 394.409C430.437 398.251 429.522 404.605 427.426 408.948C425.991 411.916 426.171 410.959 424.519 414.831C423.307 417.671 422.795 418.739 421.873 420.861L416.398 438.983C416.268 439.319 416.119 439.709 415.99 440.045L398.941 482.432C398.649 483.357 388.846 502.885 386.336 512.027C383.779 521.338 386.285 517.562 380.307 531.149C373.259 547.164 374.945 546.004 369.637 562.75C366.131 573.815 360.226 582.108 359.246 587.577C354.865 611.973 354.854 600.656 348.307 618.841C346.962 622.58 345.389 627.479 343.708 630.42C332.588 649.866 280.121 646.183 260.304 645.807C233.535 645.301 247.875 642.951 232.543 641.427C228.592 641.035 221.028 639.705 218.132 638.502C211.483 635.743 215.985 634.625 208.485 633.369C207.877 641.117 210.298 638.478 209.091 644.479H209.086Z" fill="#D2D4D5"/>
<path fill-rule="evenodd" clip-rule="evenodd" d="M297.581 106.481C304.341 90.4898 302.276 71.1073 299.256 53.1344C296.507 36.7858 286.326 24.7641 269.199 23.0312L272.42 25.2649L269.266 27.1197C269.043 27.2814 268.689 27.5463 268.457 27.7186C267.335 28.5612 266.983 29.258 264.517 30.8849C264.769 48.9532 267.983 84.8247 264.118 102.289C261.577 104.16 260.387 104.43 258.071 105.813C252.277 109.276 253.881 106.47 253.102 112.702L255.173 113.86C263.002 117.09 264.853 115.235 270.533 115.082C277.732 114.888 270.611 116.221 277.006 115.749C285.232 115.143 290.738 105.789 297.586 106.486L297.581 106.481Z" fill="#D2D4D5"/>
<path fill-rule="evenodd" clip-rule="evenodd" d="M241.388 901.555C266.409 911.309 285.475 927.384 327.449 913.577C349.082 906.46 369.097 893.15 381.856 874.351C384.997 869.722 385.03 868.603 388.585 865.821C389.078 862.234 388.267 866.073 389.247 862.962L398.9 837.605C402.85 825.965 403.099 814.982 402.908 801.492C402.587 779.01 392.421 756.137 382.972 741.228C361.863 707.908 316.203 693.416 275.307 706.877C202.174 730.949 169.101 836.966 236.644 896.412L241.388 901.552V901.555Z" fill="#373535"/>
<path fill-rule="evenodd" clip-rule="evenodd" d="M565.243 893.424C581.615 902.136 594.645 920.417 634.548 917.987C698.446 914.097 747.527 843.613 729.786 780.521C723.954 759.779 718.375 755.354 715.316 746.067L712.24 743.02C695.327 722.365 675.41 705.344 647.228 703.251C615.472 700.892 587.847 710.664 565.704 732.029C548.867 748.274 531.435 777.675 531.56 812.492C531.623 829.675 535.939 847.11 541.419 859.898C544.265 866.541 547.731 872.166 551.93 877.5C554.937 881.318 563.6 890.377 565.243 893.422V893.424Z" fill="#373535"/>
<path fill-rule="evenodd" clip-rule="evenodd" d="M298.785 771.468C283.349 778.058 286.677 774.412 275.126 786.23C266.857 794.688 262.22 812.509 266.793 824.483C267.864 827.289 267.091 824.78 268.374 828.148C274.433 844.081 291.415 853.842 308.74 852.446C326.575 851.007 344.229 828.932 340.63 806.02C337.703 787.388 330.967 775.536 315.193 771.331C310.138 769.985 303.886 769.29 298.788 771.468H298.785Z" fill="white"/>
<path fill-rule="evenodd" clip-rule="evenodd" d="M626.544 852.286C632.905 852.267 635.389 853.232 641.007 851.054C654.895 845.667 661.503 841.788 667.783 824.914C672.785 811.47 670.373 794.599 661.682 783.388L652.772 774.87C636.837 773.166 632.531 769.66 617.939 776.939C606.649 782.572 603.359 791.417 599.296 799.819C591.834 815.251 600.944 835.762 614.07 844.013C617.552 846.202 623.695 848.735 626.544 852.288V852.286Z" fill="white"/>
<path fill-rule="evenodd" clip-rule="evenodd" d="M301.298 794.676C292.55 797.845 283.908 801.859 285.715 814.957C286.879 823.412 296.502 832.694 307.287 830.563C330.833 825.908 320.656 787.662 301.298 794.676Z" fill="#373535"/>
<path fill-rule="evenodd" clip-rule="evenodd" d="M627.019 795.837C619.294 798.932 614.416 808.959 617.753 818.113C628.623 847.941 665.687 813.633 639.735 797.432C634.699 794.287 633.015 793.434 627.019 795.837Z" fill="#373535"/>
<path fill-rule="evenodd" clip-rule="evenodd" d="M626.544 852.287C623.695 848.734 617.552 846.201 614.07 844.012C600.944 835.758 591.834 815.247 599.296 799.818C603.359 791.416 606.649 782.571 617.939 776.938C632.529 769.659 636.835 773.164 652.772 774.868C647.729 766.026 625.04 770.025 617.743 774.023C611.687 777.34 609.21 779.701 605.179 784.007C581.292 809.534 600.011 850.808 626.544 852.284V852.287Z" fill="#D38F70"/>
<path fill-rule="evenodd" clip-rule="evenodd" d="M297.582 106.48C290.735 105.786 285.229 115.139 277.003 115.743C270.608 116.215 277.729 114.885 270.53 115.075C264.853 115.226 263.002 117.084 255.17 113.854L253.098 112.696C253.878 106.464 252.274 109.27 258.068 105.807C260.384 104.424 261.574 104.151 264.115 102.283C267.98 84.8186 264.768 48.947 264.514 30.8788C266.98 29.2492 267.332 28.555 268.454 27.7124C268.686 27.5402 269.04 27.2752 269.263 27.1136L272.417 25.2588L269.196 23.0251C241.053 12.0183 51.4717 22.2381 24.7916 33.3403C9.75865 39.5963 8.03462 64.5087 6.23709 82.924C-0.552113 152.497 61.4461 118.541 73.3606 152.081C92.5009 205.968 104.148 265.419 119.789 315.193C125.119 332.157 128.65 352.332 134.227 369.711C140.025 387.782 144.943 406.118 149.764 424.597L170.871 507.558C174.49 522.813 183.224 546.419 186.661 561.988C188.715 571.297 191.216 581.087 193.668 590.261C197.116 603.162 203.398 635.96 209.089 644.473C210.298 638.472 207.875 641.114 208.483 633.363C215.983 634.619 211.481 635.737 218.13 638.496C221.026 639.699 228.59 641.029 232.541 641.421C247.873 642.944 233.533 645.295 260.302 645.801C280.117 646.174 332.586 649.858 343.706 630.414C345.387 627.476 346.958 622.574 348.305 618.835C354.852 600.65 354.863 611.97 359.244 587.571C360.227 582.105 366.129 573.809 369.635 562.744C374.943 545.998 373.257 547.161 380.305 531.143C386.283 517.558 383.777 521.334 386.334 512.02C388.847 502.879 398.647 483.351 398.939 482.426L415.988 440.039C416.117 439.702 416.266 439.313 416.396 438.976L421.871 420.855C422.791 418.73 423.303 417.665 424.517 414.824C426.167 410.953 425.989 411.91 427.424 408.942C429.52 404.599 430.435 398.245 433.342 394.403C433.518 394.17 433.812 393.868 434.001 393.651L439.654 388.023C439.741 387.853 443.601 368.704 454.977 368.511L455.563 370.307C456.835 376.29 455.685 377.302 453.124 379.909L450.638 382.127C455.65 383.701 453.324 385.45 458.888 384.83C462.846 384.387 462.35 382.753 467.395 381.891L467.517 391.671C467.551 404.398 458.639 419.838 457.819 428.778L456.754 426.284C456.625 425.953 456.013 424.355 455.85 423.939C454.741 421.075 455.536 422.201 454.044 419.53L453.897 431.035C455.83 431.912 455.001 429.498 456.198 434.146C453.11 438.319 454.937 437.932 453.309 441.589C451.716 445.166 452.039 444.029 448.591 445.908C448.159 454.978 444.305 467.948 442.209 476.973C439.995 486.509 432.618 495.871 434.064 505.614C440.563 495.754 467.751 400.029 474.445 394.475C479.343 402.731 488.462 445.953 492.694 459.021C499.759 480.828 504.573 502.633 510.785 524.667C516.026 543.26 541.731 645.046 550.144 652.295L547.094 640.348C564.448 638.859 550.596 648.451 596.813 648.085C613.532 647.952 677.729 652.367 689.697 638.644C689.897 638.414 690.142 638.016 690.32 637.791C690.485 637.582 690.712 637.168 690.857 636.972C693.042 634.031 695.51 632.142 696.925 627.992C699.045 621.773 697.141 622.762 700.872 616.858C706.678 607.672 708.469 581.387 715.426 565.364L726.253 524.389C727.226 514.175 730.461 515.444 734.047 506.34C736.348 500.5 736.784 485.354 746.661 460.442L763.373 406.314C768.864 378.836 767.204 393.778 770.679 383.987C775.219 371.192 773.938 353.858 780.562 342.133C781.54 340.405 782.072 338.913 782.812 337.08C788.249 323.582 788.135 307.96 793.644 299.385C796.482 294.971 794.497 299.881 796.381 295.443C796.384 295.435 801.52 265.159 803.921 261.283C811.08 249.735 809.28 240.981 814.807 228.358C817.137 223.034 816.709 224.068 818.772 217.701C820.246 213.146 821.447 212.131 822.783 207.097C824.244 201.593 823.772 199.895 825.552 195.019L842.981 146.856L856.72 124.41C859.431 119.36 859.322 120.155 863.641 117.004C865.202 115.865 865.83 115.404 867.679 113.835L870.695 111.358C870.953 111.212 871.31 111.021 871.591 110.894C875.052 109.307 878.589 109.196 882.298 107.248C885.496 105.568 887.514 103.539 891.749 102.656C896.373 101.694 898.727 102.044 902.525 100.579C905.739 97.5026 910.976 42.2513 912.428 36.2709L913.09 34.1723C913.183 33.8252 913.337 33.4649 913.424 33.1072C913.515 32.7283 913.642 32.3653 913.722 31.9678C915.237 24.4612 914.464 15.5503 913.6 7.21968L925.216 10.1847C922.369 17.323 922.815 10.7385 921.463 16.7162L923.588 18.4729C927.793 19.7103 924.684 12.9828 931.297 14.7183C935.645 15.8603 935.44 18.7299 937.326 23.0728L941.768 21.9838C930.555 -8.9461 831.45 1.65797 799.827 2.12962C779.816 2.42903 717.003 7.24087 698.493 11.8831C680.557 16.3797 671.429 18.3457 667.857 38.4463C657.909 94.429 662.68 105.661 701.25 112.614C719.014 115.817 733.771 114.681 728.077 140.258C726.34 148.061 724.647 155.714 722.883 164.333C721.014 173.469 718.747 177.955 716.856 187.841C704.291 253.562 685.003 312.061 669.919 375.233C667.393 385.813 646.502 461.329 642.698 464.684C635.367 454.692 603.455 318.09 594.574 286.026C583.446 245.832 567.106 152.351 558.091 125.78C548.605 97.8153 516.249 102.031 486.956 101.676C469.342 101.464 445.317 101.761 432.845 109.874C419.24 118.727 418.024 135.128 411.108 153.435C399.242 184.829 389.889 219.113 379.106 251.725L323.095 423.916C318.901 432.816 317.451 442.069 311.749 446.284C304.922 435.876 258.818 209.677 250.497 166.509C245.795 142.11 245 132.979 261.039 125.404C276.772 117.974 289.829 120.203 297.578 106.48H297.582Z" fill="#FFF215"/>
<path fill-rule="evenodd" clip-rule="evenodd" d="M550.144 652.3C562.657 688.572 688.663 680.175 715.125 672.191C731.599 667.221 739.157 651.219 744.213 633.278L773.871 526.972C783.168 489.106 806.828 407.551 819.671 367.519C825.447 349.52 829.488 332.22 834.885 313.882C850.989 259.157 864.788 209.751 882.839 156.818C890.655 133.896 890.956 127.227 913.602 120.176C937.85 112.624 940.808 111.692 944.795 83.3902C947.212 66.2387 951.88 34.2728 941.77 21.9809L937.329 23.0699C935.442 18.7271 935.647 15.8574 931.299 14.7154C924.686 12.9799 927.795 19.7074 923.59 18.47L921.465 16.7133C922.817 10.7356 922.372 17.3227 925.218 10.1818L913.602 7.2168C914.466 15.5474 915.237 24.4583 913.725 31.9649C913.644 32.3624 913.517 32.728 913.426 33.1043C913.339 33.462 913.183 33.8224 913.092 34.1695L912.43 36.268C910.978 42.2484 905.742 97.4998 902.527 100.576C898.73 102.041 896.375 101.692 891.751 102.653C887.514 103.536 885.499 105.565 882.3 107.245C878.589 109.193 875.052 109.304 871.593 110.891C871.314 111.018 870.958 111.209 870.697 111.355L867.681 113.832C865.833 115.401 865.205 115.862 863.643 117.001C859.324 120.152 859.431 119.357 856.723 124.407L842.984 146.853L825.554 195.016C823.777 199.892 824.247 201.59 822.785 207.094C821.449 212.131 820.248 213.143 818.774 217.698C816.713 224.065 817.141 223.032 814.809 228.355C809.283 240.978 811.083 249.733 803.924 261.28C801.52 265.156 796.386 295.432 796.384 295.44C794.499 299.881 796.484 294.968 793.646 299.382C788.136 307.957 788.249 323.579 782.814 337.077C782.075 338.913 781.54 340.402 780.565 342.13C773.94 353.855 775.223 371.189 770.681 383.985C767.207 393.775 768.868 378.833 763.375 406.311L746.663 460.439C736.787 485.351 736.352 500.497 734.049 506.337C730.461 515.438 727.227 514.172 726.255 524.386L715.428 565.361C708.472 581.387 706.681 607.672 700.874 616.855C697.143 622.756 699.047 621.771 696.927 627.989C695.512 632.141 693.047 634.028 690.859 636.969C690.715 637.165 690.487 637.579 690.323 637.788C690.144 638.013 689.899 638.411 689.699 638.641C677.729 652.364 613.534 647.949 596.815 648.082C550.598 648.448 564.451 638.858 547.097 640.345L550.146 652.292L550.144 652.3Z" fill="#FFCC2A"/>
<path fill-rule="evenodd" clip-rule="evenodd" d="M209.086 644.479C211.227 656.196 224.244 666.996 235.653 671.739C247.614 676.71 266.552 679.349 281.135 679.8C309.211 680.666 356.533 680.33 375.257 667.057C387.107 658.658 386.922 646.636 393.121 631.287C398.382 618.258 401.708 602.503 406.517 588.921L420.799 547.612C423.757 537.609 433.529 513.59 434.065 505.62C432.62 495.877 439.997 486.515 442.211 476.979C444.307 467.954 448.161 454.981 448.593 445.914C452.039 444.035 451.718 445.172 453.31 441.595C454.939 437.939 453.112 438.323 456.199 434.152C455.003 429.505 455.832 431.918 453.899 431.041L454.045 419.536C455.538 422.207 454.743 421.081 455.852 423.945C456.012 424.362 456.627 425.962 456.756 426.29L457.821 428.784C458.643 419.844 467.555 404.407 467.519 391.678L467.397 381.898C462.352 382.759 462.848 384.396 458.89 384.836C453.326 385.456 455.651 383.707 450.64 382.133L453.126 379.916C455.687 377.311 456.836 376.296 455.565 370.313L454.979 368.517C443.603 368.713 439.741 387.859 439.656 388.029L434.003 393.657C433.814 393.872 433.52 394.176 433.344 394.409C430.437 398.251 429.522 404.605 427.426 408.948C425.991 411.916 426.171 410.959 424.519 414.831C423.307 417.671 422.795 418.739 421.873 420.861L416.398 438.983C416.268 439.319 416.119 439.709 415.99 440.045L398.941 482.432C398.649 483.357 388.846 502.885 386.336 512.027C383.779 521.338 386.285 517.562 380.307 531.149C373.259 547.164 374.945 546.004 369.637 562.75C366.131 573.815 360.226 582.108 359.246 587.577C354.865 611.973 354.854 600.656 348.307 618.841C346.962 622.58 345.389 627.479 343.708 630.42C332.588 649.866 280.121 646.183 260.304 645.807C233.535 645.301 247.875 642.951 232.543 641.427C228.592 641.035 221.028 639.705 218.132 638.502C211.483 635.743 215.985 634.625 208.485 633.369C207.877 641.117 210.298 638.478 209.091 644.479H209.086Z" fill="#FFCC2A"/>
<path fill-rule="evenodd" clip-rule="evenodd" d="M297.581 106.481C304.341 90.4898 302.276 71.1073 299.256 53.1344C296.507 36.7858 286.326 24.7641 269.199 23.0312L272.42 25.2649L269.266 27.1197C269.043 27.2814 268.689 27.5463 268.457 27.7186C267.335 28.5612 266.983 29.258 264.517 30.8849C264.769 48.9532 267.983 84.8247 264.118 102.289C261.577 104.16 260.387 104.43 258.071 105.813C252.277 109.276 253.881 106.47 253.102 112.702L255.173 113.86C263.002 117.09 264.853 115.235 270.533 115.082C277.732 114.888 270.611 116.221 277.006 115.749C285.232 115.143 290.738 105.789 297.586 106.486L297.581 106.481Z" fill="#FFCC2A"/>
<path fill-rule="evenodd" clip-rule="evenodd" d="M0 887.334C8.70702 892.805 201.825 904.652 214.189 887.334C191.59 871.677 62.5818 877.207 23.0093 881.817C9.58239 883.38 7.13 879.819 0 887.334Z" fill="#E6E7E8"/>
<path fill-rule="evenodd" clip-rule="evenodd" d="M64.3696 823.815C75.0301 833.407 144.112 833.436 160.964 827.832C152.362 820.667 77.0125 817.482 64.3696 823.815Z" fill="#E6E7E8"/>
<path fill-rule="evenodd" clip-rule="evenodd" d="M59.5908 778.622C69.7546 781.455 155.791 780.461 168.432 778.204C163.171 774.433 152.936 775.324 143.754 774.961C133.798 774.568 124.168 774.02 114.176 773.927L72.3985 774.325C70.4362 774.404 67.957 774.407 66.1951 774.876C54.196 778.061 64.235 774.354 59.5908 778.62V778.622Z" fill="#E6E7E8"/>
<path fill-rule="evenodd" clip-rule="evenodd" d="M241.388 901.555C266.409 911.309 285.475 927.384 327.449 913.577C349.082 906.46 369.097 893.15 381.856 874.351C384.997 869.722 385.03 868.603 388.585 865.821C389.078 862.234 388.267 866.073 389.247 862.962L398.9 837.605C402.85 825.965 403.099 814.982 402.908 801.492C402.587 779.01 392.421 756.137 382.972 741.228C361.863 707.908 316.203 693.416 275.307 706.877C202.174 730.949 169.101 836.966 236.644 896.412L241.388 901.552V901.555Z" fill="#373535"/>
<path fill-rule="evenodd" clip-rule="evenodd" d="M565.243 893.424C581.615 902.136 594.645 920.417 634.548 917.987C698.446 914.097 747.527 843.613 729.786 780.521C723.954 759.779 718.375 755.354 715.316 746.067L712.24 743.02C695.327 722.365 675.41 705.344 647.228 703.251C615.472 700.892 587.847 710.664 565.704 732.029C548.867 748.274 531.435 777.675 531.56 812.492C531.623 829.675 535.939 847.11 541.419 859.898C544.265 866.541 547.731 872.166 551.93 877.5C554.937 881.318 563.6 890.377 565.243 893.422V893.424Z" fill="#373535"/>
<path fill-rule="evenodd" clip-rule="evenodd" d="M298.785 771.468C283.349 778.058 286.677 774.412 275.126 786.23C266.857 794.688 262.22 812.509 266.793 824.483C267.864 827.289 267.091 824.78 268.374 828.148C274.433 844.081 291.415 853.842 308.74 852.446C326.575 851.007 344.229 828.932 340.63 806.02C337.703 787.388 330.967 775.536 315.193 771.331C310.138 769.985 303.886 769.29 298.788 771.468H298.785Z" fill="white"/>
<path fill-rule="evenodd" clip-rule="evenodd" d="M626.544 852.286C632.905 852.267 635.389 853.232 641.007 851.054C654.895 845.667 661.503 841.788 667.783 824.914C672.785 811.47 670.373 794.599 661.682 783.388L652.772 774.87C636.837 773.166 632.531 769.66 617.939 776.939C606.649 782.572 603.359 791.417 599.296 799.819C591.834 815.251 600.944 835.762 614.07 844.013C617.552 846.202 623.695 848.735 626.544 852.288V852.286Z" fill="white"/>
<path fill-rule="evenodd" clip-rule="evenodd" d="M301.298 794.676C292.55 797.845 283.908 801.859 285.715 814.957C286.879 823.412 296.502 832.694 307.287 830.563C330.833 825.908 320.656 787.662 301.298 794.676Z" fill="#373535"/>
<path fill-rule="evenodd" clip-rule="evenodd" d="M627.019 795.837C619.294 798.932 614.416 808.959 617.753 818.113C628.623 847.941 665.687 813.633 639.735 797.432C634.699 794.287 633.015 793.434 627.019 795.837Z" fill="#373535"/>
<path fill-rule="evenodd" clip-rule="evenodd" d="M626.544 852.287C623.695 848.734 617.552 846.201 614.07 844.012C600.944 835.758 591.834 815.247 599.296 799.818C603.359 791.416 606.649 782.571 617.939 776.938C632.529 769.659 636.835 773.164 652.772 774.868C647.729 766.026 625.04 770.025 617.743 774.023C611.687 777.34 609.21 779.701 605.179 784.007C581.292 809.534 600.011 850.808 626.544 852.284V852.287Z" fill="white"/>
<path fill-rule="evenodd" clip-rule="evenodd" d="M449.958 891.719C454.188 895.508 547.994 903.708 553.999 891.719C543.022 880.879 480.356 884.708 461.133 887.898C454.611 888.981 453.42 886.515 449.956 891.719H449.958Z" fill="#E6E7E8"/>
<path fill-rule="evenodd" clip-rule="evenodd" d="M472.584 853.046C477.763 859.689 511.319 859.708 519.505 855.829C515.326 850.868 478.725 848.664 472.584 853.046Z" fill="#E6E7E8"/>
<path fill-rule="evenodd" clip-rule="evenodd" d="M470.264 821.755C475.202 823.716 516.993 823.03 523.132 821.467C520.577 818.854 515.603 819.471 511.146 819.222C506.311 818.952 501.633 818.57 496.779 818.507L476.485 818.782C475.532 818.838 474.327 818.841 473.472 819.164C467.642 821.368 472.521 818.804 470.264 821.758V821.755Z" fill="#E6E7E8"/>
</svg>
