<svg width="948" height="866" viewBox="0 0 948 866" fill="none" xmlns="http://www.w3.org/2000/svg">
<path fill-rule="evenodd" clip-rule="evenodd" d="M297.926 100.708C291.093 100.055 285.598 108.86 277.388 109.43C271.006 109.874 278.114 108.62 270.928 108.802C265.26 108.945 263.413 110.694 255.598 107.653L253.53 106.564C254.309 100.698 252.707 103.339 258.491 100.079C260.801 98.776 261.99 98.5206 264.526 96.7609C268.383 80.3209 265.177 46.5529 264.924 29.5446C267.387 28.0115 267.737 27.3558 268.859 26.5629C269.089 26.3997 269.443 26.1501 269.666 25.9974L272.813 24.2521L269.598 22.1507C241.509 11.7894 52.2998 21.4096 25.6713 31.8601C10.6665 37.7488 8.94619 61.2006 7.15195 78.5363C0.375312 144.029 62.2521 112.064 74.1436 143.639C93.2457 194.364 104.87 250.332 120.48 297.189C125.8 313.158 129.323 332.149 134.89 348.509C140.676 365.521 145.584 382.781 150.395 400.177L171.461 478.275C175.073 492.635 183.79 514.857 187.22 529.513C189.272 538.275 191.766 547.492 194.214 556.129C197.655 568.272 203.924 599.147 209.603 607.161C210.809 601.514 208.393 603.999 209 596.704C216.484 597.886 211.991 598.938 218.627 601.535C221.518 602.666 229.067 603.919 233.011 604.289C248.315 605.723 234.001 607.936 260.718 608.412C280.496 608.764 332.86 612.231 343.957 593.927C345.635 591.159 347.204 586.545 348.547 583.027C355.081 565.909 355.092 576.564 359.465 553.597C360.445 548.45 366.337 540.642 369.837 530.226C375.134 514.463 373.451 515.555 380.485 500.479C386.453 487.689 383.95 491.243 386.504 482.478C389.01 473.872 398.794 455.488 399.085 454.619L416.1 414.717C416.229 414.4 416.379 414.034 416.507 413.717L421.973 396.658C422.891 394.66 423.402 393.655 424.613 390.98C426.261 387.336 426.083 388.236 427.514 385.442C429.606 381.354 430.52 375.372 433.421 371.755C433.596 371.535 433.889 371.25 434.079 371.046L439.721 365.748C439.808 365.589 443.661 347.564 455.014 347.38L455.599 349.07C456.868 354.702 455.722 355.656 453.164 358.108L450.683 360.197C455.684 361.68 453.365 363.326 458.918 362.741C462.869 362.326 462.372 360.785 467.408 359.974L467.53 369.182C467.564 381.163 458.669 395.696 457.85 404.112L456.788 401.765C456.659 401.453 456.047 399.95 455.886 399.556C454.78 396.86 455.571 397.921 454.083 395.405L453.936 406.236C455.866 407.063 455.04 404.788 456.233 409.164C453.152 413.093 454.975 412.729 453.349 416.173C451.76 419.541 452.081 418.47 448.642 420.239C448.211 428.777 444.364 440.987 442.272 449.483C440.062 458.46 432.699 467.272 434.142 476.445C440.628 467.163 467.763 377.05 474.444 371.823C479.334 379.595 488.434 420.285 492.658 432.585C499.708 453.114 504.514 473.64 510.712 494.381C515.942 511.885 541.596 607.701 549.994 614.525L546.951 603.279C564.271 601.878 550.445 610.906 596.572 610.562C613.258 610.437 677.329 614.593 689.275 601.674C689.476 601.457 689.72 601.084 689.897 600.87C690.061 600.674 690.289 600.284 690.433 600.1C692.614 597.331 695.076 595.553 696.488 591.646C698.603 585.792 696.704 586.721 700.427 581.165C706.223 572.519 708.01 547.776 714.952 532.69L725.759 494.119C726.73 484.503 729.957 485.697 733.537 477.128C735.834 471.629 736.269 457.373 746.126 433.92L762.804 382.965C768.285 357.099 766.628 371.163 770.095 361.947C774.626 349.901 773.347 333.583 779.958 322.547C780.933 320.919 781.466 319.517 782.203 317.789C787.629 305.083 787.517 290.376 793.016 282.305C795.848 278.148 793.866 282.772 795.748 278.593C795.75 278.587 800.876 250.085 803.274 246.436C810.42 235.566 808.622 227.325 814.139 215.442C816.464 210.432 816.037 211.404 818.095 205.41C819.566 201.122 820.763 200.168 822.098 195.426C823.556 190.246 823.087 188.646 824.861 184.057L842.257 138.717L855.969 117.587C858.674 112.832 858.566 113.581 862.877 110.615C864.434 109.542 865.062 109.108 866.907 107.633L869.917 105.3C870.176 105.163 870.532 104.984 870.81 104.863C874.263 103.37 877.794 103.265 881.497 101.431C884.689 99.8502 886.703 97.9398 890.93 97.1094C895.545 96.2032 897.894 96.5315 901.685 95.1539C904.893 92.2576 910.119 40.2448 911.569 34.6153L912.229 32.6397C912.322 32.3133 912.477 31.9734 912.563 31.6365C912.655 31.2813 912.782 30.9366 912.862 30.5632C914.373 23.4966 913.602 15.1081 912.74 7.2659L924.333 10.0566C921.493 16.7785 921.937 10.5779 920.587 16.2054L922.708 17.8585C926.906 19.023 923.801 12.6899 930.402 14.3238C934.741 15.3981 934.537 18.1005 936.419 22.1881L940.852 21.1638C929.661 -7.95298 830.75 2.0291 799.188 2.47454C779.216 2.75678 716.527 7.28606 698.053 11.656C680.152 15.8896 671.043 17.7385 667.478 36.6611C657.551 89.3622 662.312 99.9337 700.807 106.481C718.536 109.496 733.263 108.426 727.581 132.506C725.847 139.85 724.157 147.056 722.397 155.169C720.531 163.769 718.268 167.993 716.382 177.299C703.841 239.165 684.591 294.238 669.537 353.704C667.016 363.663 646.166 434.752 642.369 437.91C635.053 428.505 603.203 299.912 594.34 269.727C583.232 231.892 566.925 143.89 557.929 118.878C548.459 92.5523 516.168 96.5209 486.933 96.1878C469.353 95.9881 445.375 96.2665 432.927 103.906C419.35 112.24 418.137 127.681 411.231 144.913C399.39 174.466 390.057 206.74 379.294 237.439L323.392 399.533C319.206 407.91 317.76 416.621 312.067 420.59C305.252 410.791 259.24 197.856 250.935 157.219C246.241 134.252 245.449 125.654 261.458 118.524C277.16 111.531 290.192 113.627 297.925 100.709L297.926 100.708Z" fill="white"/>
<path fill-rule="evenodd" clip-rule="evenodd" d="M549.994 614.524C562.483 648.668 688.243 640.763 714.652 633.248C731.093 628.569 738.637 613.506 743.683 596.617L773.284 496.544C782.564 460.899 806.177 384.123 818.995 346.441C824.759 329.498 828.794 313.21 834.178 295.948C850.251 244.431 864.022 197.924 882.038 148.093C889.839 126.515 890.139 120.237 912.74 113.599C936.94 106.491 939.893 105.612 943.872 78.9704C946.283 62.8241 950.945 32.7339 940.854 21.1611L936.421 22.1854C934.539 18.0977 934.743 15.3944 930.404 14.3211C923.803 12.6872 926.908 19.0203 922.71 17.8558L920.589 16.2027C921.939 10.5761 921.495 16.7758 924.335 10.0539L912.742 7.26318C913.604 15.1054 914.375 23.4939 912.864 30.5605C912.784 30.9339 912.657 31.2785 912.565 31.6337C912.478 31.9717 912.323 32.3105 912.231 32.6369L911.571 34.6126C910.12 40.2421 904.894 92.2549 901.687 95.1512C897.897 96.5297 895.547 96.2005 890.932 97.1067C886.705 97.9371 884.691 99.8475 881.499 101.429C877.796 103.262 874.265 103.368 870.812 104.861C870.534 104.982 870.177 105.16 869.919 105.297L866.909 107.63C865.063 109.106 864.437 109.54 862.879 110.612C858.567 113.578 858.676 112.831 855.97 117.584L842.259 138.714L824.863 184.054C823.088 188.644 823.558 190.244 822.1 195.423C820.765 200.165 819.567 201.119 818.096 205.407C816.039 211.4 816.466 210.428 814.14 215.439C808.624 227.322 810.421 235.564 803.276 246.434C800.878 250.083 795.751 278.583 795.75 278.59C793.868 282.77 795.849 278.145 793.017 282.302C787.519 290.373 787.631 305.08 782.205 317.787C781.467 319.515 780.934 320.916 779.96 322.544C773.349 333.581 774.628 349.899 770.096 361.944C766.63 371.161 768.287 357.095 762.806 382.962L746.128 433.917C736.271 457.37 735.836 471.627 733.539 477.126C729.958 485.695 726.731 484.5 725.761 494.117L714.954 532.688C708.01 547.773 706.224 572.517 700.429 581.163C696.705 586.718 698.605 585.789 696.489 591.643C695.078 595.55 692.616 597.327 690.435 600.098C690.291 600.281 690.063 600.671 689.899 600.868C689.721 601.081 689.478 601.454 689.277 601.671C677.332 614.59 613.26 610.434 596.574 610.559C550.447 610.904 564.272 601.875 546.953 603.276L549.996 614.523L549.994 614.524Z" fill="#D2D4D5"/>
<path fill-rule="evenodd" clip-rule="evenodd" d="M209.604 607.162C211.742 618.193 224.733 628.361 236.119 632.824C248.057 637.504 266.957 639.988 281.51 640.412C309.532 641.227 356.762 640.91 375.447 628.417C387.275 620.51 387.089 609.192 393.276 594.744C398.529 582.478 401.847 567.647 406.645 554.861L420.9 515.975C423.851 506.558 433.606 483.947 434.14 476.443C432.697 467.271 440.06 458.458 442.27 449.481C444.362 440.985 448.209 428.775 448.64 420.237C452.079 418.468 451.758 419.539 453.347 416.171C454.973 412.728 453.15 413.091 456.231 409.162C455.038 404.787 455.864 407.062 453.934 406.234L454.081 395.403C455.569 397.919 454.778 396.858 455.884 399.554C456.045 399.947 456.657 401.451 456.786 401.763L457.848 404.11C458.667 395.694 467.562 381.161 467.528 369.18L467.406 359.972C462.371 360.784 462.867 362.324 458.916 362.739C453.363 363.324 455.683 361.677 450.682 360.195L453.162 358.106C455.719 355.654 456.866 354.7 455.597 349.068L455.012 347.377C443.659 347.562 439.806 365.587 439.719 365.746L434.077 371.044C433.887 371.247 433.594 371.533 433.419 371.753C430.518 375.37 429.604 381.351 427.512 385.44C426.081 388.234 426.259 387.334 424.611 390.978C423.4 393.653 422.89 394.657 421.971 396.656L416.506 413.715C416.377 414.032 416.227 414.398 416.098 414.715L399.083 454.617C398.792 455.487 389.009 473.871 386.502 482.476C383.948 491.241 386.45 487.687 380.483 500.477C373.451 515.553 375.132 514.462 369.835 530.224C366.335 540.64 360.443 548.448 359.463 553.595C355.091 576.562 355.079 565.907 348.545 583.025C347.201 586.544 345.633 591.157 343.955 593.925C332.858 612.229 280.494 608.762 260.716 608.41C233.999 607.934 248.313 605.721 233.009 604.287C229.066 603.917 221.516 602.664 218.626 601.533C211.989 598.936 216.482 597.885 208.998 596.702C208.39 603.996 210.807 601.511 209.602 607.159L209.604 607.162Z" fill="#D2D4D5"/>
<path fill-rule="evenodd" clip-rule="evenodd" d="M297.926 100.709C304.673 85.6549 302.613 67.4082 299.598 50.4901C296.854 35.0994 286.692 23.7839 269.599 22.1519L272.814 24.2533L269.667 25.9986C269.444 26.1512 269.09 26.3999 268.859 26.564C267.738 27.357 267.388 28.0127 264.925 29.5458C265.178 46.5531 268.384 80.3211 264.527 96.7621C261.991 98.5218 260.802 98.7771 258.491 100.08C252.708 103.34 254.31 100.699 253.531 106.565L255.599 107.654C263.413 110.696 265.261 108.946 270.929 108.803C278.115 108.622 271.007 109.875 277.389 109.431C285.599 108.861 291.094 100.055 297.927 100.71L297.926 100.709Z" fill="#D2D4D5"/>
<path fill-rule="evenodd" clip-rule="evenodd" d="M241.844 849.164C266.816 858.346 285.846 873.48 327.735 860.481C349.326 853.782 369.302 841.253 382.035 823.556C385.169 819.199 385.203 818.146 388.752 815.527C389.242 812.15 388.434 815.766 389.411 812.838L399.047 788.967C402.989 778.009 403.237 767.671 403.046 754.971C402.727 733.807 392.579 712.277 383.15 698.239C362.082 666.872 316.511 653.232 275.697 665.903C202.707 688.563 169.7 788.365 237.11 844.324L241.845 849.162L241.844 849.164Z" fill="#373535"/>
<path fill-rule="evenodd" clip-rule="evenodd" d="M565.064 841.512C581.404 849.714 594.41 866.923 634.233 864.636C698.007 860.975 746.992 794.622 729.286 735.23C723.466 715.707 717.897 711.539 714.845 702.796L711.775 699.929C694.895 680.485 675.016 664.461 646.889 662.491C615.196 660.27 587.625 669.47 565.525 689.58C548.721 704.872 531.323 732.55 531.449 765.327C531.512 781.503 535.819 797.913 541.287 809.953C544.127 816.207 547.588 821.503 551.777 826.523C554.777 830.117 563.424 838.646 565.064 841.512Z" fill="#373535"/>
<path fill-rule="evenodd" clip-rule="evenodd" d="M299.126 726.705C283.72 732.908 287.041 729.477 275.512 740.6C267.26 748.562 262.631 765.338 267.196 776.613C268.266 779.254 267.494 776.891 268.773 780.063C274.82 795.061 291.769 804.25 309.06 802.936C326.86 801.582 344.481 780.8 340.887 759.232C337.965 741.693 331.243 730.535 315.498 726.576C310.456 725.309 304.215 724.656 299.126 726.705Z" fill="white"/>
<path fill-rule="evenodd" clip-rule="evenodd" d="M626.246 802.784C632.596 802.767 635.073 803.675 640.681 801.623C654.542 796.554 661.136 792.9 667.404 777.017C672.398 764.361 669.99 748.48 661.315 737.925L652.424 729.906C636.52 728.302 632.222 725.002 617.66 731.853C606.391 737.157 603.106 745.482 599.051 753.391C591.605 767.917 600.696 787.225 613.797 794.995C617.272 797.055 623.403 799.44 626.247 802.784H626.246Z" fill="white"/>
<path fill-rule="evenodd" clip-rule="evenodd" d="M301.636 748.554C292.905 751.538 284.281 755.316 286.083 767.646C287.245 775.605 296.85 784.345 307.613 782.338C331.113 777.957 320.955 741.952 301.636 748.554Z" fill="#373535"/>
<path fill-rule="evenodd" clip-rule="evenodd" d="M626.72 749.645C619.01 752.558 614.141 761.999 617.47 770.617C628.319 798.697 665.311 766.399 639.411 751.148C634.385 748.188 632.702 747.385 626.72 749.645Z" fill="#373535"/>
<path fill-rule="evenodd" clip-rule="evenodd" d="M626.246 802.784C623.402 799.441 617.272 797.056 613.796 794.995C600.695 787.225 591.604 767.918 599.05 753.391C603.105 745.482 606.39 737.156 617.659 731.854C632.221 725.002 636.518 728.303 652.424 729.906C647.39 721.584 624.746 725.347 617.462 729.111C611.418 732.235 608.945 734.455 604.922 738.51C581.082 762.54 599.763 801.393 626.246 802.783V802.784Z" fill="#D38F70"/>
<path fill-rule="evenodd" clip-rule="evenodd" d="M297.926 100.708C291.093 100.055 285.598 108.86 277.388 109.43C271.006 109.874 278.114 108.62 270.928 108.802C265.26 108.945 263.413 110.694 255.598 107.653L253.53 106.564C254.309 100.698 252.707 103.339 258.491 100.079C260.801 98.776 261.99 98.5206 264.526 96.7609C268.383 80.3209 265.177 46.5529 264.924 29.5446C267.387 28.0115 267.737 27.3558 268.859 26.5629C269.089 26.3997 269.443 26.1501 269.666 25.9974L272.813 24.2521L269.598 22.1507C241.509 11.7894 52.2998 21.4096 25.6713 31.8601C10.6665 37.7488 8.94619 61.2006 7.15195 78.5363C0.375312 144.029 62.2521 112.064 74.1436 143.639C93.2457 194.364 104.87 250.332 120.48 297.189C125.8 313.158 129.323 332.149 134.89 348.509C140.676 365.521 145.584 382.781 150.395 400.177L171.461 478.275C175.073 492.635 183.79 514.857 187.22 529.513C189.272 538.275 191.766 547.492 194.214 556.129C197.655 568.272 203.924 599.147 209.603 607.161C210.809 601.514 208.393 603.999 209 596.704C216.484 597.886 211.991 598.938 218.627 601.535C221.518 602.666 229.067 603.919 233.011 604.289C248.315 605.723 234.001 607.936 260.718 608.412C280.496 608.764 332.86 612.231 343.957 593.927C345.635 591.159 347.204 586.545 348.547 583.027C355.081 565.909 355.092 576.564 359.465 553.597C360.445 548.45 366.337 540.642 369.837 530.226C375.134 514.463 373.451 515.555 380.485 500.479C386.453 487.689 383.95 491.243 386.504 482.478C389.01 473.872 398.794 455.488 399.085 454.619L416.1 414.717C416.229 414.4 416.379 414.034 416.507 413.717L421.973 396.658C422.891 394.66 423.402 393.655 424.613 390.98C426.261 387.336 426.083 388.236 427.514 385.442C429.606 381.354 430.52 375.372 433.421 371.755C433.596 371.535 433.889 371.25 434.079 371.046L439.721 365.748C439.808 365.589 443.661 347.564 455.014 347.38L455.599 349.07C456.868 354.702 455.722 355.656 453.164 358.108L450.683 360.197C455.684 361.68 453.365 363.326 458.918 362.741C462.869 362.326 462.372 360.785 467.408 359.974L467.53 369.182C467.564 381.163 458.669 395.696 457.85 404.112L456.788 401.765C456.659 401.453 456.047 399.95 455.886 399.556C454.78 396.86 455.571 397.921 454.083 395.405L453.936 406.236C455.866 407.063 455.04 404.788 456.233 409.164C453.152 413.093 454.975 412.729 453.349 416.173C451.76 419.541 452.081 418.47 448.642 420.239C448.211 428.777 444.364 440.987 442.272 449.483C440.062 458.46 432.699 467.272 434.142 476.445C440.628 467.163 467.763 377.05 474.444 371.823C479.334 379.595 488.434 420.285 492.658 432.585C499.708 453.114 504.514 473.64 510.712 494.381C515.942 511.885 541.596 607.701 549.994 614.525L546.951 603.279C564.271 601.878 550.445 610.906 596.572 610.562C613.258 610.437 677.329 614.593 689.275 601.674C689.476 601.457 689.72 601.084 689.897 600.87C690.061 600.674 690.289 600.284 690.433 600.1C692.614 597.331 695.076 595.553 696.488 591.646C698.603 585.792 696.704 586.721 700.427 581.165C706.223 572.519 708.01 547.776 714.952 532.69L725.759 494.119C726.73 484.503 729.957 485.697 733.537 477.128C735.834 471.629 736.269 457.373 746.126 433.92L762.804 382.965C768.285 357.099 766.628 371.163 770.095 361.947C774.626 349.901 773.347 333.583 779.958 322.547C780.933 320.919 781.466 319.517 782.203 317.789C787.629 305.083 787.517 290.376 793.016 282.305C795.848 278.148 793.866 282.772 795.748 278.593C795.75 278.587 800.876 250.085 803.274 246.436C810.42 235.566 808.622 227.325 814.139 215.442C816.464 210.432 816.037 211.404 818.095 205.41C819.566 201.122 820.763 200.168 822.098 195.426C823.556 190.246 823.087 188.646 824.861 184.057L842.257 138.717L855.969 117.587C858.674 112.832 858.566 113.581 862.877 110.615C864.434 109.542 865.062 109.108 866.907 107.633L869.917 105.3C870.176 105.163 870.532 104.984 870.81 104.863C874.263 103.37 877.794 103.265 881.497 101.431C884.689 99.8502 886.703 97.9398 890.93 97.1094C895.545 96.2032 897.894 96.5315 901.685 95.1539C904.893 92.2576 910.119 40.2448 911.569 34.6153L912.229 32.6397C912.322 32.3133 912.477 31.9734 912.563 31.6365C912.655 31.2813 912.782 30.9366 912.862 30.5632C914.373 23.4966 913.602 15.1081 912.74 7.2659L924.333 10.0566C921.493 16.7785 921.937 10.5779 920.587 16.2054L922.708 17.8585C926.906 19.023 923.801 12.6899 930.402 14.3238C934.741 15.3981 934.537 18.1005 936.419 22.1881L940.852 21.1638C929.661 -7.95298 830.75 2.0291 799.188 2.47454C779.216 2.75678 716.527 7.28606 698.053 11.656C680.152 15.8896 671.043 17.7385 667.478 36.6611C657.551 89.3622 662.312 99.9337 700.807 106.481C718.536 109.496 733.263 108.426 727.581 132.506C725.847 139.85 724.157 147.056 722.397 155.169C720.531 163.769 718.268 167.993 716.382 177.299C703.841 239.165 684.591 294.238 669.537 353.704C667.016 363.663 646.166 434.752 642.369 437.91C635.053 428.505 603.203 299.912 594.34 269.727C583.232 231.892 566.925 143.89 557.929 118.878C548.459 92.5523 516.168 96.5209 486.933 96.1878C469.353 95.9881 445.375 96.2665 432.927 103.906C419.35 112.24 418.137 127.681 411.231 144.913C399.39 174.466 390.057 206.74 379.294 237.439L323.392 399.533C319.206 407.91 317.76 416.621 312.067 420.59C305.252 410.791 259.24 197.856 250.935 157.219C246.241 134.252 245.449 125.654 261.458 118.524C277.16 111.531 290.192 113.627 297.925 100.709L297.926 100.708Z" fill="#FFF215"/>
<path fill-rule="evenodd" clip-rule="evenodd" d="M549.994 614.524C562.483 648.668 688.243 640.763 714.652 633.248C731.093 628.569 738.637 613.506 743.683 596.617L773.284 496.544C782.564 460.899 806.177 384.123 818.995 346.441C824.759 329.498 828.794 313.21 834.178 295.948C850.251 244.431 864.022 197.924 882.038 148.093C889.839 126.515 890.139 120.237 912.74 113.599C936.94 106.491 939.893 105.612 943.872 78.9704C946.283 62.8241 950.945 32.7339 940.854 21.1611L936.421 22.1854C934.539 18.0977 934.743 15.3944 930.404 14.3211C923.803 12.6872 926.908 19.0203 922.71 17.8558L920.589 16.2027C921.939 10.5761 921.495 16.7758 924.335 10.0539L912.742 7.26318C913.604 15.1054 914.375 23.4939 912.864 30.5605C912.784 30.9339 912.657 31.2785 912.565 31.6337C912.478 31.9717 912.323 32.3105 912.231 32.6369L911.571 34.6126C910.12 40.2421 904.894 92.2549 901.687 95.1512C897.897 96.5297 895.547 96.2005 890.932 97.1067C886.705 97.9371 884.691 99.8475 881.499 101.429C877.796 103.262 874.265 103.368 870.812 104.861C870.534 104.982 870.177 105.16 869.919 105.297L866.909 107.63C865.063 109.106 864.437 109.54 862.879 110.612C858.567 113.578 858.676 112.831 855.97 117.584L842.259 138.714L824.863 184.054C823.088 188.644 823.558 190.244 822.1 195.423C820.765 200.165 819.567 201.119 818.096 205.407C816.039 211.4 816.466 210.428 814.14 215.439C808.624 227.322 810.421 235.564 803.276 246.434C800.878 250.083 795.751 278.583 795.75 278.59C793.868 282.77 795.849 278.145 793.017 282.302C787.519 290.373 787.631 305.08 782.205 317.787C781.467 319.515 780.934 320.916 779.96 322.544C773.349 333.581 774.628 349.899 770.096 361.944C766.63 371.161 768.287 357.095 762.806 382.962L746.128 433.917C736.271 457.37 735.836 471.627 733.539 477.126C729.958 485.695 726.731 484.5 725.761 494.117L714.954 532.688C708.01 547.773 706.224 572.517 700.429 581.163C696.705 586.718 698.605 585.789 696.489 591.643C695.078 595.55 692.616 597.327 690.435 600.098C690.291 600.281 690.063 600.671 689.899 600.868C689.721 601.081 689.478 601.454 689.277 601.671C677.332 614.59 613.26 610.434 596.574 610.559C550.447 610.904 564.272 601.875 546.953 603.276L549.996 614.523L549.994 614.524Z" fill="#FFCC2A"/>
<path fill-rule="evenodd" clip-rule="evenodd" d="M209.604 607.162C211.742 618.193 224.733 628.361 236.119 632.824C248.057 637.504 266.957 639.988 281.51 640.412C309.532 641.227 356.762 640.91 375.447 628.417C387.275 620.51 387.089 609.192 393.276 594.744C398.529 582.478 401.847 567.647 406.645 554.861L420.9 515.975C423.851 506.558 433.606 483.947 434.14 476.443C432.697 467.271 440.06 458.458 442.27 449.481C444.362 440.985 448.209 428.775 448.64 420.237C452.079 418.468 451.758 419.539 453.347 416.171C454.973 412.728 453.15 413.091 456.231 409.162C455.038 404.787 455.864 407.062 453.934 406.234L454.081 395.403C455.569 397.919 454.778 396.858 455.884 399.554C456.045 399.947 456.657 401.451 456.786 401.763L457.848 404.11C458.667 395.694 467.562 381.161 467.528 369.18L467.406 359.972C462.371 360.784 462.867 362.324 458.916 362.739C453.363 363.324 455.683 361.677 450.682 360.195L453.162 358.106C455.719 355.654 456.866 354.7 455.597 349.068L455.012 347.377C443.659 347.562 439.806 365.587 439.719 365.746L434.077 371.044C433.887 371.247 433.594 371.533 433.419 371.753C430.518 375.37 429.604 381.351 427.512 385.44C426.081 388.234 426.259 387.334 424.611 390.978C423.4 393.653 422.89 394.657 421.971 396.656L416.506 413.715C416.377 414.032 416.227 414.398 416.098 414.715L399.083 454.617C398.792 455.487 389.009 473.871 386.502 482.476C383.948 491.241 386.45 487.687 380.483 500.477C373.451 515.553 375.132 514.462 369.835 530.224C366.335 540.64 360.443 548.448 359.463 553.595C355.091 576.562 355.079 565.907 348.545 583.025C347.201 586.544 345.633 591.157 343.955 593.925C332.858 612.229 280.494 608.762 260.716 608.41C233.999 607.934 248.313 605.721 233.009 604.287C229.066 603.917 221.516 602.664 218.626 601.533C211.989 598.936 216.482 597.885 208.998 596.702C208.39 603.996 210.807 601.511 209.602 607.159L209.604 607.162Z" fill="#FFCC2A"/>
<path fill-rule="evenodd" clip-rule="evenodd" d="M297.926 100.709C304.673 85.6549 302.613 67.4082 299.598 50.4901C296.854 35.0994 286.692 23.7839 269.599 22.1519L272.814 24.2533L269.667 25.9986C269.444 26.1512 269.09 26.3999 268.859 26.564C267.738 27.357 267.388 28.0127 264.925 29.5458C265.178 46.5531 268.384 80.3211 264.527 96.7621C261.991 98.5218 260.802 98.7771 258.491 100.08C252.708 103.34 254.31 100.699 253.531 106.565L255.599 107.654C263.413 110.696 265.261 108.946 270.929 108.803C278.115 108.622 271.007 109.875 277.389 109.431C285.599 108.861 291.094 100.055 297.927 100.71L297.926 100.709Z" fill="#FFCC2A"/>
<path fill-rule="evenodd" clip-rule="evenodd" d="M0.92627 835.778C9.61619 840.929 202.357 852.08 214.696 835.778C192.141 821.039 63.3848 826.246 23.8904 830.584C10.4898 832.056 8.04274 828.705 0.927225 835.778H0.92627Z" fill="#E6E7E8"/>
<path fill-rule="evenodd" clip-rule="evenodd" d="M65.1704 775.983C75.8091 785.013 144.756 785.04 161.576 779.764C152.99 773.02 77.7877 770.022 65.1704 775.983Z" fill="#E6E7E8"/>
<path fill-rule="evenodd" clip-rule="evenodd" d="M60.3992 733.441C70.5425 736.108 156.411 735.174 169.027 733.046C163.777 729.496 153.56 730.333 144.397 729.993C134.46 729.626 124.852 729.107 114.877 729.021L73.1796 729.395C71.2222 729.471 68.7483 729.474 66.9886 729.915C55.0126 732.912 65.034 729.424 60.3982 733.44L60.3992 733.441Z" fill="#E6E7E8"/>
<path fill-rule="evenodd" clip-rule="evenodd" d="M241.844 849.164C266.816 858.346 285.846 873.48 327.735 860.481C349.326 853.782 369.302 841.253 382.035 823.556C385.169 819.199 385.203 818.146 388.752 815.527C389.242 812.15 388.434 815.766 389.411 812.838L399.047 788.967C402.989 778.009 403.237 767.671 403.046 754.971C402.727 733.807 392.579 712.277 383.15 698.239C362.082 666.872 316.511 653.232 275.697 665.903C202.707 688.563 169.7 788.365 237.11 844.324L241.845 849.162L241.844 849.164Z" fill="#373535"/>
<path fill-rule="evenodd" clip-rule="evenodd" d="M565.064 841.512C581.404 849.714 594.41 866.923 634.233 864.636C698.007 860.975 746.992 794.622 729.286 735.23C723.466 715.707 717.897 711.539 714.845 702.796L711.775 699.929C694.895 680.485 675.016 664.461 646.889 662.491C615.196 660.27 587.625 669.47 565.525 689.58C548.721 704.872 531.323 732.55 531.449 765.327C531.512 781.503 535.819 797.913 541.287 809.953C544.127 816.207 547.588 821.503 551.777 826.523C554.777 830.117 563.424 838.646 565.064 841.512Z" fill="#373535"/>
<path fill-rule="evenodd" clip-rule="evenodd" d="M299.126 726.705C283.72 732.908 287.041 729.477 275.512 740.6C267.26 748.562 262.631 765.338 267.196 776.613C268.266 779.254 267.494 776.891 268.773 780.063C274.82 795.061 291.769 804.25 309.06 802.936C326.86 801.582 344.481 780.8 340.887 759.232C337.965 741.693 331.243 730.535 315.498 726.576C310.456 725.309 304.215 724.656 299.126 726.705Z" fill="white"/>
<path fill-rule="evenodd" clip-rule="evenodd" d="M626.246 802.784C632.596 802.767 635.073 803.675 640.681 801.623C654.542 796.554 661.136 792.9 667.404 777.017C672.398 764.361 669.99 748.48 661.315 737.925L652.424 729.906C636.52 728.302 632.222 725.002 617.66 731.853C606.391 737.157 603.106 745.482 599.051 753.391C591.605 767.917 600.696 787.225 613.797 794.995C617.272 797.055 623.403 799.44 626.247 802.784H626.246Z" fill="white"/>
<path fill-rule="evenodd" clip-rule="evenodd" d="M301.636 748.554C292.905 751.538 284.281 755.316 286.083 767.646C287.245 775.605 296.85 784.345 307.613 782.338C331.113 777.957 320.955 741.952 301.636 748.554Z" fill="#373535"/>
<path fill-rule="evenodd" clip-rule="evenodd" d="M626.72 749.645C619.01 752.558 614.141 761.999 617.47 770.617C628.319 798.697 665.311 766.399 639.411 751.148C634.385 748.188 632.702 747.385 626.72 749.645Z" fill="#373535"/>
<path fill-rule="evenodd" clip-rule="evenodd" d="M626.246 802.784C623.402 799.441 617.272 797.056 613.796 794.995C600.695 787.225 591.604 767.918 599.05 753.391C603.105 745.482 606.39 737.156 617.659 731.854C632.221 725.002 636.518 728.303 652.424 729.906C647.39 721.584 624.746 725.347 617.462 729.111C611.418 732.235 608.945 734.455 604.922 738.51C581.082 762.54 599.763 801.393 626.246 802.783V802.784Z" fill="white"/>
<path fill-rule="evenodd" clip-rule="evenodd" d="M450.005 839.905C454.226 843.471 547.849 851.192 553.843 839.905C542.887 829.7 480.344 833.304 461.16 836.309C454.65 837.328 453.462 835.007 450.006 839.905H450.005Z" fill="#E6E7E8"/>
<path fill-rule="evenodd" clip-rule="evenodd" d="M472.588 803.501C477.755 809.753 511.247 809.771 519.416 806.119C515.246 801.449 478.717 799.374 472.588 803.501Z" fill="#E6E7E8"/>
<path fill-rule="evenodd" clip-rule="evenodd" d="M470.27 774.044C475.197 775.89 516.908 775.244 523.036 773.771C520.485 771.313 515.523 771.893 511.072 771.657C506.245 771.402 501.578 771.044 496.733 770.984L476.479 771.244C475.527 771.296 474.326 771.298 473.471 771.603C467.654 773.678 472.521 771.263 470.269 774.044H470.27Z" fill="#E6E7E8"/>
</svg>
